<?xml version="1.0" standalone="no"?>
<!DOCTYPE svg PUBLIC "-//W3C//DTD SVG 1.1//EN" "http://www.w3.org/Graphics/SVG/1.1/DTD/svg11.dtd" >
<svg xmlns="http://www.w3.org/2000/svg" xmlns:xlink="http://www.w3.org/1999/xlink" version="1.1">
<metadata>
Created by FontForge 20170104 at Mon May 29 14:00:21 2017
 By Joshua Finklea
Copyright (c) 2015 by Lucas Sharp. All rights reserved.
</metadata>
<defs>
<font id="Frauen-Roman" horiz-adv-x="613" >
  <font-face 
    font-family="Frauen"
    font-weight="400"
    font-stretch="normal"
    units-per-em="1000"
    panose-1="0 0 0 0 0 0 0 0 0 0"
    ascent="800"
    descent="-200"
    x-height="499"
    cap-height="759"
    bbox="-236 -607.636 1336 1342.1"
    underline-thickness="50"
    underline-position="-100"
    unicode-range="U+000D-FA40"
  />
<missing-glyph horiz-adv-x="926" 
d="M100 730h726v-730h-726v730zM178 75h570v580h-570v-580zM276 216l143 149l-145 152l46 46l144 -151l144 151l46 -46l-145 -152l141 -147l-46 -46l-140 146l-142 -148z" />
    <glyph glyph-name="interrobang" unicode="&#x21;&#x3f;" horiz-adv-x="500" 
d="M92 525q-46 0 -68 28t-22 70q0 37 23 76.5t59 72t81.5 53.5t90.5 21q46 -1 85.5 -16.5t68 -42t45 -62t16.5 -75.5q0 -35 -18.5 -79.5t-50 -85.5t-74 -72t-89.5 -40v-84t-2 -62q-1 -15 -7.5 -26.5t-14 -19t-14 -10.5t-7.5 -3q-3 1 -4.5 5t-0.5 15v25t0.5 61.5t0.5 84v91.5
t-0.5 84t-0.5 63q-9 -13 -18.5 -26t-20.5 -23t-25.5 -16.5t-32.5 -6.5zM277 436q4 8 11 8q66 0 104.5 41t38.5 128q-1 39 -16.5 74.5t-43.5 62.5t-68 43.5t-89 16.5q-45 0 -76.5 -14.5t-51.5 -37t-29.5 -49t-9.5 -50.5q0 -45 20.5 -68t53.5 -23q39 0 63 30q18 22 29 45
t19 41q0 2 4 2h3v-302q8 10 19 25t19 27zM172 56q2 29 13.5 47t29.5 18q15 0 23 -18t6 -47t-12.5 -45.5t-28.5 -16.5q-17 0 -25 17.5t-6 44.5z" />
    <glyph glyph-name="fi" unicode="fi" horiz-adv-x="392" 
d="M126 48q0 -5 -4 -13t-18 -23q-17 -18 -21 -18q-5 0 -5 5v462h-70q-4 0 -4 3q0 2 3.5 6.5t12.5 16.5q11 14 14.5 16.5t7.5 2.5h36v4q1 24 3.5 44t9 39.5t18 40t30.5 43.5q33 41 57.5 57t55.5 16h108q4 0 3 -4t-11 -17q-12 -17 -17.5 -21.5t-9.5 -4.5h-114q-23 0 -38 -6
t-29 -24q-14 -20 -16 -47.5t-2 -75.5v-44h38h16.5t18.5 0.5t15.5 0.5h6.5q3 0 3 -2t-9.5 -13.5t-20.5 -25.5q-5 -3 -12 -4t-21 -1h-35v-413zM328 48q0 -5 -4.5 -13t-18.5 -23q-17 -18 -21 -18q-5 0 -5 5l-1 446q0 8 4 15t18 22t18.5 18.5t6.5 3.5q3 0 3 -7v-449z" />
    <glyph glyph-name="interrobangdown" unicode="&#xa1;&#xbf;" horiz-adv-x="500" 
d="M405 -11q46 0 68 -28t22 -70q0 -37 -23 -76.5t-59 -72t-81.5 -53.5t-90.5 -21q-46 1 -85.5 16.5t-68 42t-45 61.5t-16.5 76q0 35 18.5 79t50 85t73.5 72t89 40q0 44 0.5 84.5t2.5 62.5q1 15 7.5 26.5t14 19t13.5 10.5t8 3q3 -1 4.5 -5t0.5 -15v-25t-0.5 -61.5t-0.5 -84
v-91.5v-84.5t1 -62.5l18 26t20.5 23t25.5 16.5t33 6.5zM220 78q-4 -8 -11 -8q-66 0 -104.5 -41t-38.5 -128q1 -39 16.5 -74.5t43.5 -62.5t68 -43.5t89 -16.5q45 0 76.5 14.5t51.5 37t29.5 49t9.5 50.5q0 45 -20.5 68t-53.5 23q-39 0 -63 -30q-18 -22 -29 -45t-19 -41
q-1 -2 -4 -2h-3v223q-1 14 -1 35v44q-8 -11 -18.5 -25.5t-18.5 -26.5zM325 458q-2 -29 -13.5 -47t-29.5 -18q-15 0 -23 18t-6 47t12.5 45.5t28.5 16.5q17 0 25 -17.5t6 -44.5z" />
    <glyph glyph-name=".notdef" horiz-adv-x="926" 
d="M100 730h726v-730h-726v730zM178 75h570v580h-570v-580zM276 216l143 149l-145 152l46 46l144 -151l144 151l46 -46l-145 -152l141 -147l-46 -46l-140 146l-142 -148z" />
    <glyph glyph-name="NULL" horiz-adv-x="0" 
 />
    <glyph glyph-name="NULL" horiz-adv-x="0" 
 />
    <glyph glyph-name="nonmarkingreturn" unicode="&#xd;" horiz-adv-x="249" 
 />
    <glyph glyph-name="space" unicode=" " horiz-adv-x="249" 
 />
    <glyph glyph-name="exclam" unicode="!" horiz-adv-x="285" 
d="M107 56q2 29 13.5 47t29.5 18q15 0 23 -18t6 -47t-12.5 -45.5t-28.5 -16.5q-17 0 -25 17.5t-6 44.5zM186 753q0 -33 -0.5 -72l-1 -78t-1 -75t-1.5 -63q-2 -93 -4.5 -148t-5.5 -90q-1 -15 -6.5 -26t-12.5 -18t-13 -10t-7 -3q-3 1 -4.5 5t-0.5 15q0 1 0.5 27.5t1 66.5t1 88
t0.5 93l1 231q1 20 8.5 35t16 24.5t15.5 13.5t9 4q3 -1 4.5 -5t0.5 -15z" />
    <glyph glyph-name="quotedbl" unicode="&#x22;" horiz-adv-x="305" 
d="M92 499q0 14 -1.5 47t-4 68t-4 62.5t-1.5 31.5t8 15.5t18.5 23.5t19.5 21t12 9q8 0 8 -9q-6 -25 -14 -52t-15.5 -59t-12.5 -70.5t-5 -86.5v-25q-1 -3 -4 -3t-4 3v24zM192 499q0 14 -1.5 47t-4 68t-4 62.5t-1.5 31.5t8 15.5t18.5 23.5t19.5 21t12 9q8 0 8 -9
q-6 -25 -14 -52t-15.5 -59t-12.5 -70.5t-5 -86.5v-25q-1 -3 -4 -3t-4 3v24z" />
    <glyph glyph-name="numbersign" unicode="#" horiz-adv-x="654" 
d="M547 317q19 0 26 2.5t9 2.5q1 0 1 -2q0 -3 -8 -15.5t-16 -23.5q-5 -3 -11.5 -5t-21.5 -2h-147q-27 -87 -48 -158.5t-35 -123t-22 -82t-9 -34.5q-2 -5 -8 -13.5t-13.5 -16.5t-14 -14.5t-8.5 -6.5q-3 0 -5.5 2.5t-0.5 7.5q13 32 32 83t40 110.5t42.5 123t40.5 122.5
q-40 1 -82 1.5t-81 0.5q-27 -85 -47 -155t-34.5 -121t-22 -80.5t-8.5 -33.5q-2 -5 -8 -13.5t-13.5 -16.5t-14 -14.5t-8.5 -6.5q-3 0 -5 2.5t0 7.5q13 31 31 81t38.5 108.5t42 121t40.5 120.5q-48 1 -84 1h-47q-19 0 -24 -2t-7 -2q-1 0 -1 2q0 3 6 15t14 23q5 3 11.5 5
t21.5 2h42t82 -1l18 54l19 61q-55 1 -97.5 1h-54.5q-19 0 -24 -2t-7 -2q-1 0 -1 2q0 3 6 15t14 23q5 3 11.5 5t21.5 2h48.5t96.5 -1q21 69 40 133t33 114t22.5 81t10.5 35q1 5 7.5 13.5t14 16.5t14 14t8.5 6q9 0 6 -10q-27 -67 -63 -163t-84 -240q40 0 82 -0.5t81 -1.5
q21 68 39.5 130.5t32 111.5t22 79.5t10.5 33.5q1 5 7.5 13.5t14 16.5t14 14t8.5 6q9 0 6 -10q-28 -66 -63.5 -160.5t-81.5 -234.5h133q19 0 26 2.5t9 2.5q1 0 1 -2q0 -3 -8 -15.5t-16 -23.5q-5 -3 -11.5 -5t-21.5 -2h-126l-21 -64q-5 -13 -8.5 -25.5t-7.5 -24.5
q56 -1 98.5 -1h55.5zM239 378q-5 -15 -9.5 -30t-9.5 -29q38 0 80.5 -0.5t83.5 -0.5l15 45l22 69q-39 1 -81 1.5t-83 0.5z" />
    <glyph glyph-name="dollar" unicode="$" horiz-adv-x="536" 
d="M138 241q-17 -11 -29.5 -34.5t-12.5 -51.5q0 -46 32.5 -76t86.5 -41q1 40 2 82.5t1.5 83t0.5 78.5v70v8q-30 9 -57 21.5t-48 31t-33 45.5t-12 65q0 30 11.5 60t31 57.5t45 51t54.5 39.5q-2 58 -3.5 95t-1.5 41q0 5 2.5 13.5t6.5 16.5l7 14t5 6q3 0 6 -3t3 -7
q-6 -63 -9 -168q37 18 70 20q-2 43 -2.5 69t-0.5 29q0 5 2.5 13.5t6.5 16.5l7 14t5 6q3 0 6 -3t3 -7q-2 -26 -4 -60.5t-4 -76.5q64 -2 105.5 -32.5t41.5 -84.5q0 -21 -7 -41t-18.5 -36.5t-26 -29t-29.5 -18.5q-2 -2 -3 0t1 4q17 10 26.5 31.5t9.5 51.5q0 43 -26 71t-75 37
q-2 -66 -2.5 -146.5t-0.5 -171.5q33 -11 64.5 -23.5t55.5 -32t38.5 -48.5t14.5 -72q0 -29 -14 -59.5t-37.5 -58.5t-54 -51.5t-63.5 -39.5q2 -70 4 -111t2 -46t-2.5 -13.5t-5.5 -16.5t-6.5 -14.5t-5.5 -6.5q-3 0 -6 2.5t-3 7.5q2 32 4.5 82t4.5 110q-39 -16 -73 -17
q2 -60 3.5 -94.5t1.5 -39.5t-2.5 -13.5t-5.5 -16.5t-6.5 -14.5t-5.5 -6.5q-3 0 -6 2.5t-3 7.5q2 29 4 75t4 100q-78 3 -124.5 36.5t-46.5 90.5q0 21 8.5 41t22 37.5t30 30.5t33.5 21q2 1 3 0t-1 -3zM449 174q0 36 -11 61.5t-30 44t-43.5 31t-52.5 21.5q0 -87 1 -161t3 -134
q28 6 52 18t42 29.5t28.5 40t10.5 49.5zM224 354q0 -94 1 -174.5t3 -144.5q10 -2 20.5 -2h21.5q8 0 16.5 0.5t16.5 1.5q2 77 3 156t1 142q-20 7 -41.5 13t-41.5 12v-4zM268 718q-19 0 -41 -5q-3 -123 -3 -290q20 -8 41 -14t42 -13q-1 84 -3.5 168.5t-4.5 151.5
q-8 1 -15.5 1.5t-15.5 0.5zM105 567q0 -30 9 -52.5t24 -39.5t35.5 -29t44.5 -21q-1 75 -2.5 148.5t-3.5 135.5q-45 -14 -76 -49.5t-31 -92.5z" />
    <glyph glyph-name="percent" unicode="%" horiz-adv-x="719" 
d="M44 -33q-3 0 -4 3t3 6q19 18 50 55t72.5 91.5t93 124.5t111.5 153q48 65 91 124.5t75.5 105t51.5 73t20 29.5l9.5 9.5t14 12.5t14 10.5t9.5 3.5q7 0 2 -9q-15 -20 -37 -48t-53.5 -70.5t-75 -102.5t-102.5 -143q-48 -68 -96.5 -138.5t-88.5 -128t-65.5 -95t-26.5 -39.5
q-2 -4 -12 -9t-21.5 -9t-21.5 -7t-13 -2zM212 411q50 0 75 34t25 118q0 35 -9 65t-25.5 51.5t-39 34t-50.5 12.5q-23 0 -40.5 -7.5t-29.5 -25.5t-18 -48t-6 -75q0 -37 9.5 -66.5t26 -50t38 -31.5t44.5 -11zM190 370q-27 0 -52 10.5t-43.5 32t-29.5 52.5t-11 71
q0 49 16.5 90.5t41.5 71t53 46.5t51 17q28 0 53 -11.5t43 -33t28.5 -52.5t10.5 -70q0 -43 -17.5 -83.5t-42.5 -71.5t-52.5 -50t-48.5 -19zM527 6q50 0 75 34t25 118q0 35 -9 65t-25.5 51.5t-39 34t-50.5 12.5q-23 0 -40.5 -7.5t-29.5 -25.5t-18 -48t-6 -75q0 -37 9.5 -66.5
t26 -50t38 -31.5t44.5 -11zM505 -35q-27 0 -52 10.5t-43.5 32t-29.5 52.5t-11 71q0 49 16.5 90.5t41.5 71t53 46.5t51 17q28 0 53 -11.5t43 -33t28.5 -52.5t10.5 -70q0 -43 -17.5 -83.5t-42.5 -71.5t-52.5 -50t-48.5 -19z" />
    <glyph glyph-name="ampersand" unicode="&#x26;" horiz-adv-x="751" 
d="M524 402q0 7 5.5 14.5t22.5 30.5q10 14 16 18h-156q-19 0 -24 -2t-7 -2t-2 2q0 1 2.5 6.5t6.5 12.5t8.5 14t8.5 13q5 3 12 5t22 2h277q19 0 24 2t7 2t2 -2t-2.5 -7t-6.5 -12t-8.5 -14t-8.5 -13q-5 -3 -12 -5t-22 -2h-116q2 -2 2.5 -10.5t0.5 -28.5v-50q0 -80 -27 -140
t-65 -107q53 -48 95 -74t68 -26q28 0 46.5 10.5t32.5 24.5q4 0 4 -3q-11 -12 -25 -25.5t-30 -24t-34 -17.5t-37 -7q-53 0 -158 99q-45 -45 -98 -72t-99 -27q-69 0 -110.5 19.5t-69.5 51.5q-23 26 -31 55t-8 61q0 28 14 56.5t36 55.5t49 51t54 43q-40 55 -58 97t-18 76
q0 39 19 76t48 66t63 47t64 18q44 0 76.5 -14.5t67.5 -47.5q2 -2 -1.5 -7t-17.5 -19t-18.5 -16t-6.5 -1q-32 32 -62 48t-76 16q-58 0 -84.5 -31t-26.5 -87q0 -55 39.5 -126t128.5 -173q86 -101 159 -168q23 33 34 74t11 96v98zM281 261q-28 31 -51 58.5t-42 53.5
q-26 -18 -46 -35.5t-34 -36.5t-22.5 -41t-9.5 -49q0 -62 39 -110q28 -35 68.5 -51.5t108.5 -16.5q45 0 82.5 15.5t66.5 41.5q-35 33 -75 75.5t-85 95.5z" />
    <glyph glyph-name="quotesingle" unicode="'" horiz-adv-x="205" 
d="M92 499q0 14 -1.5 47t-4 68t-4 62.5t-1.5 31.5t8 15.5t18.5 23.5t19.5 21t12 9q8 0 8 -9q-6 -25 -14 -52t-15.5 -59t-12.5 -70.5t-5 -86.5v-25q-1 -3 -4 -3t-4 3v24z" />
    <glyph glyph-name="parenleft" unicode="(" horiz-adv-x="423" 
d="M364 -163q-52 39 -97 89.5t-78.5 113.5t-52.5 139t-19 166q0 99 23 183.5t61 152.5t88.5 120.5t105.5 87.5q2 -1 3 -3t0 -3q-55 -36 -99.5 -84t-75.5 -110t-47.5 -140t-16.5 -172q0 -80 17.5 -153.5t50 -137t78.5 -116t103 -90.5q1 -5 -3.5 -14t-12.5 -18q-6 -6 -15 -10
t-13 -1z" />
    <glyph glyph-name="parenright" unicode=")" horiz-adv-x="423" 
d="M53 872q52 -39 97.5 -89.5t79 -113.5t52.5 -139t19 -166q0 -99 -22.5 -182.5t-61 -151t-88.5 -119t-105 -86.5q-2 1 -3 3t0 3q55 36 99.5 84t75.5 110t47.5 139.5t16.5 172.5q0 80 -18 153.5t-50.5 137.5t-78.5 116.5t-103 90.5q0 2 4 10t10 15q20 20 29 12z" />
    <glyph glyph-name="asterisk" unicode="*" horiz-adv-x="482" 
d="M385 606q9 0 16.5 2t8.5 2q2 0 2 -2t-7 -16t-14 -23q-4 -3 -9.5 -4.5t-18.5 -1.5h-106q1 -47 1.5 -80.5t0.5 -35.5q0 -3 -1.5 -8t-15.5 -23q-5 -7 -11.5 -14.5t-9.5 -7.5q-4 0 -4 4v18t-0.5 38t-1 51.5t-0.5 58.5q-41 0 -75 0.5t-46 0.5q-16 0 -20 -2t-6 -2l-1 2
q0 2 6.5 16t14.5 23q3 2 9 3.5t19 1.5q10 0 37 -0.5t61 -0.5q-1 46 -1 80.5v38.5q0 5 4 14t18 28q5 7 9 11.5t7 4.5t3 -4v-18.5t0.5 -39.5t1 -54t0.5 -61h129zM284 543q10 -10 22.5 -18.5t24.5 -15t22 -11t14 -6.5q3 -2 4 -9t1 -16t-2 -17t-5 -11q-6 -6 -12 3t-14 22
t-17.5 26.5t-19.5 26.5t-20 23l-2 2q-1 1 -0.5 2t2.5 0zM192 537q-9 -10 -19 -23t-19 -25.5t-16.5 -24t-11.5 -17.5q-3 -3 -9 -4.5t-13 -1.5t-14.5 1.5t-11.5 5.5q-2 1 -2 4t4 5q15 9 31 20t31 22.5t27.5 21.5t20.5 18l2 2q1 1 2.5 0t-0.5 -3zM190 630q-20 20 -44.5 33
t-36.5 20q-2 1 -3 8t-1 15.5t1.5 17t3.5 11.5q2 2 5 3t5 -3q18 -32 35.5 -56.5t35.5 -44.5l3 -3q1 -1 0 -2t-3 0zM280 635q9 9 18.5 21t18 24.5t15.5 24t10 18.5q1 2 8 4t15.5 2.5t16.5 0t10 -2.5q5 -5 -1 -9q-15 -11 -31 -22.5t-31 -23.5t-27.5 -22.5t-20.5 -18.5l-1 -2
q-3 0 -3 3z" />
    <glyph glyph-name="plus" unicode="+" horiz-adv-x="570" 
d="M438 366q19 0 24 2t7 2t2 -2q0 -3 -8 -18t-16 -26q-5 -3 -12 -5t-22 -2h-40t-58 1q1 -48 1.5 -82.5t0.5 -36.5v-4t-1.5 -5.5t-6 -10.5t-12.5 -18q-6 -8 -11 -13.5t-9 -5.5t-4 5v19t-0.5 39.5t-1 53t-1.5 59.5q-39 1 -73.5 1.5t-50.5 0.5q-19 0 -24 -2t-7 -2t-2 2
q0 3 8 18t16 26q5 3 12 5t22 2q9 0 36 -0.5t62 -0.5q-1 42 -1 72.5v35.5v6.5t1.5 8t6 11.5t12.5 18q6 8 11 13.5t9 5.5t4 -5v-18.5t0.5 -38.5t1 -51.5t0.5 -58.5q39 -1 73.5 -1h50.5z" />
    <glyph glyph-name="comma" unicode="," horiz-adv-x="285" 
d="M183 41q-2 -24 -10 -52t-20 -56t-27.5 -53t-33.5 -43q-3 -3 -7.5 -1t0.5 7q45 42 63.5 102t17.5 120q-2 -11 -5 -23t-7.5 -23t-10.5 -18t-14 -7q-36 0 -29 58q4 33 16.5 51t30.5 18q15 0 27.5 -20t8.5 -60z" />
    <glyph glyph-name="hyphen" unicode="-" horiz-adv-x="383" 
d="M248 234q-9 0 -28.5 0.5t-40.5 1t-40.5 1t-29.5 0.5q-13 0 -21 -1t-10 -1t-2 2q0 3 7 14t15 21q9 12 26 12q13 0 34.5 -0.5t44 -0.5t42 -0.5t28.5 -0.5q19 0 24 2t7 2t2 -2q0 -3 -8 -17.5t-16 -25.5q-5 -3 -12 -5t-22 -2z" />
    <glyph glyph-name="period" unicode="." horiz-adv-x="285" 
d="M107 56q2 29 13.5 47t29.5 18q15 0 23 -18t6 -47t-12.5 -45.5t-28.5 -16.5q-17 0 -25 17.5t-6 44.5z" />
    <glyph glyph-name="slash" unicode="/" horiz-adv-x="396" 
d="M-14 -66q-3 0 -4.5 2.5t1.5 6.5q16 23 37.5 57.5t50 86t64.5 123.5t83 170q37 77 69 147t56.5 123.5t39 86t15.5 34.5q2 4 7.5 12t11.5 16t11.5 14t8.5 6q7 0 3 -9q-12 -23 -28.5 -57t-40.5 -84.5t-57 -121t-77 -167.5q-36 -80 -70 -151.5t-60 -126.5t-42.5 -88
l-17.5 -35q-2 -4 -10.5 -11.5t-19 -15t-19.5 -13t-12 -5.5z" />
    <glyph glyph-name="zero" unicode="0" horiz-adv-x="638" 
d="M325 33q106 0 161.5 86.5t55.5 261.5q0 73 -15 135t-45 107t-74 70.5t-102 25.5q-47 0 -85.5 -20t-66 -63t-42.5 -110.5t-15 -161.5q0 -77 17.5 -138.5t48 -104t72 -65.5t90.5 -23zM301 -14q-55 0 -101 21.5t-79.5 64t-52.5 104.5t-19 143q0 99 26 180t67.5 138.5
t93 89.5t101.5 33q57 0 103 -22.5t79 -65.5t50.5 -105t17.5 -140q0 -93 -27 -173.5t-68.5 -140t-92 -93.5t-98.5 -34z" />
    <glyph glyph-name="one" unicode="1" horiz-adv-x="416" 
d="M78 590q40 42 79.5 85t69.5 78l6 2q4 -1 4 -10v-28v-70v-98.5t-0.5 -113t-0.5 -114v-101.5v-74.5v-34.5q0 -6 -5 -15.5t-20 -27.5q-5 -6 -10 -11.5t-9 -7.5h148q22 0 28.5 2t8.5 2t2 -2t-9.5 -17t-17.5 -28q-5 -4 -13 -5t-25 -1h-22h-46t-57.5 0.5t-57 0.5h-45.5h-22
q-15 0 -22.5 -1t-9.5 -1l-1 2q0 6 14 28q7 11 11.5 15.5t15.5 4.5h110v2v31.5v73v100.5t0.5 114t0.5 114v101v74v34l-86 -109q-5 -5 -13 -1.5t-6 7.5z" />
    <glyph glyph-name="two" unicode="2" horiz-adv-x="576" 
d="M340 527q-22 -27 -42.5 -50t-42.5 -39.5t-45 -25.5t-49 -9q-60 0 -87.5 34.5t-27.5 88.5q0 39 24.5 80t62.5 75.5t85 56.5t91 22q51 0 90.5 -14t66.5 -38t41.5 -57t14.5 -72q0 -48 -19.5 -90t-55 -83.5t-83.5 -85t-105 -95.5l-193 -176q6 2 11 2h418q22 0 28.5 2t8.5 2
t2 -2q0 -1 -3 -6t-7.5 -12t-9.5 -15t-9 -14q-5 -4 -13 -5t-25 -1h-452l-2 2q-2 2 -2 3q0 2 2.5 4.5l10.5 10.5l226 213q54 50 94.5 91.5t68 78t41.5 70.5t14 70q0 83 -54.5 129.5t-148.5 46.5q-42 0 -75 -12.5t-55.5 -33t-34 -47t-11.5 -55.5q0 -57 27.5 -88.5t77.5 -31.5
q24 0 42.5 4.5t34.5 14.5t31 24.5t32 35.5z" />
    <glyph glyph-name="three" unicode="3" horiz-adv-x="542" 
d="M190 -13q-61 0 -101.5 31.5t-40.5 88.5q0 28 13.5 55t35 52.5t48 49t52.5 44.5l4 -4q-52 -43 -77 -79.5t-25 -74.5q0 -55 36.5 -86.5t108.5 -31.5q50 0 88.5 18t65 48t40 68.5t13.5 78.5q0 43 -10.5 79.5t-34 63t-61 41.5t-90.5 15q-43 0 -81 -17.5t-66 -45.5l-11 13
l329 302h-351q-3 0 -3 2q0 4 17 26q9 12 14.5 16t15.5 4h342q5 0 10.5 0.5t10.5 1.5q4 0 4 -4l-336 -319q33 23 73.5 38.5t88.5 15.5q46 0 81 -15t59 -40.5t36 -60.5t12 -75q0 -48 -28 -100.5t-72.5 -97t-99.5 -73t-110 -28.5z" />
    <glyph glyph-name="four" unicode="4" horiz-adv-x="567" 
d="M515 272q22 0 28.5 2t8.5 2t2 -2t-9.5 -15t-17.5 -26q-5 -4 -13 -5t-25 -1h-89v-187q0 -3 -4 -11t-19 -24q-7 -7 -13.5 -12.5t-11.5 -5.5q-3 0 -3 4q0 2 -0.5 22t-0.5 52.5v74v87.5h-301l-22 -2l-3 10l357 502q8 11 12 15.5t6 4.5q4 0 4 -6v-25v-58.5t-0.5 -83.5
t-0.5 -99.5v-107v-105.5h115zM69 272h279q0 71 0.5 143.5t1 131t0.5 97v41.5z" />
    <glyph glyph-name="five" unicode="5" horiz-adv-x="581" 
d="M195 -12q-30 0 -56 9t-45 25.5t-30 39.5t-11 52q0 30 11.5 56.5t31 50.5t45.5 46.5t56 45.5l4 -3q-30 -24 -49 -43t-30 -36.5t-15 -35.5t-4 -40q0 -52 38.5 -87t107.5 -35q51 0 91 19t68.5 49t43.5 67.5t15 75.5q0 49 -12.5 91.5t-38 73t-64.5 48t-93 17.5
q-32 0 -57 -8.5t-46 -21.5t-38.5 -29t-34.5 -31l-7 10l4 7v284l-9 6v1l49 53l18 -1h285q23 0 31.5 3t10.5 3q3 0 3 -4q0 -2 -10 -16.5t-21 -29.5q-5 -1 -11.5 -1.5t-23.5 -0.5h-273l1 -221q0 -16 -1 -27.5t-6 -20.5q36 29 83.5 53t105.5 24q49 0 86.5 -16.5t63 -45.5
t38.5 -68.5t13 -84.5q0 -29 -12 -62.5t-34 -67t-51.5 -65t-65 -55.5t-75 -38.5t-80.5 -14.5z" />
    <glyph glyph-name="six" unicode="6" horiz-adv-x="644" 
d="M467 548q29 21 29 63q0 50 -36.5 79.5t-110.5 29.5q-119 0 -181.5 -84.5t-62.5 -260.5q0 -29 2 -56t6 -52q13 40 38.5 76t58.5 62t70.5 41.5t75.5 15.5q49 0 88.5 -15.5t67.5 -43t43 -65t15 -80.5q0 -41 -24 -88.5t-62.5 -88t-86 -67.5t-93.5 -27q-56 0 -101.5 22.5
t-78 67.5t-50.5 111.5t-18 155.5t29 165.5t76 132t107.5 87t122.5 31.5q38 0 66.5 -9t47.5 -24.5t28.5 -36.5t9.5 -43q0 -28 -22 -55.5t-50 -46.5zM128 233q0 -31 10 -60q28 -69 78 -105t124 -36q49 0 84 15.5t57 42.5t32.5 62t10.5 74q0 36 -10.5 71.5t-35.5 64t-65 46.5
t-98 18q-39 0 -73.5 -16t-59.5 -42.5t-39.5 -61.5t-14.5 -73z" />
    <glyph glyph-name="seven" unicode="7" horiz-adv-x="520" 
d="M43 693q-3 0 -3 2q0 3 4 8.5t15 20.5q9 12 14.5 16t15.5 4h413q4 0 3 -3q-38 -72 -79.5 -165t-82 -190t-77.5 -188.5t-65 -159.5q-12 -11 -28.5 -24t-31.5 -23.5t-26.5 -17.5t-12.5 -7q-3 0 -3 5q45 86 95.5 183t100.5 193.5t97 187t85 162.5q-4 -2 -15.5 -3t-39.5 -1
h-379z" />
    <glyph glyph-name="eight" unicode="8" horiz-adv-x="604" 
d="M560 238q0 -45 -28.5 -89.5t-72 -80.5t-95 -58.5t-96.5 -22.5q-47 0 -88 11t-71 32t-47 52.5t-17 72.5t18.5 74t48 61t67.5 52t77 46q-36 13 -68.5 27t-57 32t-39.5 41t-15 54q0 40 23.5 79t59.5 70t79.5 50t82.5 19q40 0 74.5 -9.5t60 -28.5t40 -46t14.5 -61
q0 -29 -13.5 -55t-37.5 -50.5t-56 -47t-69 -44.5q42 -15 82.5 -31t72.5 -37t51.5 -48t19.5 -64zM96 192q0 -33 15.5 -62t44.5 -50.5t70.5 -34.5t92.5 -13q40 0 76 10.5t63 31.5t43 51.5t16 69.5q0 41 -22.5 69.5t-58.5 50t-80.5 37.5t-89.5 32q-34 -20 -65 -39.5t-54 -42
t-37 -49.5t-14 -61zM469 584q0 28 -13.5 53t-38.5 43t-59.5 28.5t-77.5 10.5q-81 0 -122.5 -37t-41.5 -97q0 -33 17.5 -57t47 -43t67 -34t77.5 -29q66 39 105 79t39 83z" />
    <glyph glyph-name="nine" unicode="9" horiz-adv-x="616" 
d="M153 195q-14 -10 -22 -25t-8 -36q0 -45 37.5 -73t114.5 -28q113 0 176.5 82.5t63.5 257.5q0 68 -10 121q-11 -44 -36 -82.5t-58 -67t-72 -45.5t-78 -17q-49 0 -88 16t-66.5 44t-42 66t-14.5 81q0 42 23.5 89.5t61 88t85 67t96.5 26.5q56 0 101.5 -22.5t78 -67
t50.5 -111.5t18 -155q0 -58 -13.5 -111t-37.5 -99.5t-56 -84.5t-68.5 -65t-76 -42t-77.5 -15q-76 -1 -117.5 29t-41.5 82q0 30 21 56.5t51 44.5zM492 514q0 36 -15 75q-29 63 -78 96.5t-118 33.5q-47 0 -81.5 -15t-57.5 -41.5t-34 -63t-11 -78.5q0 -36 10.5 -72t35 -64.5
t64 -46t98.5 -17.5q39 0 73.5 16t59.5 42.5t39.5 61.5t14.5 73z" />
    <glyph glyph-name="colon" unicode=":" horiz-adv-x="285" 
d="M106 167q2 29 13.5 46.5t29.5 17.5q15 0 23 -17.5t6 -46.5q-2 -28 -12.5 -44.5t-28.5 -16.5q-17 0 -25 17.5t-6 43.5zM106 353q2 30 13.5 47t29.5 17q15 0 23 -16t6 -47q-2 -29 -16 -44t-25 -15q-17 0 -25 16.5t-6 41.5z" />
    <glyph glyph-name="semicolon" unicode=";" horiz-adv-x="285" 
d="M183 151q-2 -24 -10 -52t-20 -56t-27.5 -53t-33.5 -43q-3 -3 -7.5 -1t0.5 7q45 41 63.5 101t17.5 121q-2 -11 -5 -23t-7.5 -23t-10 -18t-12.5 -7q-13 0 -19.5 17.5t-4.5 44.5q2 29 13.5 47t29.5 18q15 0 26 -20t7 -60zM107 352q2 31 13.5 48t29.5 17q15 0 22.5 -15.5
t5.5 -44.5t-13 -45.5t-27 -16.5q-17 0 -25 15t-6 42z" />
    <glyph glyph-name="less" unicode="&#x3c;" horiz-adv-x="554" 
d="M376 465q-23 -12 -51.5 -28t-57.5 -33.5t-56.5 -35t-48.5 -31.5q-4 -3 0 -5q15 -9 50 -26t74.5 -34.5t75 -33t51.5 -21.5q4 -2 0 -8.5t-13 -15.5q-18 -18 -30 -14q-16 4 -49 18.5t-70.5 32.5t-73 36.5t-56.5 30.5q-3 1 -1 7q1 1 4.5 6t8 10t9.5 10t8 7q23 16 51.5 35
l57 38t55 36t45.5 30q13 9 20 9q8 0 8 -8q0 -6 -11 -12z" />
    <glyph glyph-name="equal" unicode="=" horiz-adv-x="570" 
d="M418 296q19 0 24 2t7 2t2 -2q0 -3 -8 -18t-16 -26q-5 -3 -12 -5t-22 -2q-17 0 -48.5 0.5t-65.5 1t-65.5 1t-47.5 0.5q-19 0 -24 -2t-7 -2t-2 2q0 3 8 18t16 26q5 3 12 5t22 2q11 0 41.5 -0.5t66 -1t69 -1t50.5 -0.5zM418 433q19 0 24 2t7 2t2 -2q0 -3 -8 -18t-16 -26
q-5 -3 -12 -5t-22 -2q-17 0 -48.5 0.5t-65.5 1t-65.5 1t-47.5 0.5q-19 0 -24 -2t-7 -2t-2 2q0 3 8 18t16 26q5 3 12 5t22 2q11 0 41.5 -0.5t66 -1t69 -1t50.5 -0.5z" />
    <glyph glyph-name="greater" unicode="&#x3e;" horiz-adv-x="554" 
d="M166 182q23 12 53.5 27.5t62 32t60.5 33t50 30.5q4 3 0 5q-15 9 -48.5 27t-71 36.5t-71 35t-49.5 22.5q-4 2 0 8.5t13 15.5q18 18 30 14q16 -5 47 -20t66.5 -34t69.5 -38.5t55 -31.5q3 -1 1 -7q-1 -2 -4.5 -6.5t-8 -9.5t-9.5 -10t-8 -7q-23 -17 -53.5 -35l-61 -36
t-59 -34t-47.5 -29q-14 -9 -20 -9q-8 0 -8 8q0 6 11 12z" />
    <glyph glyph-name="question" unicode="?" horiz-adv-x="519" 
d="M224 609q-4 -14 -12.5 -29.5t-21.5 -28.5t-30.5 -21.5t-38.5 -8.5q-23 0 -41 8.5t-31 22.5t-19.5 32.5t-6.5 39.5q0 37 23.5 77.5t60.5 74t83 55.5t91 22q46 -1 85 -15.5t67 -39.5t43.5 -60t15.5 -76q0 -36 -15 -65t-38.5 -54t-52 -46t-54.5 -41q-20 -15 -38.5 -30
t-32 -30.5t-21.5 -33.5t-8 -40q0 -25 12 -44.5t32 -34.5l9 -9t4 -9t-4.5 -12t-10.5 -13.5t-12 -11t-9 -4.5q-7 0 -19 9q-16 13 -32 36t-16 54q0 30 12.5 54.5t32.5 45t45.5 39.5t51.5 39q22 17 43 35.5t37.5 39t26 42.5t9.5 47q-1 40 -15 75t-40 60.5t-64.5 40t-87.5 14.5
q-41 0 -72.5 -12.5t-53 -33.5t-32.5 -49t-11 -60q0 -45 24 -71t57 -26q56 0 70 48zM197 56q2 29 13.5 47t29.5 18q15 0 23 -18t6 -47t-12.5 -45.5t-28.5 -16.5q-17 0 -25 17.5t-6 44.5z" />
    <glyph glyph-name="at" unicode="@" horiz-adv-x="513" 
d="M286 272q2 11 2 18.5t2 12.5q1 6 6.5 15t11.5 17.5t11 14t6 5.5q4 0 4 -9q-3 -39 -3.5 -67.5t-0.5 -49.5q0 -45 13 -61t31 -16q12 0 24 9t22.5 26t17 41t6.5 55q0 45 -12 82.5t-34.5 64.5t-54 41.5t-71.5 14.5q-41 0 -76 -20.5t-61.5 -55.5t-41.5 -80.5t-15 -96.5
t10.5 -92.5t31.5 -71t52 -46t72 -16.5t75 16t57 49l4 -3q-35 -51 -76 -78.5t-92 -27.5q-41 0 -72.5 16t-53.5 44t-33 67t-11 86q0 66 24.5 128t63 110.5t85 78t91.5 29.5q40 0 71.5 -13.5t53 -37t32.5 -56t11 -70.5q0 -39 -13.5 -81.5t-33 -77.5t-42 -58t-39.5 -23
q-20 0 -31.5 13t-16.5 31.5t-6 40t-1 38.5q-14 -60 -37.5 -94t-41.5 -34q-20 0 -32 20t-12 73q0 31 12 69t30 70.5t39 54.5t39 22q29 0 29 -32q0 -17 -15 -35.5t-29 -28.5q-3 -3 -5 -3t-1.5 1.5t1.5 2.5q5 7 9 14t4 19q0 11 -6 17.5t-20 6.5q-8 0 -16 -10t-14 -27.5
t-9.5 -40.5t-3.5 -50q0 -52 6 -75.5t23 -23.5q4 0 10.5 5t13.5 19.5t13.5 39.5t12.5 64z" />
    <glyph glyph-name="A" unicode="A" horiz-adv-x="549" 
d="M226 709q-1 2 -0.5 6.5t3.5 7.5q18 23 24.5 29.5t8.5 6.5t4 -5l255 -715q1 -4 -3 -9.5t-15 -19.5q-13 -16 -18 -16q-3 0 -6 9l-120 333q-2 -5 -7 -16.5t-13 -22.5q-5 -3 -13 -4.5t-25 -1.5q-44 0 -67 -0.5t-34.5 -0.5h-15h-8.5q-14 0 -20.5 -1t-9.5 -2l-72 -238
q-9 -12 -20 -23.5t-21 -20.5t-17.5 -14t-8.5 -5q-5 -1 -5 2q63 155 126 323.5t120 334.5zM160 329q5 3 12.5 5t24.5 2q6 0 24 0.5t39 0.5h39h23q22 0 28 2t8 2l-106 294l-93 -307z" />
    <glyph glyph-name="B" unicode="B" horiz-adv-x="529" 
d="M84 -8q-2 -2 -4 -3.5t-4 -1.5q-4 0 -4 4v43.5v81v105.5t0.5 117.5t0.5 116v102.5v76v37l-15 6v3q1 1 8.5 9.5t17 19t19 20l14.5 14.5h4l2 -2v-55q26 23 61.5 43t80.5 20q57 0 90.5 -32t33.5 -82q0 -29 -12.5 -54.5t-34.5 -47t-52 -40.5t-65 -35l36 1q49 0 90.5 -12
t71.5 -36.5t46.5 -61.5t16.5 -88q0 -47 -25.5 -94t-64.5 -85.5t-86 -62.5t-90 -24q-37 0 -63 7t-48 18q-5 -5 -11 -12t-14 -15zM265 41q80 2 128 45.5t48 140.5q0 51 -15.5 87.5t-44 59.5t-68 33.5t-86.5 10.5h-65.5t-37.5 -1h-1v-341q26 -16 60.5 -25.5t81.5 -9.5zM161 457
q45 4 78 17t54.5 32.5t32.5 44.5t11 52q0 51 -30 77.5t-81 26.5q-60 0 -103 -29v-257q7 8 18.5 18t19.5 18z" />
    <glyph glyph-name="C" unicode="C" horiz-adv-x="548" 
d="M329 718q-51 0 -90.5 -18t-65.5 -47q-35 -42 -55 -106t-20 -155q0 -80 19 -144.5t52.5 -110t80.5 -70.5t104 -25q31 0 55 5.5t43 16t35.5 24.5t32.5 32l4 -3q-17 -25 -39 -47.5t-48 -39t-55.5 -26.5t-61.5 -10q-62 0 -112 24t-85 69.5t-54.5 111.5t-19.5 150
q0 50 10 94.5t26.5 83.5t38 72t44.5 60q37 43 86.5 72.5t108.5 29.5q47 0 83 -12.5t74 -38.5q2 -2 0 -6.5t-16 -21.5t-19.5 -19t-7.5 0q-32 26 -66.5 40.5t-81.5 14.5z" />
    <glyph glyph-name="D" unicode="D" horiz-adv-x="594" 
d="M85 -9q-4 -4 -9 -4q-4 0 -4 4v690l-9 8v1l49 56h9l3 -3v-54q10 10 26 21t34.5 20t40 15t44.5 6q62 0 112 -24.5t85.5 -70.5t54.5 -112.5t19 -150.5q0 -50 -10.5 -93t-27.5 -79.5t-38.5 -68t-44.5 -58.5q-37 -43 -83.5 -72t-106.5 -29q-40 0 -67 7.5t-50 21.5
q-5 -6 -11 -13.5t-16 -17.5zM260 37q53 1 89 13t65 46q16 19 29.5 42.5t23.5 54t16 69.5t6 90q0 83 -16 149t-48 112.5t-79 71t-110 24.5q-37 0 -64.5 -7t-47.5 -19v-596q26 -23 60 -36.5t76 -13.5z" />
    <glyph glyph-name="E" unicode="E" horiz-adv-x="461" 
d="M342 350h-18h-35t-43.5 0.5t-43.5 0.5h-34.5h-17.5q-14 0 -19.5 -1t-7.5 -1v-300q0 -3 -1 -5q5 4 14 4h278q22 0 28.5 2t8.5 2t2 -2t-10 -17.5t-18 -26.5q-5 -4 -13 -5t-25 -1h-23.5h-49t-61.5 0.5t-61.5 0.5h-48.5h-23q-15 0 -22.5 -1t-9.5 -1l-1 1l-5 -6q-4 -3 -5 -4.5
t-3 -1.5t-2 6v691l-9 6v1l49 53l18 -1h217q23 0 28.5 3t7.5 3q3 0 3 -4q0 -2 -10 -16t-21 -29q-5 -1 -11.5 -1.5t-23.5 -0.5h-197v-340l15 20q9 12 14.5 15t15.5 3h18.5h37t46 -0.5t46 -0.5h36.5h19q22 0 28 3t8 3q3 0 3 -3q0 -4 -11 -18.5t-19 -24.5q-5 -4 -13 -5t-25 -1z
" />
    <glyph glyph-name="F" unicode="F" horiz-adv-x="416" 
d="M295 346h-26t-45.5 0.5t-46 0.5h-25.5q-14 0 -19.5 -1t-7.5 -1h-1v-296q0 -4 -4 -14t-18 -27l-14.5 -14.5t-11.5 -6.5q-4 0 -4 3v699l-10 9v1l44 49l23 -1h150q51 0 82 2t33 2q3 0 3 -3q0 -2 -9 -15t-21 -28q-5 -2 -22 -3t-34 -1h-187v-348q3 6 12 19q8 12 13.5 16.5
t15.5 4.5h143q22 0 36.5 1.5t16.5 1.5t2 -2l-31 -43q-5 -3 -12.5 -4t-24.5 -1z" />
    <glyph glyph-name="G" unicode="G" horiz-adv-x="606" 
d="M354 458q-14 0 -20 -1t-8 -1t-2 3q0 2 8 13l12 16q8 10 11.5 12t8.5 2h185l2 -2q0 -1 -0.5 -35.5t-0.5 -88t-0.5 -117.5t-0.5 -124q0 -3 -3 -3q-2 0 -4 -2q-60 -62 -119 -99t-110 -37q-55 0 -102.5 20.5t-83 63.5t-56 108.5t-20.5 154.5q1 58 10.5 104.5t26 85t37.5 70
t44 58.5q37 43 85 72t107 29q57 0 96 -15t74 -45q2 -2 -1.5 -6t-18.5 -19q-15 -16 -18.5 -18t-5.5 0q-17 15 -33.5 26.5t-35.5 19t-41 11.5t-50 4q-52 0 -88.5 -16.5t-64.5 -48.5q-35 -42 -54.5 -105.5t-19.5 -168.5q0 -81 18.5 -144t51 -106t75.5 -65.5t92 -22.5
q33 0 57.5 4t43 11.5t33 17.5t27.5 21q1 61 1.5 123.5t0.5 114v86v39.5h-146v0z" />
    <glyph glyph-name="H" unicode="H" horiz-adv-x="553" 
d="M71 695q0 7 4 14.5t23 28.5q8 8 13.5 14t7.5 6q4 0 4 -4v-44.5v-102t-0.5 -137t-0.5 -148.5q2 4 6 9t10 13q9 14 14.5 17.5t16.5 3.5h21.5h41.5t51.5 -0.5t51.5 -0.5h41h20q23 0 28 2t7 2q1 0 2 -1v120.5t0.5 104t0.5 74.5v32q0 7 4.5 12.5t23.5 26.5q16 18 19 18
q4 0 4 -6v-34v-80v-111t-0.5 -126.5t-0.5 -127v-112v-82v-36.5q0 -3 -4 -11t-19 -24q-7 -7 -13.5 -12.5t-11.5 -5.5q-3 0 -3 4q0 3 -0.5 36.5t-0.5 85.5t0.5 117t0.5 131q-3 -6 -10.5 -16.5t-15.5 -21.5q-4 -2 -11 -3.5t-24 -1.5h-224q-15 0 -19.5 -1.5t-5.5 -1.5h-1v-271
q0 -4 -4 -13.5t-19 -25.5q-7 -8 -14 -13t-11 -5q-5 0 -5 4v34v80.5t0.5 111t0.5 126t0.5 126.5t0.5 111.5v80.5v34z" />
    <glyph glyph-name="I" unicode="I" horiz-adv-x="205" 
d="M77 696v6.5t2.5 6.5t7.5 10.5t15 17.5l15 15t9 7q4 0 4 -4v-34.5v-80.5v-111t-0.5 -127t-0.5 -127.5v-112.5v-82v-37q0 -7 -27 -41q-8 -8 -12.5 -13.5t-9.5 -5.5q-4 0 -4 2v34.5v81v112v128t0.5 128t0.5 112v81v34.5z" />
    <glyph glyph-name="J" unicode="J" horiz-adv-x="412" 
d="M300 223v60v81.5t-0.5 92.5t-0.5 92.5v82v60.5q0 4 1 7t4 7t8.5 10.5t15.5 17.5q16 18 18 18q5 0 5 -6v-40.5v-89t0.5 -113.5t0.5 -114.5v-91.5v-44q0 -50 -21 -96.5t-51.5 -82.5t-65 -58t-60.5 -22q-38 0 -68 16.5t-53 43.5q-1 1 2 5.5t18 18.5q27 28 32 25
q14 -16 26 -28t24.5 -19.5t26.5 -11.5t33 -4q21 0 40.5 8.5t33.5 29.5t22.5 56t8.5 89z" />
    <glyph glyph-name="K" unicode="K" horiz-adv-x="522" 
d="M71 695q0 7 4 14.5t23 28.5q8 8 13.5 14t7.5 6q4 0 4 -4v-26.5v-62t-0.5 -88t-0.5 -104v-111v-107.5q35 55 73.5 115t76 118.5t72 113.5t62.5 102q1 2 15 10.5t29.5 18.5t29 17.5t15.5 7.5q3 0 3 -3q-63 -79 -117 -150.5t-105 -140.5l221 -431q1 -2 0.5 -6.5t-3.5 -7.5
q-19 -23 -25.5 -30.5t-8.5 -7.5q-3 0 -5 5l-214 429q-30 -42 -59.5 -83t-59.5 -85v-203q0 -4 -4 -13.5t-19 -25.5q-7 -8 -14 -13t-11 -5q-5 0 -5 4v34v80.5t0.5 111t0.5 126t0.5 126.5t0.5 111.5v80.5v34z" />
    <glyph glyph-name="L" unicode="L" horiz-adv-x="415" 
d="M72 692q0 8 4 16.5t19 25.5q23 26 25 26q4 0 4 -4v-33.5v-76.5v-106t-0.5 -120.5t-0.5 -121v-107v-79v-36.5q0 -9 -3.5 -18.5t-12.5 -23.5q5 7 13 11t21 4h198q26 0 35.5 2.5t11.5 2.5t2 -3t-9 -18.5t-19 -26.5q-5 -4 -13 -5t-25 -1h-19h-38.5t-47.5 0.5t-47.5 0.5h-38
h-18.5q-14 0 -21.5 -0.5t-9.5 -1.5l-2 -3q-7 -8 -8 -8q-2 0 -2 8v47v84t0.5 108.5t0.5 120t0.5 118t0.5 104v77v37.5z" />
    <glyph glyph-name="M" unicode="M" horiz-adv-x="898" 
d="M626 709q0 2 0.5 6.5t3.5 7.5q20 23 26.5 28t8.5 5t4 -5l183 -722q0 -3 -4 -9t-15 -19q-15 -18 -21 -18q-1 -1 -4 10l-160 627l-186 -557q-3 -8 -0.5 -17t4.5 -14q0 -2 -0.5 -3.5t-2 -3.5t-5 -7t-10.5 -14q-7 -8 -10 -13t-7 -5q-1 -1 -4 10l-200 607l-139 -548
q-7 -12 -19 -26t-24 -26t-21 -20t-10 -8q-6 -1 -4 2q56 151 111.5 313.5t101.5 323.5l-31 95q-2 2 -2 6.5t3 7.5q15 23 23 32t10 9q1 0 3 -6l215 -640q52 126 103.5 255.5t97.5 257.5z" />
    <glyph glyph-name="N" unicode="N" horiz-adv-x="569" 
d="M497 -10q-4 -1 -11 10l-407 639l21 -606q-5 -9 -12 -18t-14 -16.5t-12.5 -12.5t-6.5 -5q-4 0 -4 3q2 76 6 159.5t8 170t6 172t1 165.5l-33 52q1 4 4.5 9.5t9.5 14.5q6 8 13 15.5t9 7.5t6 -7l411 -652l-22 614q5 8 12 17.5t14 17.5t12.5 13.5t8.5 5.5t3 -3
q-1 -50 -3.5 -111t-5 -126.5t-5 -135t-4.5 -137t-2.5 -131.5t1.5 -120z" />
    <glyph glyph-name="O" unicode="O" horiz-adv-x="642" 
d="M327 33q106 0 161.5 86.5t55.5 261.5q0 73 -15 135t-45 107t-74 70.5t-102 25.5q-47 0 -85.5 -20t-66 -63t-42.5 -110.5t-15 -161.5q0 -77 17.5 -138.5t48 -104t72 -65.5t90.5 -23zM303 -14q-55 0 -101 21.5t-79.5 64t-52.5 104.5t-19 143q0 99 26 180t67.5 138.5
t93 89.5t101.5 33q57 0 103 -22.5t79 -65.5t50.5 -105t17.5 -140q0 -93 -27 -173.5t-68.5 -140t-92 -93.5t-98.5 -34z" />
    <glyph glyph-name="P" unicode="P" horiz-adv-x="540" 
d="M84 -8q-2 -2 -4 -3.5t-4 -1.5q-4 0 -4 4v43.5v81v105.5t0.5 117.5t0.5 116v102.5v76v37l-15 6v3q1 1 8.5 9.5t17 19t19 20l14.5 14.5h4l2 -2v-50q10 9 25.5 20.5t36 21t44.5 16t51 6.5q51 0 89.5 -17t65 -46t39.5 -67.5t13 -81.5q0 -50 -20.5 -102t-65.5 -99
q-35 -37 -74 -61t-87 -24q-39 0 -65.5 6.5t-50.5 20.5v-231q0 -5 -1 -9.5t-5 -11.5t-12 -16t-22 -23zM276 294q36 2 64 11t55 40q29 33 37 72t8 89q0 42 -13 80t-38 66.5t-61.5 45.5t-84.5 17q-38 0 -68.5 -9t-51.5 -23v-333q37 -30 71 -43t82 -13z" />
    <glyph glyph-name="Q" unicode="Q" horiz-adv-x="642" 
d="M303 -14q-55 0 -101 21.5t-79.5 64t-52.5 104.5t-19 143q0 99 26 180t67.5 138.5t93 89.5t101.5 33q57 0 103 -22.5t79 -65.5t50.5 -105t17.5 -140q0 -101 -30.5 -186.5t-78.5 -145.5l70 -113q0 -4 -6 -12.5t-15 -19.5t-11 -13t-4 -2q-3 0 -9 9l-66 106
q-33 -31 -68 -47.5t-68 -16.5zM327 33q61 0 105 29l-48 79q0 4 6 12.5t15 19.5t11 12.5t4 1.5q4 0 9 -8l47 -77q33 44 50.5 113t17.5 166q0 73 -15 135t-45 107t-74 70.5t-102 25.5q-47 0 -85.5 -20t-66 -63t-42.5 -110.5t-15 -161.5q0 -77 17.5 -138.5t48 -104t72 -65.5
t90.5 -23z" />
    <glyph glyph-name="R" unicode="R" horiz-adv-x="484" 
d="M84 -8q-2 -2 -4 -3.5t-4 -1.5q-4 0 -4 4v43.5v81v105.5t0.5 117.5t0.5 116v102.5v76v37l-15 6v3q1 1 9 10t18 19.5t19.5 20t12.5 13.5h6l1 -2v-54q13 12 28.5 24t34 22t40.5 16.5t48 6.5q38 0 69.5 -14t53.5 -37t34 -54.5t12 -65.5q0 -39 -16.5 -74.5t-46 -64.5t-70 -50
t-88.5 -31l217 -336q0 -7 -21 -31q-8 -8 -10.5 -10t-4.5 -2t-3.5 1.5t-5.5 7.5l-235 376q-3 6 -4 8.5t1 5.5q4 5 8.5 10t8.5 9q6 6 8.5 7.5t3.5 1.5q11 -6 29.5 -12t49.5 -6q57 0 94 41.5t37 120.5q0 34 -11.5 63t-32 50t-49 33t-63.5 12q-71 0 -116 -34v-628q0 -5 -1 -9.5
t-5 -11.5t-12 -16t-22 -23z" />
    <glyph glyph-name="S" unicode="S" horiz-adv-x="457" 
d="M201 -13q-51 0 -92 19.5t-70 54.5q-2 2 1.5 7t20.5 22q15 15 20.5 18.5t7.5 1.5q35 -38 71.5 -57.5t88.5 -19.5q65 0 97.5 40t32.5 103q0 46 -24 80t-60 61.5t-78 52.5t-78 52.5t-60 61.5t-24 80q0 35 20 70t49 63t63 45.5t63 17.5q49 0 82 -14t66 -43q2 -2 -1.5 -7
t-17.5 -19t-18.5 -16t-6.5 -1q-25 25 -59.5 41.5t-82.5 16.5q-54 0 -83 -29t-29 -89q0 -45 24 -78.5t60 -61t78 -52t78 -51.5t60 -60.5t24 -77.5q0 -35 -18.5 -75.5t-49.5 -75.5t-71.5 -58t-83.5 -23z" />
    <glyph glyph-name="T" unicode="T" horiz-adv-x="403" 
d="M177 642q0 8 5.5 16t21.5 27l16 18q-28 0 -56 0.5t-51 1t-38 0.5h-18q-14 0 -25.5 -1.5t-13.5 -1.5q-3 0 -3 3q0 2 3 7.5t14 16.5q11 13 16 17t10 4h306q22 0 30.5 1.5t10.5 1.5q3 0 3 -3t-8.5 -16t-19.5 -26q-5 -4 -13 -4.5t-25 -0.5h-115l1 -2v-32v-74.5v-102.5
t-0.5 -117t-0.5 -117.5v-103.5v-76v-35q0 -7 -27 -41q-8 -8 -12.5 -13.5t-9.5 -5.5q-4 0 -4 2v32.5v75t0.5 103t0.5 117.5t0.5 118t1 103.5t0.5 75v32.5z" />
    <glyph glyph-name="U" unicode="U" horiz-adv-x="547" 
d="M425 698q0 7 4 13.5t24 27.5q9 10 13 13t6 3q4 0 4 -6v-34.5v-80.5v-110.5t0.5 -126t0.5 -126v-111v-82v-36.5q0 -6 -4.5 -12.5t-18.5 -23.5q-10 -11 -15 -15t-8 -4q-5 0 -5 6v113q-14 -22 -34 -42.5t-44 -36t-50.5 -25t-51.5 -9.5q-38 0 -71 12t-58 38t-39.5 67.5
t-14.5 101.5v73.5v97.5t0.5 105.5t0.5 98v74v34.5q0 7 4 14.5t24 28.5q18 19 21 19t3 -5v-521q0 -93 40 -141t115 -48q54 0 92.5 21.5t62.5 52.5q0 47 -0.5 107.5t-0.5 124v125v110.5v80v35z" />
    <glyph glyph-name="V" unicode="V" horiz-adv-x="549" 
d="M319 33q1 -2 0.5 -6.5t-3.5 -7.5q-18 -23 -25 -30.5t-9 -7.5q-3 0 -5 5l-254 715q0 5 3 8.5t17 22.5q8 8 11 13t7 5q1 1 5 -10l233 -653q46 152 88 302t84 302q9 12 20.5 24t21.5 21t17.5 14.5t9.5 5.5q4 0 4 -4q-30 -80 -62 -165t-63 -171t-60.5 -171.5t-55.5 -166.5z
" />
    <glyph glyph-name="W" unicode="W" horiz-adv-x="898" 
d="M259 25q0 -3 -0.5 -7t-4.5 -8q-19 -23 -25.5 -28t-8.5 -5q-3 0 -4 6l-177 721q0 3 0.5 4t2 3t5 7t9.5 14q7 8 12.5 13.5t8.5 5.5l5 -10l160 -649q43 143 84.5 288.5t79.5 287.5q2 10 3 17.5t-1 12.5q0 2 0.5 3.5t2 3.5t5 7t10.5 14q7 8 10 13t6 5q2 1 5 -10l210 -643
q36 140 69 292.5t64 295.5q7 12 18.5 26t22.5 26t19.5 20t10.5 8q4 0 4 -4q-53 -166 -104.5 -336.5t-99.5 -338.5l18 -55q4 -7 -1 -15q-15 -23 -23.5 -31.5t-10.5 -8.5t-4 5l-213 650q-23 -64 -46 -132.5t-46 -138.5t-45.5 -139t-44.5 -134z" />
    <glyph glyph-name="X" unicode="X" horiz-adv-x="533" 
d="M499 34q2 -5 -4 -14q-16 -23 -23 -31t-9 -8t-4 5l-211 369q-39 -70 -78.5 -146.5t-79.5 -164.5q-9 -12 -23 -23.5t-27.5 -20.5t-24 -14t-12.5 -5q-3 0 -3 3q64 94 126 189t119 188l-194 340v5t1.5 5.5t4.5 9t10 14.5q8 9 11 12.5t6 3.5q2 0 3 -1.5t4 -8.5l190 -330
q37 69 73.5 137.5t68.5 139.5q9 12 22 23.5t26 20.5t22.5 14.5t11.5 5.5q3 0 3 -3q-62 -96 -122 -184.5t-102 -158.5z" />
    <glyph glyph-name="Y" unicode="Y" horiz-adv-x="509" 
d="M271 44q0 -4 -4.5 -13.5t-19.5 -25.5q-7 -8 -14 -13t-11 -5t-4 4v32.5v76t0.5 104.5t0.5 118l-186 381q0 3 2.5 8.5t19.5 25.5q8 11 12 14.5t6 3.5t6 -10l189 -402q41 88 77.5 174.5t71.5 172.5q7 9 20 20.5t26.5 22t24 17.5t12.5 7q4 0 4 -4q-121 -205 -233 -416v-293z
" />
    <glyph glyph-name="Z" unicode="Z" horiz-adv-x="478" 
d="M89 701q-13 0 -20 -1t-9 -1q-3 0 -3 2q0 3 5.5 10.5t23.5 27.5q6 7 12 9.5t17 2.5h25.5h53.5t67 -0.5t67 -0.5h53h25q21 0 33.5 0.5t14.5 0.5q3 0 3 -3t-7.5 -13.5t-13.5 -17.5l-4 -6l-381 -674q9 8 26 8h310q38 0 55 2.5t19 2.5t2 -2q0 -1 -3.5 -6.5t-8.5 -13t-11 -16
t-12 -14.5q-6 -4 -12.5 -5t-23.5 -1h-25.5h-54t-68 0.5t-68.5 0.5h-54h-25h-29t-25.5 -0.5t-19 -0.5h-8.5t-3 2.5t-2 3.5l27 44l381 663q-8 -3 -22.5 -3.5t-31.5 -0.5h-275z" />
    <glyph glyph-name="bracketleft" unicode="[" horiz-adv-x="370" 
d="M321 -124q19 0 24 2t7 2t2 -2q0 -3 -8 -18t-16 -26q-5 -3 -12 -5t-22 -2q-9 0 -29 0.5t-41.5 1t-41.5 1t-30 0.5q-13 0 -21 -1t-10 -1t-2 2v47.5t-0.5 115t-1 159.5t-1 182t-1 181.5t-1 158.5t-0.5 113v44q0 3 7 14.5t15 21.5q9 12 26 12q13 0 36 -0.5t47 -0.5t44.5 -0.5
t29.5 -0.5q19 0 24 2t7 2t2 -2q0 -3 -8 -17t-16 -25q-5 -3 -12 -5t-22 -2h-22.5t-34.5 0.5t-38.5 1t-34.5 0.5q0 -29 0.5 -83.5t1 -124t0.5 -149t0.5 -158t1 -151.5t1 -129.5t0.5 -91v-37.5q0 -18 -7 -32h157z" />
    <glyph glyph-name="backslash" unicode="\" horiz-adv-x="396" 
d="M337 -74q-6 0 -9 8l-348 839q2 4 7.5 11t11.5 13.5t11.5 11t8.5 4.5q4 0 7 -6l351 -844q-2 -4 -7.5 -10.5t-12 -12.5t-12 -10t-8.5 -4z" />
    <glyph glyph-name="bracketright" unicode="]" horiz-adv-x="370" 
d="M49 832q-19 0 -24 -2t-7 -2t-2 2q0 3 8 18.5t16 26.5q5 3 12 5t22 2q9 0 28.5 -0.5t41.5 -1t42 -1t30 -0.5q13 0 21 1t10 1t2 -2v-47.5t0.5 -115t1 -160t1 -182t1 -181.5t1 -158.5t0.5 -113v-44.5q0 -3 -7 -14.5t-15 -21.5q-9 -12 -26 -12q-13 0 -36 0.5t-47 0.5
t-44.5 0.5t-29.5 0.5q-19 0 -24 -2t-7 -2t-2 2q0 3 8 17t16 25q5 3 12 5t22 2h22.5t34 -0.5t38.5 -1t35 -0.5q0 29 -0.5 83.5t-1 124t-0.5 148.5t-0.5 158t-1 151.5t-1 129t-0.5 91.5v38q0 20 6 32h-156z" />
    <glyph glyph-name="asciicircum" unicode="^" 
d="M505 509q7 0 3 -8l-14 -28t-16.5 -30t-16 -24t-12.5 -11q-9 2 -25 18t-35.5 38.5t-40 48t-38.5 47t-32 35.5t-20 13q-7 -6 -21.5 -23t-32.5 -41t-38.5 -54.5t-38.5 -64.5q-3 -5 -5.5 -8t-7.5 -3q-4 0 -7.5 3.5t0.5 8.5q22 29 48.5 64.5t52 68.5t46.5 59t30 35q7 1 22 -13
t34 -36.5t40 -48.5t40 -49t33 -38.5t19 -16.5q7 2 12.5 15t13.5 37q2 6 7 6z" />
    <glyph glyph-name="underscore" unicode="_" horiz-adv-x="774" 
d="M135 -87q-31 0 -43 -1.5t-14 -1.5t-2 2q0 3 7 14t15 21q5 7 14.5 10t35.5 3q11 0 45 -0.5t80 -0.5t99 -1t102.5 -1t89.5 -0.5t60 -0.5q22 0 34.5 1t19.5 1.5t9 1.5t3 1q2 0 2 -2q0 -3 -8 -17.5t-16 -25.5q-5 -3 -16.5 -5.5t-49.5 -2.5q-15 0 -52 0.5t-84.5 1t-100.5 1
t-100 1t-82.5 1t-47.5 0.5z" />
    <glyph glyph-name="grave" unicode="`" 
d="M355 550q-3 0 -4 3q-17 28 -33.5 48t-34.5 35.5t-37.5 29.5t-42.5 30q-8 4 9 18q9 8 18 12.5t12 4.5q2 0 5.5 -0.5t8.5 -8.5q24 -32 46 -69t54 -95q2 -4 2 -5q0 -3 -3 -3z" />
    <glyph glyph-name="a" unicode="a" horiz-adv-x="472" 
d="M415 48q0 -5 -4 -13t-18 -23q-18 -19 -23 -19t-5 5q0 14 0.5 27.5t1 30t0.5 36.5v47q-12 -16 -28 -33.5t-30 -31.5q-38 -38 -75.5 -60.5t-82.5 -22.5q-27 0 -47 8t-33.5 21.5t-20 31t-6.5 36.5q0 27 6.5 47.5t22 38.5t40.5 33.5t62 32.5q43 19 72.5 31.5t46.5 20.5
q40 20 55.5 38.5t17.5 41.5q0 18 -6.5 35t-20 30.5t-35 22t-53.5 8.5q-35 0 -58.5 -4.5t-43.5 -15.5t-28.5 -27.5t-8.5 -35.5v-64q0 -16 -26 -39q-10 -8 -14 -10.5t-6 -2.5q-4 0 -4 5v4.5t0.5 11t0.5 24.5v45q0 21 22 45.5t59 48.5q38 26 70.5 38.5t70.5 12.5
q60 0 94.5 -31.5t34.5 -76.5v-348zM304 78q15 15 34 39.5t29 56.5v151q-14 -11 -31.5 -20.5t-38.5 -19.5q-18 -8 -46.5 -20.5t-68.5 -32.5q-27 -14 -43.5 -26.5t-25.5 -25.5t-11.5 -28t-2.5 -33q0 -33 22.5 -60.5t67.5 -27.5q40 0 65.5 12t49.5 35z" />
    <glyph glyph-name="b" unicode="b" horiz-adv-x="515" 
d="M146 432q26 26 62.5 49t78.5 23q40 0 74 -14.5t58.5 -43t38 -70t13.5 -95.5t-22 -103t-59 -92q-34 -39 -73.5 -65.5t-87.5 -26.5q-39 0 -67 11.5t-51 30.5q-2 -4 -6 -9.5t-12 -13.5q-16 -19 -22 -19q-5 0 -5 5v719q0 8 3.5 14.5t20.5 25.5q10 11 14.5 15t6.5 4q4 0 4 -3
v-378q8 10 15.5 19t15.5 17zM263 33q44 0 70.5 14.5t49.5 43.5q23 28 30.5 68.5t7.5 89.5q0 101 -44 159.5t-121 58.5q-68 0 -104 -38q-25 -25 -37 -58v-268q27 -30 61.5 -50t86.5 -20z" />
    <glyph glyph-name="c" unicode="c" horiz-adv-x="461" 
d="M452 134q-7 -11 -14 -20.5t-14 -17.5q-15 -20 -33.5 -38t-40 -32.5t-47 -23t-54.5 -8.5q-50 0 -88 17.5t-63.5 47t-38 68.5t-12.5 82q0 36 6 64.5t17 53t25 46t31 42.5q29 38 71 63.5t90 25.5q22 0 39 -3t32 -9.5t29.5 -16.5t31.5 -25q2 -2 -1.5 -6.5t-15.5 -16.5
q-14 -13 -18.5 -16.5t-6.5 -1.5q-32 31 -59 44.5t-67 13.5q-43 0 -71 -15.5t-48 -41.5q-19 -25 -27.5 -60.5t-8.5 -95.5q0 -105 50.5 -163t133.5 -58q48 0 80 19t58 49q7 8 14 17t15 20z" />
    <glyph glyph-name="d" unicode="d" horiz-adv-x="515" 
d="M400 721q0 5 3.5 12.5t17.5 22.5q19 21 23 21q5 0 5 -5v-724q0 -5 -3.5 -12.5t-17.5 -22.5q-18 -19 -23 -19t-5 5v105q-8 -10 -16 -19t-15 -17q-13 -13 -28.5 -26.5t-33.5 -24t-38 -17t-41 -6.5q-41 0 -74.5 14.5t-58 43t-38 70t-13.5 95.5t22 103t56 94q31 42 72 66
t89 24q41 0 68.5 -11.5t48.5 -29.5v258zM250 467q-42 0 -70.5 -13.5t-50.5 -44.5q-21 -29 -28 -70t-7 -90q0 -101 44 -158.5t121 -57.5q68 0 104 38q11 11 21 26t16 32v266q-27 31 -63 51.5t-87 20.5z" />
    <glyph glyph-name="e" unicode="e" horiz-adv-x="498" 
d="M294 33q48 0 80.5 18t58.5 48q7 8 14 18t15 21l5 -4q-7 -11 -14 -21.5t-14 -18.5q-30 -39 -75.5 -69.5t-106.5 -30.5q-55 0 -95 19t-66.5 49.5t-39 70t-12.5 80.5q0 63 22.5 109.5t58.5 91.5q30 38 74 64t94 26q38 0 68.5 -12.5t52.5 -34t35.5 -49.5t17.5 -59
q0 -1 -10 -12.5t-23 -26.5t-25.5 -29.5t-18.5 -21.5q-12 -7 -45 -7h-132q-18 0 -34.5 -2.5t-28.5 -7.5q-23 -10 -34 -32q-5 -11 -8 -25.5t5 -36.5q22 -55 68 -85t113 -30zM109 213q8 17 20.5 34.5t26.5 27.5q20 15 41.5 20t59.5 5h38.5t38.5 -0.5t32 -0.5h20q18 0 27 4t10 6
q-8 73 -52.5 115t-114.5 42q-44 0 -74 -15t-51 -41q-20 -25 -28.5 -59t-8.5 -93q0 -20 1.5 -39.5t6.5 -36.5q1 20 7 31z" />
    <glyph glyph-name="f" unicode="f" horiz-adv-x="214" 
d="M126 48q0 -5 -4 -13t-18 -23q-17 -18 -21 -18q-5 0 -5 5v460h-70q-4 0 -4 3q0 2 3.5 6.5t12.5 16.5q11 14 14.5 16.5t7.5 2.5h36v6q1 24 3.5 44t9 39.5t18 40t30.5 43.5q33 41 57.5 57t55.5 16h58q4 0 3 -4t-11 -17q-12 -17 -17.5 -21.5t-9.5 -4.5h-64q-23 0 -38 -6
t-29 -24q-14 -20 -16 -47.5t-2 -75.5v-46h38h16.5t18.5 0.5t15.5 0.5h6.5q3 0 3 -2t-9.5 -13.5t-20.5 -25.5q-5 -3 -12 -4t-21 -1h-35v-411z" />
    <glyph glyph-name="g" unicode="g" horiz-adv-x="436" 
d="M183 -290q-43 0 -79 7.5t-62.5 23.5t-41 40t-14.5 57q0 21 11.5 41.5t32 42.5t49 45t62.5 49q-22 11 -35 26.5t-13 38.5q0 26 14 47t38 39q-22 4 -42.5 14.5t-36 27.5t-24.5 40.5t-9 52.5q0 38 17.5 68.5t43.5 60.5q10 13 25.5 26t33.5 23.5t37.5 17t37.5 6.5
q37 0 66 -12.5t48 -34.5l16 21q11 14 15 17.5t8 3.5h14q32 0 44.5 0.5t18.5 0.5q4 0 4 -4q0 -2 -8.5 -15t-19.5 -24q-12 -5 -40 -5h-47q29 -38 29 -93q0 -30 -18 -61.5t-45 -61.5q-9 -11 -24 -23.5t-33.5 -23t-40 -17.5t-43.5 -7q-5 0 -9 0.5t-9 0.5q-17 -11 -24.5 -21
t-7.5 -27q0 -27 24 -43.5t60.5 -28.5t79 -22t79 -24.5t60.5 -35.5t24 -55q0 -31 -17 -55t-40 -50q-32 -37 -86 -65.5t-123 -28.5zM32 -134q0 -53 49.5 -82t134.5 -29q71 0 110.5 15.5t59.5 36.5q26 26 26 67q0 36 -28.5 56t-69.5 33.5t-86.5 23.5t-79.5 26
q-31 -24 -53 -42.5t-36 -34.5t-20.5 -32.5t-6.5 -37.5zM308 240q17 20 23.5 40t6.5 49q0 34 -11 59.5t-30.5 42.5t-45 26t-54.5 9q-32 0 -55.5 -8t-41.5 -31q-15 -17 -20.5 -38t-5.5 -51q0 -32 11 -57.5t30 -42.5t44 -26t54 -9q35 0 58.5 10t36.5 27z" />
    <glyph glyph-name="h" unicode="h" horiz-adv-x="477" 
d="M420 49q0 -5 -5 -13t-19 -23q-18 -19 -23 -19t-5 5v24.5t0.5 56t0.5 97.5v149q0 76 -35 108.5t-90 32.5q-34 0 -58 -9.5t-42 -28.5q-19 -19 -29 -41v-340q0 -5 -4.5 -12.5t-18.5 -22.5q-16 -19 -21 -19t-5 5v720q0 8 3.5 14.5t20.5 25.5q10 11 14.5 15t6.5 4q4 0 4 -3
v-370q5 8 11.5 14.5t11.5 12.5q13 13 28 26t32 23t36.5 16.5t40.5 6.5q31 0 57.5 -8.5t46 -28.5t30.5 -53t11 -81v-284z" />
    <glyph glyph-name="i" unicode="i" horiz-adv-x="178" 
d="M59 618q3 23 13 38.5t26 15.5q18 0 25.5 -16t5.5 -39q-3 -23 -12.5 -37t-25.5 -14q-17 0 -25.5 14.5t-6.5 37.5zM114 48q0 -5 -4.5 -13t-18.5 -23q-17 -18 -21 -18q-5 0 -5 5l-1 446q0 8 4 15t18 22t18.5 18.5t6.5 3.5q3 0 3 -7v-449z" />
    <glyph glyph-name="j" unicode="j" horiz-adv-x="178" 
d="M64 445q0 8 4 14.5t21 25.5q10 11 14.5 15t6.5 4q4 0 4 -3v-495q0 -15 -3 -28t-9.5 -26t-18 -28.5t-28.5 -35.5l-10 -12q-29 -36 -50 -47t-43 -11h-38q-11 0 1 12l18 19q13 13 19 17t15 4h22q12 0 20 0.5t14 2t11 5t10 8.5q12 12 16 29.5t4 49.5v480zM59 618
q3 23 13 38.5t26 15.5q18 0 25.5 -16t5.5 -39q-3 -23 -12.5 -37t-25.5 -14q-17 0 -25.5 14.5t-6.5 37.5z" />
    <glyph glyph-name="k" unicode="k" horiz-adv-x="444" 
d="M198 235q-5 5 -4 13q-20 -23 -40 -44.5t-38 -43.5v-114q0 -5 -5 -12.5t-19 -22.5q-16 -19 -21 -19t-5 5l1 722q0 8 4 14.5t21 25.5q10 11 14 15t6 4q4 0 4 -3v-606q32 40 62.5 81t57.5 77.5t48 66.5l35 50q5 5 16.5 12.5t37.5 24.5q19 12 35 17.5t19 5.5q4 0 -1 -7
q-47 -51 -98 -104.5t-102 -109.5l172 -243q4 -5 1 -11.5t-17 -20.5q-15 -16 -18 -16q-1 0 -4 4z" />
    <glyph glyph-name="l" unicode="l" horiz-adv-x="182" 
d="M116 47q0 -5 -4.5 -13.5t-18.5 -23.5q-9 -10 -14.5 -13.5t-7.5 -3.5q-5 0 -5 5l2 721q0 8 3.5 14.5t20.5 25.5q10 11 14.5 15t6.5 4q4 0 4 -3v-46v-82v-106.5t-0.5 -119.5t-0.5 -121v-110.5v-88v-54.5z" />
    <glyph glyph-name="m" unicode="m" horiz-adv-x="775" 
d="M718 49q0 -5 -5.5 -13t-19.5 -23q-16 -19 -23 -19q-4 0 -4 5v24.5t0.5 56t0.5 97.5v149q0 38 -9.5 64.5t-26.5 43.5t-40.5 25t-50.5 8q-34 0 -56.5 -9.5t-40.5 -28.5q-18 -18 -28 -41v-339q0 -5 -5.5 -13t-19.5 -23q-16 -19 -22 -19q-5 0 -5 5v33.5t0.5 72.5t0.5 104.5
v129.5q0 65 -36 96.5t-91 31.5q-34 0 -56.5 -9.5t-40.5 -28.5q-19 -19 -29 -41v-341q0 -5 -5.5 -12.5t-19.5 -22.5q-16 -19 -20 -19q-5 0 -5 5v447q0 8 4 14.5t21 25.5q10 11 14.5 15t6.5 4q4 0 4 -3v-96q5 8 11.5 14.5t11.5 12.5q13 13 27.5 26t31 23t35.5 16.5t40 6.5
q54 0 92.5 -26t51.5 -76q6 8 12.5 15.5t12.5 14.5q13 13 27.5 26t31 23t35.5 16.5t40 6.5q31 0 58 -8.5t46.5 -28.5t31 -53t11.5 -81v-284z" />
    <glyph glyph-name="n" unicode="n" horiz-adv-x="484" 
d="M427 48q0 -5 -5 -13t-19 -23q-18 -19 -23 -19t-5 5v24.5t0.5 56.5t0.5 98v149q0 38 -10.5 64.5t-28.5 43.5t-42.5 25t-51.5 8q-66 0 -102 -38q-18 -18 -30 -42v-340q0 -5 -5 -13t-19 -23q-17 -18 -22 -18q-4 0 -4 5v447q0 8 4 14.5t21 25.5q10 11 14.5 15t6.5 4q4 0 4 -3
v-96q12 15 24 27q26 26 61.5 49t77.5 23q31 0 59 -8.5t49 -28.5t33 -53t12 -81v-285z" />
    <glyph glyph-name="o" unicode="o" horiz-adv-x="519" 
d="M280 33q37 0 67.5 17t47.5 42q23 33 31 72.5t8 84.5q0 54 -14 94.5t-38.5 67.5t-57 40.5t-68.5 13.5q-41 0 -71 -15t-53 -46t-29.5 -64.5t-6.5 -81.5q0 -54 14.5 -95.5t40 -70.5t58.5 -44t71 -15zM247 -6q-44 0 -81 16t-63.5 45.5t-41.5 71t-15 93.5q0 54 24.5 100
t55.5 88q29 39 73 67.5t91 28.5q42 0 77.5 -14.5t61.5 -43t40.5 -69.5t14.5 -95t-25.5 -103t-57.5 -92q-13 -18 -30.5 -34.5t-38 -29.5t-42.5 -21t-43 -8z" />
    <glyph glyph-name="p" unicode="p" horiz-adv-x="504" 
d="M109 -185q0 -5 -4 -12.5t-18 -22.5q-16 -19 -22 -19q-5 0 -5 5v59v91.5v111t0.5 118.5t0.5 113.5v96v66t0 23.5q0 8 3.5 14.5t20.5 25.5q10 11 14.5 15t6.5 4q4 0 4 -3v-105q8 10 15.5 19t15.5 17q26 26 62 49t78 23q40 0 74 -15t59 -44t38.5 -70.5t13.5 -95.5
t-22.5 -102.5t-57.5 -92.5q-32 -40 -71.5 -65t-87.5 -25q-39 0 -67.5 9.5t-50.5 26.5v-215zM261 33q42 0 68.5 13t49.5 43q23 29 30 69t7 89q0 101 -44.5 160.5t-121.5 59.5q-67 0 -103 -38q-25 -25 -37 -59l-1 -267q28 -31 64 -50.5t88 -19.5z" />
    <glyph glyph-name="q" unicode="q" horiz-adv-x="509" 
d="M369 68q-13 -13 -28.5 -26.5t-33.5 -24t-38 -17t-41 -6.5q-41 0 -74.5 14.5t-58 43t-38 70t-13.5 95.5t22 103t56 94q31 42 72 66t89 24q41 0 69.5 -11t51.5 -28q2 4 6 9t11 13q18 19 23 19t5 -5v-686q0 -5 -4 -12.5t-18 -22.5q-18 -19 -23 -19t-5 5v337
q-8 -10 -15.5 -18.5t-14.5 -16.5zM250 467q-42 0 -70.5 -13.5t-50.5 -44.5q-21 -29 -28 -70t-7 -90q0 -101 44 -158.5t121 -57.5q68 0 104 38q24 24 36 56l1 268q-27 31 -63 51.5t-87 20.5z" />
    <glyph glyph-name="r" unicode="r" horiz-adv-x="282" 
d="M112 41q0 -5 -5 -13t-19 -23q-17 -18 -22 -18q-4 0 -4 5v453q0 8 4 14.5t21 25.5q10 11 15 15t7 4q4 0 4 -3v-98q8 12 17 23l15 18q22 26 43.5 40.5t55.5 14.5h35q10 0 2 -11l-11 -14q-12 -15 -18.5 -19.5t-14.5 -4.5h-16q-35 0 -54.5 -8.5t-33.5 -22.5q-8 -8 -20 -25z
" />
    <glyph glyph-name="s" unicode="s" horiz-adv-x="373" 
d="M331 155q0 -27 -15.5 -52t-38.5 -49q-26 -26 -53 -43t-65 -17q-42 0 -72.5 16.5t-56.5 45.5q-1 2 1 7.5t13 16.5q10 10 15 13.5t7 3.5q25 -30 56 -47t73 -17q29 0 47 6t30 19q13 14 17.5 29.5t4.5 35.5q0 28 -18.5 47.5t-45.5 34.5t-59.5 28.5t-59.5 29.5t-45.5 36.5
t-18.5 51.5q0 23 13 49.5t34 46.5q22 22 49.5 39.5t62.5 17.5q33 0 60 -8.5t52 -34.5q2 -2 -1 -7t-14 -17t-17 -15.5t-8 -1.5q-21 26 -48 37.5t-59 11.5q-46 0 -72 -26q-11 -11 -16.5 -23.5t-5.5 -30.5q0 -27 19 -45.5t47 -34t61 -29.5t61 -31t47 -39.5t19 -54.5z" />
    <glyph glyph-name="t" unicode="t" horiz-adv-x="283" 
d="M31 456q-4 0 -4 2t12 17l62 76q13 16 15 16q3 0 3 -5v-63h158q3 0 3 -2t-8.5 -14t-19.5 -23q-5 -3 -10 -3.5t-19 -0.5h-104v-290q0 -72 18.5 -102.5t69.5 -30.5q28 0 47 10.5t33 24.5q4 0 4 -3q-23 -25 -52 -48t-64 -23q-29 0 -48.5 9t-31.5 28.5t-17.5 51t-5.5 76.5v297
h-41v0z" />
    <glyph glyph-name="u" unicode="u" horiz-adv-x="465" 
d="M57 448q0 5 4.5 13t18.5 23q18 19 23 19t5 -5v-24t-0.5 -55t-0.5 -96.5v-148.5q0 -76 34 -108.5t89 -32.5q34 0 55.5 9.5t39.5 28.5q17 17 30 43v335q0 5 4.5 13t18.5 23q17 18 22 18t5 -5v-453q0 -8 -4.5 -14.5t-21.5 -25.5q-10 -11 -14 -15t-6 -4q-4 0 -4 3v107
l-24 -28q-13 -13 -27 -26.5t-30.5 -24t-35 -17t-39.5 -6.5q-31 0 -57 9t-45 29t-29.5 53.5t-10.5 81.5v281z" />
    <glyph glyph-name="v" unicode="v" horiz-adv-x="433" 
d="M239 37q-2 -6 -6.5 -12.5t-12.5 -16.5q-15 -16 -19 -16q-2 0 -4 4l-173 459q-3 8 0 13.5t19 22.5q15 15 17 15q3 0 5 -6l168 -459l132 407q2 6 9.5 14t17.5 18q14 14 20 19t9 5q6 0 3 -7z" />
    <glyph glyph-name="w" unicode="w" horiz-adv-x="749" 
d="M205 37q-2 -6 -6.5 -12.5t-12.5 -16.5q-15 -16 -19 -16t-6 4l-138 459q-3 8 0.5 13.5t19.5 22.5q15 15 17 15q3 0 5 -6l134 -458q39 107 69.5 202.5t62.5 193.5q8 24 13.5 33.5t15.5 19.5q15 15 17 15q3 0 5 -6l163 -459l120 403q4 9 9 14l20 20q26 26 32 26t3 -7
l-178 -460q-2 -6 -6.5 -12.5t-12.5 -16.5q-15 -16 -18 -16q-2 0 -4 4l-154 421q-38 -92 -74 -185t-77 -195z" />
    <glyph glyph-name="x" unicode="x" horiz-adv-x="419" 
d="M392 32q2 -4 0.5 -8.5t-17.5 -19.5q-8 -7 -12 -8.5t-6 -1.5q-3 0 -4.5 1.5l-3.5 3.5q-38 59 -77 117.5l-79 118.5l-107 -187q-4 -6 -15 -14.5t-27 -19.5q-18 -12 -26.5 -16t-11.5 -4q-5 0 -2 7l186 239l-153 226q-2 4 0 8t15 17q8 8 12.5 10.5t6.5 2.5q5 0 10 -9
q34 -53 69.5 -106.5t72.5 -109.5l96 171q5 8 14 15t26 19q18 13 26.5 16.5t11.5 3.5q6 0 2 -7l-173 -223q41 -61 82.5 -121.5t83.5 -120.5z" />
    <glyph glyph-name="y" unicode="y" horiz-adv-x="468" 
d="M57 448q0 5 5 13t19 23q18 20 23 20t5 -5v-311q0 -76 31 -108.5t86 -32.5q36 0 57 8t43 28l31 28v338q0 5 5 13t19 23q17 18 22 18q4 0 4 -5v-513q0 -30 -5.5 -55.5t-15.5 -48t-25.5 -44t-34.5 -43.5q-32 -37 -68.5 -58.5t-85.5 -21.5q-51 0 -86.5 25.5t-35.5 74.5
q0 24 16 48.5t43 50t62 52t73 53.5q-25 -10 -49 -10q-31 0 -56.5 9t-43.5 29t-28 53.5t-10 81.5v267zM96 -151q0 -45 31 -68t76 -23q44 0 71 8.5t47 31.5q21 23 29 50.5t8 63.5l-1 191l-25 -23q-12 -11 -25.5 -22.5t-28.5 -21.5q-84 -62 -132.5 -104.5t-49.5 -82.5z" />
    <glyph glyph-name="z" unicode="z" horiz-adv-x="424" 
d="M144 450q-30 0 -48 -0.5t-27.5 -1.5t-12.5 -1.5l-3 -0.5q-2 0 -2 2t6 10.5t23 28.5q6 7 12 9.5t17 2.5h21.5h43.5t54 -0.5t54.5 -0.5h43.5h21h47q5 0 5 -3q0 -2 -8.5 -13.5t-17.5 -22.5l-305 -413q7 3 21 3l273 -1q21 0 27 2t8 2t2 -2t-11.5 -17.5t-22.5 -28.5
q-6 -4 -12.5 -5t-23.5 -1h-306q-1 0 -2.5 2.5t-1.5 3.5l31 44l309 405q-6 -2 -13.5 -2.5t-20.5 -0.5h-181z" />
    <glyph glyph-name="braceleft" unicode="{" horiz-adv-x="514" 
d="M312 65q2 -54 2 -89.5t-1 -64.5q0 -18 -7 -32h159q19 0 24 2t7 2t2 -2t-2 -7t-5.5 -12t-8 -14t-8.5 -13q-5 -3 -12 -5t-22 -2q-9 0 -29.5 0.5t-43 1t-43.5 1t-31 0.5q-13 0 -21 -1t-10 -1t-2 2q0 3 0.5 19.5t1 43.5t1 62.5t0.5 76.5q0 99 -9 156t-29 86.5t-52 37.5t-77 8
q-16 0 -27 -1t-18 -1q-3 0 -4 2.5t3 5.5q19 14 31.5 25t36.5 14q42 3 69.5 17t44 48t23 92.5t6.5 150.5q0 24 -0.5 51t-0.5 50.5v39v16.5q0 3 7 14t15 21q9 12 26 12q13 0 36 -0.5t47 -0.5t44.5 -0.5t29.5 -0.5q19 0 24 2t7 2t2 -2q0 -3 -8 -18t-16 -26q-5 -3 -12 -5t-22 -2
h-22.5t-34 0.5t-38 1t-34.5 0.5v-52t1 -61q0 -84 -11 -145.5t-31.5 -104t-49.5 -67.5t-65 -37q37 -2 66 -15t49 -45.5t31 -89.5t11 -147z" />
    <glyph glyph-name="bar" unicode="|" horiz-adv-x="255" 
d="M124 -54q0 86 -1 179.5t-2 183.5t-2.5 171t-2.5 143t-2 99.5t-1 40.5q0 4 5 13t11.5 18t12.5 15.5t9 6.5q8 0 8 -9q-3 -34 -8 -93t-9.5 -159t-7.5 -248t-3 -360v-25q-1 -3 -3.5 -3t-3.5 3v24z" />
    <glyph glyph-name="braceright" unicode="}" horiz-adv-x="515" 
d="M200 640q-2 54 -2 92.5t1 67.5q0 20 6 32h-158q-19 0 -24 -2t-7 -2t-2 2q0 1 2 6.5t5.5 12.5t8 14t8.5 13q5 3 12 5t22 2q9 0 29.5 -0.5t43 -1t43.5 -1t31 -0.5q13 0 21 1t10 1t2 -2q0 -3 -0.5 -20.5t-1 -45.5t-1 -64.5t-0.5 -77.5q0 -99 9 -156t29 -86.5t52 -37.5t77 -8
q16 0 27 1t18 1q3 0 4 -2.5t-3 -5.5q-19 -14 -31.5 -25t-36.5 -14q-42 -3 -69.5 -17t-44 -48t-23 -92.5t-6.5 -150.5q0 -24 0.5 -51t0.5 -50.5v-39v-16.5q0 -3 -7 -14t-15 -21q-9 -12 -26 -12q-13 0 -36 0.5t-47 0.5t-44.5 0.5t-29.5 0.5q-19 0 -24 -2t-7 -2t-2 2q0 3 8 18
t16 26q5 3 12 5t22 2h22t33.5 -0.5t38 -1t35.5 -0.5q0 23 -0.5 52t-0.5 61q0 84 11 145t31.5 103.5t49 67.5t64.5 37q-37 2 -66 15t-49 45.5t-30.5 89.5t-10.5 148z" />
    <glyph glyph-name="asciitilde" unicode="~" 
d="M368 491q-15 0 -36.5 6.5t-44.5 14.5t-44 14.5t-33 6.5q-21 0 -33 -10.5t-20 -26.5q-1 -2 -3.5 -1t-1.5 3q7 14 12.5 24.5t11.5 21.5q8 14 22 25t36 11q13 0 34 -6.5t44 -14t45 -14t36 -6.5q18 0 32.5 12t25.5 29q1 2 4 1t1 -3q-8 -14 -14.5 -25.5t-12.5 -19.5
q-11 -16 -24.5 -29t-36.5 -13z" />
    <glyph glyph-name="nonbreakingspace" unicode="&#xa0;" horiz-adv-x="249" 
 />
    <glyph glyph-name="exclamdown" unicode="&#xa1;" horiz-adv-x="285" 
d="M185 455q-2 -29 -13.5 -47t-29.5 -18q-15 0 -23 18t-6 47t12.5 45.5t28.5 16.5q17 0 25 -17.5t6 -44.5zM106 -242q0 33 0.5 72l1 78t1 75t1.5 63q2 93 4.5 148t5.5 90q1 15 6.5 26t12.5 18t12.5 10t7.5 3q3 -1 4.5 -5t0.5 -15q0 -1 -0.5 -27.5t-1 -66.5t-1 -88t-0.5 -93
l-1 -231q-2 -20 -9 -35t-15.5 -24.5t-16 -13.5t-8.5 -4q-3 1 -4.5 5t-0.5 15z" />
    <glyph glyph-name="cent" unicode="&#xa2;" horiz-adv-x="451" 
d="M452 134q-7 -11 -14 -20.5t-14 -17.5q-15 -19 -32.5 -36.5t-38.5 -31.5t-45 -23.5t-51 -10.5q2 -61 3.5 -100t1.5 -44t-2 -13.5t-5 -16.5t-6.5 -14.5t-6.5 -6.5t-6 2.5t-3 7.5q3 41 5 88.5t4 96.5q-47 1 -83 17t-61 44.5t-38 67t-13 85.5q0 36 6 65t17 53.5t25 46
t31 42.5q22 29 51 50t63 32q-2 53 -4 88t-2 40t2.5 13.5t6 16.5t7 14t5.5 6q9 0 9 -10q-4 -38 -5.5 -77t-3.5 -87q16 3 32 3q22 0 39 -3t32 -9.5t29.5 -16.5t31.5 -25q2 -2 -1.5 -6.5t-15.5 -16.5q-14 -13 -18.5 -16.5t-6.5 -1.5q-16 15 -29.5 26t-28 18t-30 10.5t-34.5 3.5
q-1 -46 -1 -101v-124q0 -56 0.5 -108.5t1.5 -98.5q8 -1 16 -1.5t16 -0.5q24 0 42.5 5t33.5 14t28 21.5t26 27.5q7 8 14 17t15 20zM246 237q0 61 -1.5 120t-3.5 110q-38 -2 -64 -17t-45 -40t-27 -60.5t-8 -95.5q0 -90 41 -146t105 -70q2 57 2.5 109t0.5 90z" />
    <glyph glyph-name="sterling" unicode="&#xa3;" horiz-adv-x="621" 
d="M384 361q19 0 24 2t7 2t2 -2q0 -3 -8 -15.5t-16 -23.5q-5 -3 -12 -5t-22 -2h-82q2 -32 3 -57.5t1 -39.5q0 -60 -17.5 -110.5t-39.5 -87.5q25 -14 50 -29.5t51 -28.5t53.5 -21.5t57.5 -8.5q58 0 83 41t25 104q0 11 7 11t5 -14q-4 -34 -15 -67t-31 -59.5t-49 -43t-68 -16.5
q-26 0 -51.5 8t-50 20t-48.5 27t-47 30q-28 -33 -63 -53.5t-77 -20.5q-41 0 -59.5 17t-18.5 45q0 14 9 32t25 33.5t37.5 26.5t46.5 11q32 0 62.5 -12t60.5 -29q15 38 17.5 71.5t2.5 78.5q0 20 -2.5 58t-6.5 86q-32 0 -61 0.5t-44 0.5q-19 0 -24 -2t-7 -2t-2 2q0 3 8 15.5
t16 23.5q5 3 12 5t22 2q8 0 29 -0.5t48 -0.5q-5 60 -8.5 118t-3.5 95q0 47 16 93t43 82.5t62.5 59t74.5 22.5q42 1 71 -26t29 -74q0 -53 -32 -96t-92 -81q-2 -1 -3.5 0.5t0.5 3.5q21 15 36 29t25 30.5t14.5 36t4.5 45.5q0 45 -25.5 72.5t-72.5 27.5q-54 0 -79 -50.5
t-25 -141.5q0 -20 1 -48.5t3 -61.5t4 -68.5t4 -68.5q34 -1 64 -1h46zM57 31q-18 0 -30.5 -5.5t-20 -13.5t-10.5 -18t-3 -20q0 -21 19 -37t57 -16q44 0 72 15t48 44q-34 20 -67 35.5t-65 15.5z" />
    <glyph glyph-name="yen" unicode="&#xa5;" horiz-adv-x="509" 
d="M376 338q19 0 24 2t7 2t2 -2q0 -3 -8 -15t-16 -23q-5 -3 -12 -5t-22 -2h-80v-96q32 -1 61 -1h44q19 0 24 2t7 2t2 -2q0 -3 -8 -15t-16 -23q-5 -3 -12 -5t-22 -2h-80v-111q0 -4 -4.5 -13.5t-19.5 -25.5q-7 -8 -14 -13t-11 -5t-4 4v166q-32 0 -59.5 0.5t-41.5 0.5
q-19 0 -24 -2t-7 -2t-2 2q0 3 8 15t16 23q5 3 12 5t22 2q8 0 29 -0.5t47 -0.5v97q-32 0 -59.5 0.5t-41.5 0.5q-19 0 -24 -2t-7 -2t-2 2q0 3 8 15t16 23q5 3 12 5t22 2h26t41 -1l-176 363q0 3 2.5 8.5t19.5 25.5q8 11 12 14.5t6 3.5t6 -10l189 -401q40 88 76.5 174t71.5 172
q7 9 20.5 20.5t27 22t24 17.5t12.5 7q3 0 3 -2q-60 -101 -117.5 -205.5t-113.5 -210.5q32 -1 60.5 -1h43.5z" />
    <glyph glyph-name="brokenbar" unicode="&#xa6;" horiz-adv-x="255" 
d="M122 -62q0 10 -1 38.5t-2.5 66t-3.5 79.5t-3.5 77t-2.5 59t-1 27q0 4 6.5 14t15 20t16 18t10.5 8q8 0 8 -9q-6 -25 -12 -71.5t-11 -102.5t-8.5 -115t-3.5 -108v-25q-1 -3 -3.5 -3t-3.5 3v24zM116 428q0 9 -0.5 37t-1.5 65t-1.5 77t-1.5 74.5t-1.5 57.5t-0.5 26
q0 4 7.5 15.5t17 23.5t18 21t11.5 9q8 0 8 -9q-6 -25 -14 -72t-15.5 -103t-13 -114.5t-5.5 -106.5v-25q-1 -3 -3.5 -3t-3.5 3v24z" />
    <glyph glyph-name="section" unicode="&#xa7;" horiz-adv-x="582" 
d="M170 85q-18 -10 -31 -31t-13 -51q0 -55 36.5 -90t110.5 -35q66 0 106 46t40 129q0 56 -28.5 94.5t-71 69t-92.5 57.5t-92.5 59t-71 74t-28.5 102q0 35 24 74.5t69 74.5q2 44 22.5 84.5t51.5 72t68 50t72 18.5q64 0 100.5 -34t36.5 -88q0 -23 -8.5 -43t-22 -36t-30 -27
t-32.5 -15l-1 3q21 7 35.5 28.5t14.5 53.5q0 51 -33.5 84.5t-94.5 33.5q-30 0 -57 -8.5t-47 -27t-31.5 -47.5t-11.5 -70q0 -54 29 -92t72 -69t94 -58.5t94 -60t72 -73.5t29 -98q0 -19 -8 -39t-21 -40t-30.5 -39.5t-36.5 -36.5q-3 -44 -23.5 -88t-51 -80t-67 -58.5
t-72.5 -22.5q-75 0 -117 36t-42 93q0 42 26.5 75.5t60.5 48.5zM509 206q0 53 -28 91t-70.5 68.5t-92 57.5t-92 58.5t-70.5 71.5t-28 97v3q-23 -20 -37 -47t-14 -58q0 -57 28 -96.5t70 -71t91 -58t91 -57.5t70 -70.5t28 -94.5v-10q23 23 38.5 53.5t15.5 62.5z" />
    <glyph glyph-name="dieresis" unicode="&#xa8;" 
d="M334 546q-14 0 -20.5 17t-4.5 43t11 43t23 17q12 0 18 -17t4 -43q-2 -28 -9.5 -44t-21.5 -16zM231 546q-14 0 -20 17t-4 43t10.5 43t22.5 17q12 0 18.5 -17t4.5 -43q-2 -28 -10 -44t-22 -16z" />
    <glyph glyph-name="copyright" unicode="&#xa9;" horiz-adv-x="785" 
d="M402 31q66 0 119.5 24t95.5 71q38 42 63.5 102.5t25.5 152.5q0 83 -25 146.5t-68.5 106.5t-102.5 65t-127 22q-62 0 -115 -23.5t-96 -71.5q-19 -21 -35.5 -46t-29 -57t-19.5 -71.5t-7 -87.5q0 -87 28 -150t73.5 -103.5t103 -60t116.5 -19.5zM378 -16q-66 0 -128 20
t-110.5 61t-77.5 104.5t-29 149.5q0 52 11 97t30 83t43 70.5t50 61.5q57 62 120.5 96t126.5 35q68 0 129.5 -20t107.5 -61.5t73 -104.5t27 -149q0 -50 -10.5 -93t-28 -81t-40.5 -71t-49 -61q-57 -63 -121 -100t-124 -37zM558 288q-5 -9 -11.5 -17t-11.5 -16
q-25 -33 -64.5 -60t-88.5 -27q-40 0 -72.5 13t-56 37t-36 57t-12.5 72q0 30 5.5 54.5t15.5 45.5t22 39t26 36q25 32 63.5 56.5t78.5 24.5q35 0 60 -11.5t51 -33.5q1 -2 -1.5 -5.5t-13.5 -13.5q-23 -23 -25 -22q-25 24 -49.5 36.5t-56.5 12.5q-36 0 -60.5 -12.5t-41.5 -35.5
q-15 -20 -21.5 -49.5t-6.5 -79.5q0 -44 13.5 -78.5t37 -58t54 -36t63.5 -12.5q41 0 65.5 15t45.5 41q5 7 11.5 15t12.5 17z" />
    <glyph glyph-name="ordfeminine" unicode="&#xaa;" horiz-adv-x="394" 
d="M342 432q0 -8 -7 -16.5t-20 -21.5t-17 -13t-4 4q0 2 0.5 32t0.5 82q-10 -14 -23 -28t-24 -25q-29 -29 -55 -48t-59 -19q-40 0 -59.5 21.5t-19.5 50.5q0 40 20.5 64.5t75.5 48.5l88 39q29 15 41.5 28.5t14.5 30.5q0 35 -19.5 56.5t-68.5 21.5q-26 0 -41 -4t-29 -12
q-15 -9 -20 -24.5t-5 -34.5v-41q0 -7 -9 -16.5t-20 -18.5q-15 -12 -16 -12q-3 0 -3 3v57q0 22 16.5 44t52.5 46q28 20 53 32t57 12q41 0 70 -21.5t29 -59.5v-258zM244 450q11 11 27 31t24 45v103q-19 -15 -54 -31q-14 -6 -35 -15.5t-50 -24.5q-29 -17 -40 -35.5t-11 -44.5
q0 -24 16.5 -41.5t45.5 -17.5q25 0 42.5 7t34.5 24z" />
    <glyph glyph-name="guillemotleft" unicode="&#xab;" horiz-adv-x="583" 
d="M292 388q-25 -23 -53.5 -42.5t-67.5 -53.5q-4 -4 -7 -7.5t-3 -5.5q0 -3 1 -7.5t2 -7.5q7 -16 19.5 -36t27.5 -41t32 -40t34 -34q-4 -4 -7.5 -8t-11.5 -10q-19 -14 -21 -13q-4 0 -21 17q-11 12 -24 28.5t-25.5 34.5t-23 36t-16.5 33q-7 19 -7 24v5q37 29 78 62.5t79 71.5
q11 11 17 11q5 0 5.5 -4.5t-7.5 -12.5zM446 397q-25 -24 -57 -46t-71 -51q-3 -3 -6 -6.5t-3 -5.5q0 -6 6 -14q10 -17 26.5 -37.5t36 -41.5t40.5 -41.5t41 -38.5q-2 -3 -5 -7t-11 -11q-22 -17 -26 -16q-2 0 -7.5 5t-16.5 13q-14 13 -30.5 31.5t-32.5 38.5t-30 39.5t-22 33.5
q-7 14 -7 24v4q37 29 79.5 61.5t80.5 70.5q12 13 17 12q5 0 5.5 -4.5t-7.5 -12.5z" />
    <glyph glyph-name="uni00AD" unicode="&#xad;" horiz-adv-x="383" 
d="M248 234q-9 0 -28.5 0.5t-40.5 1t-40.5 1t-29.5 0.5q-13 0 -21 -1t-10 -1t-2 2q0 3 7 14t15 21q9 12 26 12q13 0 34.5 -0.5t44 -0.5t42 -0.5t28.5 -0.5q19 0 24 2t7 2t2 -2q0 -3 -8 -17.5t-16 -25.5q-5 -3 -12 -5t-22 -2z" />
    <glyph glyph-name="registered" unicode="&#xae;" horiz-adv-x="513" 
d="M174 599q0 5 3.5 11t18.5 23t19 17q3 0 3 -3v-102q5 19 13 37t19 32t23.5 23t26.5 9q30 0 45.5 -21t15.5 -50t-24 -58.5t-62 -47.5h1q24 0 36 -13.5t20.5 -29t16.5 -29t24 -13.5q12 0 24.5 11t23 30.5t17.5 45.5t7 57q0 48 -13 85.5t-37 63.5t-57 40t-73 14
q-41 0 -76.5 -20.5t-62 -55t-42 -80t-15.5 -96.5t12 -92.5t35 -71t55 -46t73 -16.5t75 16t57 49l4 -3q-35 -51 -76 -78.5t-92 -27.5q-41 0 -74 16t-56.5 44t-36 67t-12.5 86q0 66 25 128t63.5 110t85.5 77.5t92 29.5q40 0 72.5 -13t55.5 -36t35.5 -56t12.5 -72t-14 -83
t-34 -81.5t-42.5 -62t-39.5 -24.5q-18 0 -28 17.5t-20 38t-23.5 38t-38.5 17.5q-7 0 -11 -1.5t-7 -3.5v-66q0 -4 -3.5 -11.5t-16.5 -20.5q-5 -6 -11 -10.5t-9 -4.5q-4 0 -4 3v23v48.5t0.5 60.5t0.5 60.5v48v23.5zM244 460q32 11 52 39.5t20 63.5q0 20 -11 33.5t-32 13.5
q-20 0 -36.5 -28t-19.5 -73v-57q5 1 13 3.5t14 4.5z" />
    <glyph glyph-name="macron" unicode="&#xaf;" 
d="M357 543q-9 0 -28.5 0.5t-40.5 1t-40.5 1t-29.5 0.5q-13 0 -21 -1t-10 -1t-2 2q0 3 7 14t15 21q9 12 26 12q13 0 34.5 -0.5t44 -0.5t42 -0.5t28.5 -0.5q19 0 24 2t7 2t2 -2q0 -3 -8 -17.5t-16 -25.5q-5 -3 -12 -5t-22 -2z" />
    <glyph glyph-name="plusminus" unicode="&#xb1;" horiz-adv-x="570" 
d="M408 429q19 0 24 2t7 2t2 -2q0 -3 -8 -18t-16 -26q-5 -3 -12 -5t-22 -2h-68q1 -29 1.5 -49.5t0.5 -22.5v-4t-1.5 -5.5t-6 -10.5t-12.5 -18q-6 -8 -11 -13.5t-9 -5.5t-4 5v14.5t-0.5 29t-1 38.5t-1.5 43q-28 1 -53.5 1.5t-40.5 0.5q-19 0 -24 -2t-7 -2t-2 2q0 3 8 18
t16 26q5 3 12 5t22 2q8 0 26.5 -0.5t41.5 -0.5q-1 26 -1 44.5v23.5v6.5t1.5 8t6 11.5t12.5 18q6 8 11 13.5t9 5.5t4 -5v-15t0.5 -29.5t1 -39t0.5 -43.5q28 -1 53.5 -1h40.5zM408 201q19 0 24 2t7 2t2 -2q0 -3 -8 -18t-16 -26q-5 -3 -12 -5t-22 -2q-17 0 -45 0.5t-58.5 1
t-59 1t-44.5 0.5q-19 0 -24 -2t-7 -2t-2 2q0 3 8 18t16 26q5 3 12 5t22 2q11 0 38 -0.5t59 -1t62.5 -1t47.5 -0.5z" />
    <glyph glyph-name="twosuperior" unicode="&#xb2;" horiz-adv-x="316" 
d="M182 628q-22 -27 -45.5 -47.5t-50.5 -20.5q-30 0 -44 17.5t-14 45.5q0 21 14 43.5t35.5 41.5t46.5 31.5t47 12.5q51 0 81 -26t30 -65q0 -24 -9.5 -45t-26 -42t-40 -43.5t-51.5 -48.5l-74 -70h173q11 0 24 1.5t15 1.5l1 -1l-4 -5.5t-9 -12.5t-10 -13.5t-7 -9.5
q-3 -3 -19 -3h-216l-2 2q0 1 7 8l113 106q27 25 44.5 45t28 37.5t15 33.5t4.5 34q0 42 -27.5 64t-74.5 22q-38 0 -58.5 -19t-20.5 -48t14 -44.5t39 -15.5q24 0 36.5 8t29.5 29z" />
    <glyph glyph-name="threesuperior" unicode="&#xb3;" horiz-adv-x="294" 
d="M95 363q-31 0 -51 15.5t-20 44.5q0 28 22.5 54.5t48.5 47.5l5 -3q-13 -11 -20.5 -20t-11 -17t-4.5 -15.5t-1 -16.5q0 -26 17 -40t50 -14q46 0 73.5 27t27.5 73q0 36 -21.5 63t-73.5 27q-20 0 -44 -7.5t-38 -21.5l-5 6l150 139h-163q-7 0 -10 -0.5t-4 -0.5l-1 1
q0 1 9 11.5t14 15.5l8 8t7 2h181q7 0 11 1q2 0 2 -2l-176 -159q21 14 47 24t51 10q46 0 69.5 -25.5t23.5 -61.5q0 -25 -17 -54t-43 -54t-56.5 -41.5t-56.5 -16.5z" />
    <glyph glyph-name="acute" unicode="&#xb4;" 
d="M212 536q-5 0 -5 4q0 2 3 5q18 17 32.5 46.5t26 59t18.5 52.5t9 28q7 17 15 20q4 1 8 -8t7.5 -21t5.5 -24t1 -16t-4 -10t-7 -11q-4 -6 -14.5 -18.5t-25 -29t-31.5 -35.5t-33 -38q-3 -4 -6 -4z" />
    <glyph glyph-name="paragraph" unicode="&#xb6;" horiz-adv-x="704" 
d="M458 530q-42 -41 -82 -62q0 -67 0.5 -135.5t1 -132t0.5 -119t0.5 -97t0.5 -66v-25.5q0 -2 -0.5 -3.5t-3 -5t-7.5 -10t-13 -17.5q-6 -8 -11 -13.5t-9 -5.5t-4 5v29.5t-0.5 71t-1 103t-1 125t-1 136.5t-0.5 138q-42 -15 -80 -15q-45 0 -82 14.5t-63.5 40t-41 59.5t-14.5 72
q0 47 28.5 94t71 84.5t93 60.5t94.5 23q42 0 90.5 -0.5t93.5 -0.5t81.5 -0.5t53.5 -0.5q19 0 24 2t7 2t2 -2q0 -3 -8 -16.5t-16 -24.5q-5 -3 -12 -5t-22 -2h-77q0 -34 0.5 -92t1 -130t0.5 -152.5t0.5 -159.5t1 -152t1 -128.5t0.5 -89v-34.5q0 -2 -0.5 -3.5t-3 -5t-7.5 -10
t-13 -17.5q-6 -8 -11 -13.5t-9 -5.5t-4 5v46t-0.5 111t-1 154t-1 176t-1 176t-1 154t-0.5 110.5v45.5t0.5 6.5t2.5 8.5q-34 1 -66.5 1h-64.5v-59.5t0.5 -81.5t1 -97.5t0.5 -108.5q41 16 77 50zM304 471h11t12 1q0 69 -0.5 130t-0.5 108v75v31t0.5 7t3.5 10h-63
q-38 0 -70 -14t-55 -38.5t-36.5 -57.5t-13.5 -70q0 -35 13.5 -67.5t40.5 -58t66.5 -41t91.5 -15.5z" />
    <glyph glyph-name="periodcentered" unicode="&#xb7;" horiz-adv-x="285" 
d="M107 259q2 29 13.5 47t29.5 18q15 0 23 -18t6 -47t-12.5 -45.5t-28.5 -16.5q-17 0 -25 17.5t-6 44.5z" />
    <glyph glyph-name="cedilla" unicode="&#xb8;" 
d="M278 -262q-32 0 -46.5 12t-14.5 29q0 20 15 42.5t35 37.5l2 -3q-14 -15 -14 -37q0 -17 16 -28t45 -11q34 0 50.5 20t16.5 49q0 32 -24.5 45t-66.5 13q-19 0 -34.5 -3.5t-27 -7.5t-18.5 -7.5t-9 -3.5q-4 0 -5 2.5t3 5.5q42 33 67 68.5t38 63.5q4 10 12 7.5t4 -9.5
q-17 -23 -36 -47t-31 -41q-3 -3 -0.5 -4t5.5 1q8 5 28.5 11.5t41.5 6.5q38 1 60 -17.5t22 -46.5q0 -20 -12 -45.5t-31.5 -48t-43.5 -38.5t-47 -16z" />
    <glyph glyph-name="onesuperior" unicode="&#xb9;" horiz-adv-x="234" 
d="M35 647q26 25 54 55.5t47 53.5l3 1q2 0 2 -5v-303q0 -3 -7.5 -13t-16.5 -19q-7 -7 -9 -8h103q11 0 14 1t4 1t1 -1l-3 -5t-6.5 -11t-7.5 -12t-7 -9q-4 -3 -19 -3h-165q-8 0 -11.5 -0.5t-4.5 -0.5l-1 1q0 2 3 7.5t7 11.5q4 5 10.5 12.5t11.5 7.5h64v301l-57 -72
q-4 -3 -8 0.5t-1 8.5z" />
    <glyph glyph-name="ordmasculine" unicode="&#xba;" horiz-adv-x="425" 
d="M223 419q28 0 51 10.5t36 29.5q17 26 21 54.5t4 63.5q0 40 -10 70t-27.5 49.5t-41.5 29.5t-52 10q-31 0 -54 -10t-40 -33q-18 -23 -20.5 -49t-2.5 -62q0 -80 39 -121.5t97 -41.5zM197 380q-33 0 -61.5 12.5t-48.5 35.5t-31.5 55.5t-11.5 71.5q0 41 19 75t42 66
q23 30 56 52.5t69 22.5q64 0 106 -43.5t42 -125.5q0 -41 -19.5 -77.5t-43.5 -69.5q-10 -13 -23.5 -26.5t-29 -24t-32.5 -17.5t-33 -7z" />
    <glyph glyph-name="guillemotright" unicode="&#xbb;" horiz-adv-x="614" 
d="M317 112q13 12 26.5 23t29 22t33 24.5t38.5 31.5q4 4 7.5 8t3.5 6q0 6 -4 16q-8 17 -20.5 38t-28.5 42.5t-34 42t-35 36.5q4 4 7.5 8t12.5 11q19 14 22 13q4 0 22 -18q12 -12 25.5 -29.5t26 -36.5t23.5 -38t18 -35q8 -18 8 -25v-5q-39 -30 -82.5 -65.5t-83.5 -75.5
q-11 -12 -17 -12q-5 0 -5.5 5t7.5 13zM155 103q26 25 59.5 48t74.5 54q4 3 7 6.5t3 5.5q0 7 -6 15q-11 18 -28.5 39.5t-38 43.5t-42.5 44t-43 40q2 4 5.5 8t11.5 11q23 18 27 17q3 0 25 -19q14 -13 31.5 -32.5t34.5 -40.5t31.5 -41.5t23.5 -35.5q4 -7 6 -14t2 -11v-5
q-39 -30 -84 -64.5t-85 -74.5q-12 -13 -17 -12q-5 0 -5.5 5t7.5 13z" />
    <glyph glyph-name="onequarter" unicode="&#xbc;" horiz-adv-x="636" 
d="M428 56q11 0 14 1t5 1l1 -1q0 -1 -8 -13.5t-13 -19.5q-2 -2 -6 -2.5t-13 -0.5h-44v-95q0 -2 -1 -5t-9 -11q-3 -3 -12.5 -12t-11.5 -9t-2 2v130h-153l-11 -1l-1 5l190 249q5 6 6.5 8t2.5 2q2 0 2 -3v-225h64zM237 706q26 25 54 55.5t47 53.5l3 1q2 0 2 -5v-303
q0 -3 -7.5 -13t-16.5 -19q-7 -7 -9 -8h103q11 0 14 1t4 1t1 -1l-3 -5t-6.5 -11t-7.5 -12t-7 -9q-4 -3 -19 -3h-165q-8 0 -11.5 -0.5t-4.5 -0.5l-1 1q0 2 3 7.5t7 11.5q4 5 10.5 12.5t11.5 7.5h64v301l-57 -72q-4 -3 -8 0.5t-1 8.5zM200 56h128v60.5t0.5 53.5t0.5 39v18z
M57 347q0 4 19 10q9 2 14.5 3t16.5 1h434q23 0 29 0.5t8 0.5q3 0 3 -1t-7.5 -5.5t-18.5 -6.5q-5 -2 -13 -2h-26h-459z" />
    <glyph glyph-name="onehalf" unicode="&#xbd;" horiz-adv-x="636" 
d="M329 163q-22 -27 -45.5 -47.5t-50.5 -20.5q-30 0 -44 17.5t-14 45.5q0 21 14 43.5t35.5 41.5t46.5 31.5t47 12.5q51 0 81 -26t30 -65q0 -24 -9.5 -45t-26 -42t-40 -43.5t-51.5 -48.5l-74 -70h173q11 0 24 1.5t15 1.5l1 -1l-4 -5.5t-9 -12.5t-10 -13.5t-7 -9.5
q-3 -3 -19 -3h-216l-2 2q0 1 7 8l113 106q27 25 44.5 45t28 37.5t15 33.5t4.5 34q0 42 -27.5 64t-74.5 22q-38 0 -58.5 -19t-20.5 -48t14 -44.5t39 -15.5q24 0 36.5 8t29.5 29zM237 706q26 25 54 55.5t47 53.5l3 1q2 0 2 -5v-303q0 -3 -7.5 -13t-16.5 -19q-7 -7 -9 -8h103
q11 0 14 1t4 1t1 -1l-3 -5t-6.5 -11t-7.5 -12t-7 -9q-4 -3 -19 -3h-165q-8 0 -11.5 -0.5t-4.5 -0.5l-1 1q0 2 3 7.5t7 11.5q4 5 10.5 12.5t11.5 7.5h64v301l-57 -72q-4 -3 -8 0.5t-1 8.5zM57 347q0 4 19 10q9 2 14.5 3t16.5 1h434q23 0 29 0.5t8 0.5q3 0 3 -1t-7.5 -5.5
t-18.5 -6.5q-5 -2 -13 -2h-26h-459z" />
    <glyph glyph-name="threequarters" unicode="&#xbe;" horiz-adv-x="636" 
d="M425 56q11 0 14 1t5 1l1 -1q0 -1 -8 -13.5t-13 -19.5q-2 -2 -6 -2.5t-13 -0.5h-44v-95q0 -2 -1 -5t-9 -11q-3 -3 -12.5 -12t-11.5 -9t-2 2v130h-153l-11 -1l-1 5l190 249q5 6 6.5 8t2.5 2q2 0 2 -3v-225h64zM279 422q-31 0 -51 15.5t-20 44.5q0 28 22.5 54.5t48.5 47.5
l5 -3q-13 -11 -20.5 -20t-11 -17t-4.5 -15.5t-1 -16.5q0 -26 17 -40t50 -14q46 0 73.5 27t27.5 73q0 36 -21.5 63t-73.5 27q-20 0 -44 -7.5t-38 -21.5l-5 6l150 139h-163q-7 0 -10 -0.5t-4 -0.5l-1 1q0 1 9 11.5t14 15.5l8 8t7 2h181q7 0 11 1q2 0 2 -2l-176 -159
q21 14 47 24t51 10q46 0 69.5 -25.5t23.5 -61.5q0 -25 -17 -54t-43 -54t-56.5 -41.5t-56.5 -16.5zM197 56h128v60.5t0.5 53.5t0.5 39v18zM57 347q0 4 19 10q9 2 14.5 3t16.5 1h434q23 0 29 0.5t8 0.5q3 0 3 -1t-7.5 -5.5t-18.5 -6.5q-5 -2 -13 -2h-26h-459z" />
    <glyph glyph-name="questiondown" unicode="&#xbf;" horiz-adv-x="519" 
d="M284 -107q4 14 12.5 29.5t21.5 28.5t30.5 21.5t38.5 8.5q23 0 41 -8.5t31 -22.5t19.5 -32.5t6.5 -39.5q0 -37 -23.5 -77.5t-60.5 -74t-83 -55.5t-91 -22q-46 1 -85 15.5t-67 39.5t-43.5 60t-15.5 76q0 36 15 65t38.5 53.5t52 46t54.5 41.5q20 15 38.5 29.5t32 30.5
t21.5 34t8 40q0 25 -12 44.5t-32 34.5l-9 9t-4 9t4.5 12t10.5 13.5t12 11t9 4.5q7 0 19 -9q16 -13 32 -36t16 -54q0 -30 -12.5 -54.5t-32.5 -45t-45.5 -39.5t-51.5 -39q-23 -17 -43.5 -35.5t-37 -39t-26 -42.5t-9.5 -47q1 -40 15 -75t40 -60.5t64.5 -40t87.5 -14.5
q41 0 72.5 12.5t53 33.5t32.5 49t11 60q0 45 -24 71t-57 26q-57 0 -70 -48zM311 446q-2 -29 -13.5 -47t-29.5 -18q-15 0 -23 18t-6 47t12.5 45.5t28.5 16.5q17 0 25 -17.5t6 -44.5z" />
    <glyph glyph-name="Agrave" unicode="&#xc0;" horiz-adv-x="549" 
d="M226 709q-1 2 -0.5 6.5t3.5 7.5q18 23 24.5 29.5t8.5 6.5t4 -5l255 -715q1 -4 -3 -9.5t-15 -19.5q-13 -16 -18 -16q-3 0 -6 9l-120 333q-2 -5 -7 -16.5t-13 -22.5q-5 -3 -13 -4.5t-25 -1.5q-44 0 -67 -0.5t-34.5 -0.5h-15h-8.5q-14 0 -20.5 -1t-9.5 -2l-72 -238
q-9 -12 -20 -23.5t-21 -20.5t-17.5 -14t-8.5 -5q-5 -1 -5 2q63 155 126 323.5t120 334.5zM160 329q5 3 12.5 5t24.5 2q6 0 24 0.5t39 0.5h39h23q22 0 28 2t8 2l-106 294l-93 -307zM264 799q-3 0 -4 3q-17 28 -33.5 48t-34.5 35.5t-37.5 29.5t-42.5 30q-8 4 9 18q9 8 18 12.5
t12 4.5q2 0 5.5 -0.5t8.5 -8.5q24 -32 46 -69t54 -95q2 -4 2 -5q0 -3 -3 -3z" />
    <glyph glyph-name="Aacute" unicode="&#xc1;" horiz-adv-x="549" 
d="M226 709q-1 2 -0.5 6.5t3.5 7.5q18 23 24.5 29.5t8.5 6.5t4 -5l255 -715q1 -4 -3 -9.5t-15 -19.5q-13 -16 -18 -16q-3 0 -6 9l-120 333q-2 -5 -7 -16.5t-13 -22.5q-5 -3 -13 -4.5t-25 -1.5q-44 0 -67 -0.5t-34.5 -0.5h-15h-8.5q-14 0 -20.5 -1t-9.5 -2l-72 -238
q-9 -12 -20 -23.5t-21 -20.5t-17.5 -14t-8.5 -5q-5 -1 -5 2q63 155 126 323.5t120 334.5zM160 329q5 3 12.5 5t24.5 2q6 0 24 0.5t39 0.5h39h23q22 0 28 2t8 2l-106 294l-93 -307zM256 800q-5 0 -5 4q0 2 3 5q18 17 32.5 46.5t26 59t18.5 52.5t9 28q7 17 15 20q4 1 8 -8
t7.5 -21t5.5 -24t1 -16t-4 -10t-7 -11q-4 -6 -14.5 -18.5t-25 -29t-31.5 -35.5t-33 -38q-3 -4 -6 -4z" />
    <glyph glyph-name="Acircumflex" unicode="&#xc2;" horiz-adv-x="549" 
d="M226 709q-1 2 -0.5 6.5t3.5 7.5q18 23 24.5 29.5t8.5 6.5t4 -5l255 -715q1 -4 -3 -9.5t-15 -19.5q-13 -16 -18 -16q-3 0 -6 9l-120 333q-2 -5 -7 -16.5t-13 -22.5q-5 -3 -13 -4.5t-25 -1.5q-44 0 -67 -0.5t-34.5 -0.5h-15h-8.5q-14 0 -20.5 -1t-9.5 -2l-72 -238
q-9 -12 -20 -23.5t-21 -20.5t-17.5 -14t-8.5 -5q-5 -1 -5 2q63 155 126 323.5t120 334.5zM160 329q5 3 12.5 5t24.5 2q6 0 24 0.5t39 0.5h39h23q22 0 28 2t8 2l-106 294l-93 -307zM284 963q16 -32 28 -54t21 -38t15.5 -28t12.5 -23q1 -7 -11 -23q-13 -17 -18 -12
q-11 19 -28.5 53t-43.5 81q-7 -11 -14.5 -26t-14.5 -31t-13.5 -32t-12.5 -29q-6 -14 -12 -14q-4 0 -4 5t4 11q6 10 15.5 28.5t20.5 40t23 44.5t24 44q2 3 4.5 4t3.5 -1z" />
    <glyph glyph-name="Atilde" unicode="&#xc3;" horiz-adv-x="549" 
d="M226 709q-1 2 -0.5 6.5t3.5 7.5q18 23 24.5 29.5t8.5 6.5t4 -5l255 -715q1 -4 -3 -9.5t-15 -19.5q-13 -16 -18 -16q-3 0 -6 9l-120 333q-2 -5 -7 -16.5t-13 -22.5q-5 -3 -13 -4.5t-25 -1.5q-44 0 -67 -0.5t-34.5 -0.5h-15h-8.5q-14 0 -20.5 -1t-9.5 -2l-72 -238
q-9 -12 -20 -23.5t-21 -20.5t-17.5 -14t-8.5 -5q-5 -1 -5 2q63 155 126 323.5t120 334.5zM160 329q5 3 12.5 5t24.5 2q6 0 24 0.5t39 0.5h39h23q22 0 28 2t8 2l-106 294l-93 -307zM164 830q-1 -2 -3.5 -1t-1.5 3q8 14 15.5 30t13.5 24q7 9 17 16t26 7q11 0 25.5 -6.5
t29.5 -14.5t29 -14.5t26 -6.5q18 0 26.5 8t19.5 25q1 2 4 1t1 -3q-8 -14 -17.5 -30.5t-15.5 -24.5q-7 -9 -15.5 -14.5t-24.5 -5.5q-11 0 -25.5 6.5t-30 14t-30.5 14t-26 6.5q-17 0 -26 -9t-17 -25z" />
    <glyph glyph-name="Adieresis" unicode="&#xc4;" horiz-adv-x="549" 
d="M226 709q-1 2 -0.5 6.5t3.5 7.5q18 23 24.5 29.5t8.5 6.5t4 -5l255 -715q1 -4 -3 -9.5t-15 -19.5q-13 -16 -18 -16q-3 0 -6 9l-120 333q-2 -5 -7 -16.5t-13 -22.5q-5 -3 -13 -4.5t-25 -1.5q-44 0 -67 -0.5t-34.5 -0.5h-15h-8.5q-14 0 -20.5 -1t-9.5 -2l-72 -238
q-9 -12 -20 -23.5t-21 -20.5t-17.5 -14t-8.5 -5q-5 -1 -5 2q63 155 126 323.5t120 334.5zM160 329q5 3 12.5 5t24.5 2q6 0 24 0.5t39 0.5h39h23q22 0 28 2t8 2l-106 294l-93 -307zM311 805q-14 0 -20.5 17t-4.5 43t11 43t23 17q12 0 18 -17t4 -43q-2 -28 -9.5 -44t-21.5 -16
zM208 805q-14 0 -20 17t-4 43t10.5 43t22.5 17q12 0 18.5 -17t4.5 -43q-2 -28 -10 -44t-22 -16z" />
    <glyph glyph-name="Aring" unicode="&#xc5;" horiz-adv-x="549" 
d="M226 709q-1 2 -0.5 6.5t3.5 7.5q18 23 24.5 29.5t8.5 6.5t4 -5l255 -715q1 -4 -3 -9.5t-15 -19.5q-13 -16 -18 -16q-3 0 -6 9l-120 333q-2 -5 -7 -16.5t-13 -22.5q-5 -3 -13 -4.5t-25 -1.5q-44 0 -67 -0.5t-34.5 -0.5h-15h-8.5q-14 0 -20.5 -1t-9.5 -2l-72 -238
q-9 -12 -20 -23.5t-21 -20.5t-17.5 -14t-8.5 -5q-5 -1 -5 2q63 155 126 323.5t120 334.5zM160 329q5 3 12.5 5t24.5 2q6 0 24 0.5t39 0.5h39h23q22 0 28 2t8 2l-106 294l-93 -307zM262 808q-23 0 -38 7t-24.5 18t-13.5 24t-4 25q0 26 22 49t63 23q42 0 62 -22t19 -51
q0 -12 -6 -25t-17 -23.5t-27 -17.5t-36 -7zM262 815q25 0 45.5 12t20.5 33q0 23 -13.5 36.5t-48.5 13.5t-48.5 -15t-13.5 -35q0 -23 16 -34t42 -11z" />
    <glyph glyph-name="AE" unicode="&#xc6;" horiz-adv-x="759" 
d="M441 -6q-3 0 -6 9l-89 326q-3 -7 -7.5 -15.5t-10.5 -16.5q-5 -3 -13 -4.5t-25 -1.5h-72.5t-35.5 -0.5t-13.5 -0.5h-6.5q-13 0 -17 -1l-85 -240q-9 -12 -20 -23.5t-21 -20.5t-18 -14.5t-11 -5.5q-2 0 -2 3q31 76 65.5 156.5t69.5 163t70.5 165.5t67.5 165l-19 71
q-1 2 -0.5 6.5t3.5 7.5q19 23 25.5 29.5t8.5 6.5t4 -5l12 -44q3 5 8 10.5t10 12.5t11 9.5t20 1.5h270q23 0 28.5 3t7.5 3q3 0 3 -4q0 -2 -10 -16t-21 -29q-5 -1 -11.5 -1.5t-23.5 -0.5h-261q-10 0 -16.5 -0.5t-11.5 -1.5l91 -335l5 7.5t8 9.5q9 12 14.5 15t15.5 3h19.5h39
t48 -0.5t48 -0.5h38.5h20q22 0 28 3t8 3q3 0 3 -3q0 -4 -11 -18.5t-19 -24.5q-5 -4 -13 -5t-25 -1h-18.5h-37t-46 0.5t-46 0.5h-36.5h-18q-8 0 -13 -0.5t-8 -0.5l82 -307q7 5 15 5h238q22 0 28.5 2t8.5 2t2 -2t-10 -17.5t-18 -26.5q-5 -4 -13 -5t-25 -1h-20.5h-41.5t-52 0.5
t-52 0.5h-41h-20q-8 0 -13.5 -0.5t-10.5 -0.5q-6 -6 -9 -6zM311 337q14 0 21.5 1t10.5 2l-79 287l-103 -293q4 1 9 1.5t13 0.5q6 0 24.5 0.5t40 0.5h40h23.5z" />
    <glyph glyph-name="Ccedilla" unicode="&#xc7;" horiz-adv-x="548" 
d="M264 -273q-32 0 -46.5 12t-14.5 29q0 20 15 42.5t35 37.5l2 -3q-14 -15 -14 -37q0 -17 16 -28t45 -11q34 0 50.5 20t16.5 49q0 32 -24.5 45t-66.5 13q-19 0 -34.5 -3.5t-27 -7.5t-18.5 -7.5t-9 -3.5q-4 0 -5 2.5t3 5.5q35 28 58.5 58t37.5 56q-54 7 -97 33.5t-73.5 71.5
t-47 107.5t-16.5 140.5q0 50 10 94.5t26.5 83.5t38 72t44.5 60q37 43 86.5 72.5t108.5 29.5q47 0 83 -12.5t74 -38.5q2 -2 0 -6.5t-16 -21.5t-19.5 -19t-7.5 0q-32 26 -66.5 40.5t-81.5 14.5q-51 0 -90.5 -18t-65.5 -47q-35 -42 -55 -106t-20 -155q0 -80 19 -144.5
t52.5 -110t80.5 -70.5t104 -25q31 0 55 5.5t43 16t35.5 24.5t32.5 32l4 -3q-17 -25 -39 -47.5t-48 -39t-55.5 -26.5t-61.5 -10q-7 0 -13 0.5t-12 0.5q-14 -19 -29 -38t-25 -33q-3 -3 -0.5 -4t5.5 1q8 5 28.5 11.5t41.5 6.5q38 1 60 -17.5t22 -46.5q0 -20 -12 -45.5
t-31.5 -48t-43.5 -38.5t-47 -16z" />
    <glyph glyph-name="Egrave" unicode="&#xc8;" horiz-adv-x="461" 
d="M342 350h-18h-35t-43.5 0.5t-43.5 0.5h-34.5h-17.5q-14 0 -19.5 -1t-7.5 -1v-300q0 -3 -1 -5q5 4 14 4h278q22 0 28.5 2t8.5 2t2 -2t-10 -17.5t-18 -26.5q-5 -4 -13 -5t-25 -1h-23.5h-49t-61.5 0.5t-61.5 0.5h-48.5h-23q-15 0 -22.5 -1t-9.5 -1l-1 1l-5 -6q-4 -3 -5 -4.5
t-3 -1.5t-2 6v691l-9 6v1l49 53l18 -1h217q23 0 28.5 3t7.5 3q3 0 3 -4q0 -2 -10 -16t-21 -29q-5 -1 -11.5 -1.5t-23.5 -0.5h-197v-340l15 20q9 12 14.5 15t15.5 3h18.5h37t46 -0.5t46 -0.5h36.5h19q22 0 28 3t8 3q3 0 3 -3q0 -4 -11 -18.5t-19 -24.5q-5 -4 -13 -5t-25 -1z
M264 798q-3 0 -4 3q-17 28 -33.5 48t-34.5 35.5t-37.5 29.5t-42.5 30q-8 4 9 18q9 8 18 12.5t12 4.5q2 0 5.5 -0.5t8.5 -8.5q24 -32 46 -69t54 -95q2 -4 2 -5q0 -3 -3 -3z" />
    <glyph glyph-name="Eacute" unicode="&#xc9;" horiz-adv-x="461" 
d="M342 350h-18h-35t-43.5 0.5t-43.5 0.5h-34.5h-17.5q-14 0 -19.5 -1t-7.5 -1v-300q0 -3 -1 -5q5 4 14 4h278q22 0 28.5 2t8.5 2t2 -2t-10 -17.5t-18 -26.5q-5 -4 -13 -5t-25 -1h-23.5h-49t-61.5 0.5t-61.5 0.5h-48.5h-23q-15 0 -22.5 -1t-9.5 -1l-1 1l-5 -6q-4 -3 -5 -4.5
t-3 -1.5t-2 6v691l-9 6v1l49 53l18 -1h217q23 0 28.5 3t7.5 3q3 0 3 -4q0 -2 -10 -16t-21 -29q-5 -1 -11.5 -1.5t-23.5 -0.5h-197v-340l15 20q9 12 14.5 15t15.5 3h18.5h37t46 -0.5t46 -0.5h36.5h19q22 0 28 3t8 3q3 0 3 -3q0 -4 -11 -18.5t-19 -24.5q-5 -4 -13 -5t-25 -1z
M231 796q-5 0 -5 4q0 2 3 5q18 17 32.5 46.5t26 59t18.5 52.5t9 28q7 17 15 20q4 1 8 -8t7.5 -21t5.5 -24t1 -16t-4 -10t-7 -11q-4 -6 -14.5 -18.5t-25 -29t-31.5 -35.5t-33 -38q-3 -4 -6 -4z" />
    <glyph glyph-name="Ecircumflex" unicode="&#xca;" horiz-adv-x="461" 
d="M342 350h-18h-35t-43.5 0.5t-43.5 0.5h-34.5h-17.5q-14 0 -19.5 -1t-7.5 -1v-300q0 -3 -1 -5q5 4 14 4h278q22 0 28.5 2t8.5 2t2 -2t-10 -17.5t-18 -26.5q-5 -4 -13 -5t-25 -1h-23.5h-49t-61.5 0.5t-61.5 0.5h-48.5h-23q-15 0 -22.5 -1t-9.5 -1l-1 1l-5 -6q-4 -3 -5 -4.5
t-3 -1.5t-2 6v691l-9 6v1l49 53l18 -1h217q23 0 28.5 3t7.5 3q3 0 3 -4q0 -2 -10 -16t-21 -29q-5 -1 -11.5 -1.5t-23.5 -0.5h-197v-340l15 20q9 12 14.5 15t15.5 3h18.5h37t46 -0.5t46 -0.5h36.5h19q22 0 28 3t8 3q3 0 3 -3q0 -4 -11 -18.5t-19 -24.5q-5 -4 -13 -5t-25 -1z
M252 983q16 -32 28 -54t21 -38t15.5 -28t12.5 -23q1 -7 -11 -23q-13 -17 -18 -12q-11 19 -28.5 53t-43.5 81q-7 -11 -14.5 -26t-14.5 -31t-13.5 -32t-12.5 -29q-6 -14 -12 -14q-4 0 -4 5t4 11q6 10 15.5 28.5t20.5 40t23 44.5t24 44q2 3 4.5 4t3.5 -1z" />
    <glyph glyph-name="Edieresis" unicode="&#xcb;" horiz-adv-x="461" 
d="M342 350h-18h-35t-43.5 0.5t-43.5 0.5h-34.5h-17.5q-14 0 -19.5 -1t-7.5 -1v-300q0 -3 -1 -5q5 4 14 4h278q22 0 28.5 2t8.5 2t2 -2t-10 -17.5t-18 -26.5q-5 -4 -13 -5t-25 -1h-23.5h-49t-61.5 0.5t-61.5 0.5h-48.5h-23q-15 0 -22.5 -1t-9.5 -1l-1 1l-5 -6q-4 -3 -5 -4.5
t-3 -1.5t-2 6v691l-9 6v1l49 53l18 -1h217q23 0 28.5 3t7.5 3q3 0 3 -4q0 -2 -10 -16t-21 -29q-5 -1 -11.5 -1.5t-23.5 -0.5h-197v-340l15 20q9 12 14.5 15t15.5 3h18.5h37t46 -0.5t46 -0.5h36.5h19q22 0 28 3t8 3q3 0 3 -3q0 -4 -11 -18.5t-19 -24.5q-5 -4 -13 -5t-25 -1z
M289 813q-14 0 -20.5 17t-4.5 43t11 43t23 17q12 0 18 -17t4 -43q-2 -28 -9.5 -44t-21.5 -16zM186 813q-14 0 -20 17t-4 43t10.5 43t22.5 17q12 0 18.5 -17t4.5 -43q-2 -28 -10 -44t-22 -16z" />
    <glyph glyph-name="Igrave" unicode="&#xcc;" horiz-adv-x="205" 
d="M77 696v6.5t2.5 6.5t7.5 10.5t15 17.5l15 15t9 7q4 0 4 -4v-34.5v-80.5v-111t-0.5 -127t-0.5 -127.5v-112.5v-82v-37q0 -7 -27 -41q-8 -8 -12.5 -13.5t-9.5 -5.5q-4 0 -4 2v34.5v81v112v128t0.5 128t0.5 112v81v34.5zM106 797q-3 0 -4 3q-17 28 -33.5 48t-34.5 35.5
t-37.5 29.5t-42.5 30q-8 4 9 18q9 8 18 12.5t12 4.5q2 0 5.5 -0.5t8.5 -8.5q24 -32 46 -69t54 -95q2 -4 2 -5q0 -3 -3 -3z" />
    <glyph glyph-name="Iacute" unicode="&#xcd;" horiz-adv-x="205" 
d="M77 696v6.5t2.5 6.5t7.5 10.5t15 17.5l15 15t9 7q4 0 4 -4v-34.5v-80.5v-111t-0.5 -127t-0.5 -127.5v-112.5v-82v-37q0 -7 -27 -41q-8 -8 -12.5 -13.5t-9.5 -5.5q-4 0 -4 2v34.5v81v112v128t0.5 128t0.5 112v81v34.5zM96 796q-5 0 -5 4q0 2 3 5q18 17 32.5 46.5t26 59
t18.5 52.5t9 28q7 17 15 20q4 1 8 -8t7.5 -21t5.5 -24t1 -16t-4 -10t-7 -11q-4 -6 -14.5 -18.5t-25 -29t-31.5 -35.5t-33 -38q-3 -4 -6 -4z" />
    <glyph glyph-name="Icircumflex" unicode="&#xce;" horiz-adv-x="205" 
d="M77 696v6.5t2.5 6.5t7.5 10.5t15 17.5l15 15t9 7q4 0 4 -4v-34.5v-80.5v-111t-0.5 -127t-0.5 -127.5v-112.5v-82v-37q0 -7 -27 -41q-8 -8 -12.5 -13.5t-9.5 -5.5q-4 0 -4 2v34.5v81v112v128t0.5 128t0.5 112v81v34.5zM127 985q16 -32 28 -54t21 -38t15.5 -28t12.5 -23
q1 -7 -11 -23q-13 -17 -18 -12q-11 19 -28.5 53t-43.5 81q-7 -11 -14.5 -26t-14.5 -31t-13.5 -32t-12.5 -29q-6 -14 -12 -14q-4 0 -4 5t4 11q6 10 15.5 28.5t20.5 40t23 44.5t24 44q2 3 4.5 4t3.5 -1z" />
    <glyph glyph-name="Idieresis" unicode="&#xcf;" horiz-adv-x="205" 
d="M77 696v6.5t2.5 6.5t7.5 10.5t15 17.5l15 15t9 7q4 0 4 -4v-34.5v-80.5v-111t-0.5 -127t-0.5 -127.5v-112.5v-82v-37q0 -7 -27 -41q-8 -8 -12.5 -13.5t-9.5 -5.5q-4 0 -4 2v34.5v81v112v128t0.5 128t0.5 112v81v34.5zM163 812q-14 0 -20.5 17t-4.5 43t11 43t23 17
q12 0 18 -17t4 -43q-2 -28 -9.5 -44t-21.5 -16zM60 812q-14 0 -20 17t-4 43t10.5 43t22.5 17q12 0 18.5 -17t4.5 -43q-2 -28 -10 -44t-22 -16z" />
    <glyph glyph-name="Eth" unicode="&#xd0;" horiz-adv-x="594" 
d="M85 -9q-4 -4 -9 -4q-4 0 -4 4v371h-27q-13 0 -21 -1t-10 -1t-2 2q0 3 7 14t15 21q9 12 26 12h12v272l-9 8v1l49 56h9l3 -3v-54q10 10 26 21t34.5 20t40 15t44.5 6q62 0 112 -24.5t85.5 -70.5t54.5 -112.5t19 -150.5q0 -50 -10.5 -93t-27.5 -79.5t-38.5 -68t-44.5 -58.5
q-37 -43 -83.5 -72t-106.5 -29q-40 0 -67 7.5t-50 21.5q-5 -6 -11 -13.5t-16 -17.5zM234 359q-11 0 -43.5 0.5t-66.5 1.5v-274q26 -23 60 -36.5t76 -13.5q53 1 89 13t65 46q16 19 29.5 42.5t23.5 54t16 69.5t6 90q0 83 -16 149t-48 112.5t-79 71t-110 24.5q-37 0 -64.5 -7
t-47.5 -19v-275h41.5t40 -0.5t33 -0.5h20.5q19 0 24 2t7 2t2 -2q0 -3 -8 -17.5t-16 -25.5q-5 -3 -12 -5t-22 -2z" />
    <glyph glyph-name="Ntilde" unicode="&#xd1;" horiz-adv-x="569" 
d="M497 -10q-4 -1 -11 10l-407 639l21 -606q-5 -9 -12 -18t-14 -16.5t-12.5 -12.5t-6.5 -5q-4 0 -4 3q2 76 6 159.5t8 170t6 172t1 165.5l-33 52q1 4 4.5 9.5t9.5 14.5q6 8 13 15.5t9 7.5t6 -7l411 -652l-22 614q5 8 12 17.5t14 17.5t12.5 13.5t8.5 5.5t3 -3
q-1 -50 -3.5 -111t-5 -126.5t-5 -135t-4.5 -137t-2.5 -131.5t1.5 -120zM190 796q-1 -2 -3.5 -1t-1.5 3q8 14 15.5 30t13.5 24q7 9 17 16t26 7q11 0 25.5 -6.5t29.5 -14.5t29 -14.5t26 -6.5q18 0 26.5 8t19.5 25q1 2 4 1t1 -3q-8 -14 -17.5 -30.5t-15.5 -24.5
q-7 -9 -15.5 -14.5t-24.5 -5.5q-11 0 -25.5 6.5t-30 14t-30.5 14t-26 6.5q-17 0 -26 -9t-17 -25z" />
    <glyph glyph-name="Ograve" unicode="&#xd2;" horiz-adv-x="642" 
d="M327 33q106 0 161.5 86.5t55.5 261.5q0 73 -15 135t-45 107t-74 70.5t-102 25.5q-47 0 -85.5 -20t-66 -63t-42.5 -110.5t-15 -161.5q0 -77 17.5 -138.5t48 -104t72 -65.5t90.5 -23zM303 -14q-55 0 -101 21.5t-79.5 64t-52.5 104.5t-19 143q0 99 26 180t67.5 138.5
t93 89.5t101.5 33q57 0 103 -22.5t79 -65.5t50.5 -105t17.5 -140q0 -93 -27 -173.5t-68.5 -140t-92 -93.5t-98.5 -34zM339 808q-3 0 -4 3q-17 28 -33.5 48t-34.5 35.5t-37.5 29.5t-42.5 30q-8 4 9 18q9 8 18 12.5t12 4.5q2 0 5.5 -0.5t8.5 -8.5q24 -32 46 -69t54 -95
q2 -4 2 -5q0 -3 -3 -3z" />
    <glyph glyph-name="Oacute" unicode="&#xd3;" horiz-adv-x="642" 
d="M327 33q106 0 161.5 86.5t55.5 261.5q0 73 -15 135t-45 107t-74 70.5t-102 25.5q-47 0 -85.5 -20t-66 -63t-42.5 -110.5t-15 -161.5q0 -77 17.5 -138.5t48 -104t72 -65.5t90.5 -23zM303 -14q-55 0 -101 21.5t-79.5 64t-52.5 104.5t-19 143q0 99 26 180t67.5 138.5
t93 89.5t101.5 33q57 0 103 -22.5t79 -65.5t50.5 -105t17.5 -140q0 -93 -27 -173.5t-68.5 -140t-92 -93.5t-98.5 -34zM320 811q-5 0 -5 4q0 2 3 5q18 17 32.5 46.5t26 59t18.5 52.5t9 28q7 17 15 20q4 1 8 -8t7.5 -21t5.5 -24t1 -16t-4 -10t-7 -11q-4 -6 -14.5 -18.5
t-25 -29t-31.5 -35.5t-33 -38q-3 -4 -6 -4z" />
    <glyph glyph-name="Ocircumflex" unicode="&#xd4;" horiz-adv-x="642" 
d="M327 33q106 0 161.5 86.5t55.5 261.5q0 73 -15 135t-45 107t-74 70.5t-102 25.5q-47 0 -85.5 -20t-66 -63t-42.5 -110.5t-15 -161.5q0 -77 17.5 -138.5t48 -104t72 -65.5t90.5 -23zM303 -14q-55 0 -101 21.5t-79.5 64t-52.5 104.5t-19 143q0 99 26 180t67.5 138.5
t93 89.5t101.5 33q57 0 103 -22.5t79 -65.5t50.5 -105t17.5 -140q0 -93 -27 -173.5t-68.5 -140t-92 -93.5t-98.5 -34zM351 986q16 -32 28 -54t21 -38t15.5 -28t12.5 -23q1 -7 -11 -23q-13 -17 -18 -12q-11 19 -28.5 53t-43.5 81q-7 -11 -14.5 -26t-14.5 -31t-13.5 -32
t-12.5 -29q-6 -14 -12 -14q-4 0 -4 5t4 11q6 10 15.5 28.5t20.5 40t23 44.5t24 44q2 3 4.5 4t3.5 -1z" />
    <glyph glyph-name="Otilde" unicode="&#xd5;" horiz-adv-x="642" 
d="M327 33q106 0 161.5 86.5t55.5 261.5q0 73 -15 135t-45 107t-74 70.5t-102 25.5q-47 0 -85.5 -20t-66 -63t-42.5 -110.5t-15 -161.5q0 -77 17.5 -138.5t48 -104t72 -65.5t90.5 -23zM303 -14q-55 0 -101 21.5t-79.5 64t-52.5 104.5t-19 143q0 99 26 180t67.5 138.5
t93 89.5t101.5 33q57 0 103 -22.5t79 -65.5t50.5 -105t17.5 -140q0 -93 -27 -173.5t-68.5 -140t-92 -93.5t-98.5 -34zM240 823q-1 -2 -3.5 -1t-1.5 3q8 14 15.5 30t13.5 24q7 9 17 16t26 7q11 0 25.5 -6.5t29.5 -14.5t29 -14.5t26 -6.5q18 0 26.5 8t19.5 25q1 2 4 1t1 -3
q-8 -14 -17.5 -30.5t-15.5 -24.5q-7 -9 -15.5 -14.5t-24.5 -5.5q-11 0 -25.5 6.5t-30 14t-30.5 14t-26 6.5q-17 0 -26 -9t-17 -25z" />
    <glyph glyph-name="Odieresis" unicode="&#xd6;" horiz-adv-x="642" 
d="M327 33q106 0 161.5 86.5t55.5 261.5q0 73 -15 135t-45 107t-74 70.5t-102 25.5q-47 0 -85.5 -20t-66 -63t-42.5 -110.5t-15 -161.5q0 -77 17.5 -138.5t48 -104t72 -65.5t90.5 -23zM303 -14q-55 0 -101 21.5t-79.5 64t-52.5 104.5t-19 143q0 99 26 180t67.5 138.5
t93 89.5t101.5 33q57 0 103 -22.5t79 -65.5t50.5 -105t17.5 -140q0 -93 -27 -173.5t-68.5 -140t-92 -93.5t-98.5 -34zM393 819q-14 0 -20.5 17t-4.5 43t11 43t23 17q12 0 18 -17t4 -43q-2 -28 -9.5 -44t-21.5 -16zM290 819q-14 0 -20 17t-4 43t10.5 43t22.5 17
q12 0 18.5 -17t4.5 -43q-2 -28 -10 -44t-22 -16z" />
    <glyph glyph-name="multiply" unicode="&#xd7;" horiz-adv-x="570" 
d="M166 431q-2 2 2 13t9 18q8 10 12 13t7 3q4 0 7 -3l113 -115q17 17 30 31.5t25 29t25 29.5t30 33q5 2 5 -4q0 -3 -5.5 -14.5t-13.5 -22.5l-92 -86l117 -118q0 -4 -5.5 -13t-9.5 -14q-11 -16 -16 -16q-4 0 -8 4l-119 119q-29 -31 -53 -59.5t-59 -67.5q-2 -2 -4.5 -1t-2.5 3
q0 4 7 21.5t17 28.5q9 10 33 29t57 50z" />
    <glyph glyph-name="Oslash" unicode="&#xd8;" horiz-adv-x="642" 
d="M66 -101q-3 0 -5.5 2.5t2.5 7.5q17 23 38 55t48 79q-46 42 -72 110.5t-26 165.5q0 99 26 180t67.5 138.5t93 89.5t101.5 33q42 0 78.5 -13t66.5 -37l37 73q2 4 9.5 13t16.5 18t17 16t11 7q11 0 3 -10q-12 -23 -31.5 -54.5t-45.5 -77.5q42 -43 65 -110.5t23 -157.5
q0 -93 -27 -173.5t-68.5 -140t-92 -93.5t-98.5 -34q-80 0 -138 43q-18 -37 -29.5 -59t-12.5 -24q-2 -5 -9.5 -13t-17 -15.5t-18 -13t-12.5 -5.5zM99 364q0 -88 22 -154.5t60 -109.5q28 52 62.5 119.5t76.5 155.5q40 83 75 154.5t62 126.5q-29 30 -66 46.5t-83 16.5
q-47 0 -85.5 -20t-66 -63t-42.5 -110.5t-15 -161.5zM327 33q106 0 161.5 86.5t55.5 261.5q0 81 -19 147.5t-55 112.5q-29 -51 -63 -117t-75 -154l-138 -283q57 -54 133 -54z" />
    <glyph glyph-name="Ugrave" unicode="&#xd9;" horiz-adv-x="547" 
d="M425 698q0 7 4 13.5t24 27.5q9 10 13 13t6 3q4 0 4 -6v-34.5v-80.5v-110.5t0.5 -126t0.5 -126v-111v-82v-36.5q0 -6 -4.5 -12.5t-18.5 -23.5q-10 -11 -15 -15t-8 -4q-5 0 -5 6v113q-14 -22 -34 -42.5t-44 -36t-50.5 -25t-51.5 -9.5q-38 0 -71 12t-58 38t-39.5 67.5
t-14.5 101.5v73.5v97.5t0.5 105.5t0.5 98v74v34.5q0 7 4 14.5t24 28.5q18 19 21 19t3 -5v-521q0 -93 40 -141t115 -48q54 0 92.5 21.5t62.5 52.5q0 47 -0.5 107.5t-0.5 124v125v110.5v80v35zM290 780q-3 0 -4 3q-17 28 -33.5 48t-34.5 35.5t-37.5 29.5t-42.5 30q-8 4 9 18
q9 8 18 12.5t12 4.5q2 0 5.5 -0.5t8.5 -8.5q24 -32 46 -69t54 -95q2 -4 2 -5q0 -3 -3 -3z" />
    <glyph glyph-name="Uacute" unicode="&#xda;" horiz-adv-x="547" 
d="M425 698q0 7 4 13.5t24 27.5q9 10 13 13t6 3q4 0 4 -6v-34.5v-80.5v-110.5t0.5 -126t0.5 -126v-111v-82v-36.5q0 -6 -4.5 -12.5t-18.5 -23.5q-10 -11 -15 -15t-8 -4q-5 0 -5 6v113q-14 -22 -34 -42.5t-44 -36t-50.5 -25t-51.5 -9.5q-38 0 -71 12t-58 38t-39.5 67.5
t-14.5 101.5v73.5v97.5t0.5 105.5t0.5 98v74v34.5q0 7 4 14.5t24 28.5q18 19 21 19t3 -5v-521q0 -93 40 -141t115 -48q54 0 92.5 21.5t62.5 52.5q0 47 -0.5 107.5t-0.5 124v125v110.5v80v35zM255 777q-5 0 -5 4q0 2 3 5q18 17 32.5 46.5t26 59t18.5 52.5t9 28q7 17 15 20
q4 1 8 -8t7.5 -21t5.5 -24t1 -16t-4 -10t-7 -11q-4 -6 -14.5 -18.5t-25 -29t-31.5 -35.5t-33 -38q-3 -4 -6 -4z" />
    <glyph glyph-name="Ucircumflex" unicode="&#xdb;" horiz-adv-x="547" 
d="M425 698q0 7 4 13.5t24 27.5q9 10 13 13t6 3q4 0 4 -6v-34.5v-80.5v-110.5t0.5 -126t0.5 -126v-111v-82v-36.5q0 -6 -4.5 -12.5t-18.5 -23.5q-10 -11 -15 -15t-8 -4q-5 0 -5 6v113q-14 -22 -34 -42.5t-44 -36t-50.5 -25t-51.5 -9.5q-38 0 -71 12t-58 38t-39.5 67.5
t-14.5 101.5v73.5v97.5t0.5 105.5t0.5 98v74v34.5q0 7 4 14.5t24 28.5q18 19 21 19t3 -5v-521q0 -93 40 -141t115 -48q54 0 92.5 21.5t62.5 52.5q0 47 -0.5 107.5t-0.5 124v125v110.5v80v35zM289 972q16 -32 28 -54t21 -38t15.5 -28t12.5 -23q1 -7 -11 -23q-13 -17 -18 -12
q-11 19 -28.5 53t-43.5 81q-7 -11 -14.5 -26t-14.5 -31t-13.5 -32t-12.5 -29q-6 -14 -12 -14q-4 0 -4 5t4 11q6 10 15.5 28.5t20.5 40t23 44.5t24 44q2 3 4.5 4t3.5 -1z" />
    <glyph glyph-name="Udieresis" unicode="&#xdc;" horiz-adv-x="547" 
d="M425 698q0 7 4 13.5t24 27.5q9 10 13 13t6 3q4 0 4 -6v-34.5v-80.5v-110.5t0.5 -126t0.5 -126v-111v-82v-36.5q0 -6 -4.5 -12.5t-18.5 -23.5q-10 -11 -15 -15t-8 -4q-5 0 -5 6v113q-14 -22 -34 -42.5t-44 -36t-50.5 -25t-51.5 -9.5q-38 0 -71 12t-58 38t-39.5 67.5
t-14.5 101.5v73.5v97.5t0.5 105.5t0.5 98v74v34.5q0 7 4 14.5t24 28.5q18 19 21 19t3 -5v-521q0 -93 40 -141t115 -48q54 0 92.5 21.5t62.5 52.5q0 47 -0.5 107.5t-0.5 124v125v110.5v80v35zM333 796q-14 0 -20.5 17t-4.5 43t11 43t23 17q12 0 18 -17t4 -43q-2 -28 -9.5 -44
t-21.5 -16zM230 796q-14 0 -20 17t-4 43t10.5 43t22.5 17q12 0 18.5 -17t4.5 -43q-2 -28 -10 -44t-22 -16z" />
    <glyph glyph-name="Yacute" unicode="&#xdd;" horiz-adv-x="509" 
d="M271 44q0 -4 -4.5 -13.5t-19.5 -25.5q-7 -8 -14 -13t-11 -5t-4 4v32.5v76t0.5 104.5t0.5 118l-186 381q0 3 2.5 8.5t19.5 25.5q8 11 12 14.5t6 3.5t6 -10l189 -402q41 88 77.5 174.5t71.5 172.5q7 9 20 20.5t26.5 22t24 17.5t12.5 7q4 0 4 -4q-121 -205 -233 -416v-293z
M235 776q-5 0 -5 4q0 2 3 5q18 17 32.5 46.5t26 59t18.5 52.5t9 28q7 17 15 20q4 1 8 -8t7.5 -21t5.5 -24t1 -16t-4 -10t-7 -11q-4 -6 -14.5 -18.5t-25 -29t-31.5 -35.5t-33 -38q-3 -4 -6 -4z" />
    <glyph glyph-name="Thorn" unicode="&#xde;" horiz-adv-x="520" 
d="M75 -13q-4 0 -4 4v43.5v81v105.5t0.5 117.5t0.5 116v102.5v76v37l-15 6v3q1 1 8.5 9.5t17 19t19 20l14.5 14.5h4l2 -2v-190q10 9 25.5 20.5t36 21t44.5 16t51 6.5q51 0 89.5 -17t65 -46t39.5 -67.5t13 -81.5q0 -50 -20.5 -102t-65.5 -99q-35 -37 -74 -61t-87 -24
q-39 0 -65.5 6t-50.5 20v-90q0 -5 -1 -9.5t-5 -11.5t-12 -16t-22 -23q-2 -2 -4 -3.5t-4 -1.5zM242 575q-38 0 -68.5 -9t-51.5 -23q0 -83 0.5 -170t0.5 -163q37 -29 70.5 -42.5t81.5 -13.5q36 2 64 11t55 40q29 33 37 72t8 89q0 42 -13 80t-38 66.5t-61.5 45.5t-84.5 17z" />
    <glyph glyph-name="germandbls" unicode="&#xdf;" horiz-adv-x="486" 
d="M126 6q0 -15 -2.5 -28t-9 -26t-17.5 -28.5t-28 -35.5l-10 -12q-29 -36 -50 -47t-43 -11h-38q-11 0 1 12l18 19q13 13 19 17t15 4h22q24 0 34.5 2.5t21.5 13.5q12 12 15.5 29.5t3.5 49.5v558q2 43 18 80t50 79q25 29 53 48t66 19q23 0 43 -9.5t34.5 -25.5t23 -36.5
t8.5 -42.5q0 -26 -11.5 -47t-27 -38t-32 -30.5t-26.5 -22.5q-14 -14 -20 -28.5t-6 -27.5q0 -24 15.5 -45t39.5 -40.5t51 -39.5t51 -42t39.5 -47.5t15.5 -56.5q0 -35 -18.5 -63.5t-41.5 -52.5q-26 -26 -50.5 -42.5t-61.5 -16.5q-32 0 -59 15.5t-43 36.5q1 3 4 7.5t13 13.5
q11 10 15.5 12.5t6.5 1.5q19 -18 39 -33t53 -15q55 0 78 24q13 14 20 33.5t7 46.5q0 28 -15 51.5t-38 44.5t-49 40.5t-49 39.5t-38 41.5t-15 46.5q0 30 13.5 52.5t39.5 45.5q18 18 37 42.5t19 62.5q0 50 -28 79t-72 29q-52 0 -79 -35q-25 -34 -25 -119v-553z" />
    <glyph glyph-name="agrave" unicode="&#xe0;" horiz-adv-x="472" 
d="M415 48q0 -5 -4 -13t-18 -23q-18 -19 -23 -19t-5 5q0 14 0.5 27.5t1 30t0.5 36.5v47q-12 -16 -28 -33.5t-30 -31.5q-38 -38 -75.5 -60.5t-82.5 -22.5q-27 0 -47 8t-33.5 21.5t-20 31t-6.5 36.5q0 27 6.5 47.5t22 38.5t40.5 33.5t62 32.5q43 19 72.5 31.5t46.5 20.5
q40 20 55.5 38.5t17.5 41.5q0 18 -6.5 35t-20 30.5t-35 22t-53.5 8.5q-35 0 -58.5 -4.5t-43.5 -15.5t-28.5 -27.5t-8.5 -35.5v-64q0 -16 -26 -39q-10 -8 -14 -10.5t-6 -2.5q-4 0 -4 5v4.5t0.5 11t0.5 24.5v45q0 21 22 45.5t59 48.5q38 26 70.5 38.5t70.5 12.5
q60 0 94.5 -31.5t34.5 -76.5v-348zM304 78q15 15 34 39.5t29 56.5v151q-14 -11 -31.5 -20.5t-38.5 -19.5q-18 -8 -46.5 -20.5t-68.5 -32.5q-27 -14 -43.5 -26.5t-25.5 -25.5t-11.5 -28t-2.5 -33q0 -33 22.5 -60.5t67.5 -27.5q40 0 65.5 12t49.5 35zM243 547q-3 0 -4 3
q-17 28 -33.5 48t-34.5 35.5t-37.5 29.5t-42.5 30q-8 4 9 18q9 8 18 12.5t12 4.5q2 0 5.5 -0.5t8.5 -8.5q24 -32 46 -69t54 -95q2 -4 2 -5q0 -3 -3 -3z" />
    <glyph glyph-name="aacute" unicode="&#xe1;" horiz-adv-x="472" 
d="M415 48q0 -5 -4 -13t-18 -23q-18 -19 -23 -19t-5 5q0 14 0.5 27.5t1 30t0.5 36.5v47q-12 -16 -28 -33.5t-30 -31.5q-38 -38 -75.5 -60.5t-82.5 -22.5q-27 0 -47 8t-33.5 21.5t-20 31t-6.5 36.5q0 27 6.5 47.5t22 38.5t40.5 33.5t62 32.5q43 19 72.5 31.5t46.5 20.5
q40 20 55.5 38.5t17.5 41.5q0 18 -6.5 35t-20 30.5t-35 22t-53.5 8.5q-35 0 -58.5 -4.5t-43.5 -15.5t-28.5 -27.5t-8.5 -35.5v-64q0 -16 -26 -39q-10 -8 -14 -10.5t-6 -2.5q-4 0 -4 5v4.5t0.5 11t0.5 24.5v45q0 21 22 45.5t59 48.5q38 26 70.5 38.5t70.5 12.5
q60 0 94.5 -31.5t34.5 -76.5v-348zM304 78q15 15 34 39.5t29 56.5v151q-14 -11 -31.5 -20.5t-38.5 -19.5q-18 -8 -46.5 -20.5t-68.5 -32.5q-27 -14 -43.5 -26.5t-25.5 -25.5t-11.5 -28t-2.5 -33q0 -33 22.5 -60.5t67.5 -27.5q40 0 65.5 12t49.5 35zM196 547q-5 0 -5 4
q0 2 3 5q18 17 32.5 46.5t26 59t18.5 52.5t9 28q7 17 15 20q4 1 8 -8t7.5 -21t5.5 -24t1 -16t-4 -10t-7 -11q-4 -6 -14.5 -18.5t-25 -29t-31.5 -35.5t-33 -38q-3 -4 -6 -4z" />
    <glyph glyph-name="acircumflex" unicode="&#xe2;" horiz-adv-x="472" 
d="M415 48q0 -5 -4 -13t-18 -23q-18 -19 -23 -19t-5 5q0 14 0.5 27.5t1 30t0.5 36.5v47q-12 -16 -28 -33.5t-30 -31.5q-38 -38 -75.5 -60.5t-82.5 -22.5q-27 0 -47 8t-33.5 21.5t-20 31t-6.5 36.5q0 27 6.5 47.5t22 38.5t40.5 33.5t62 32.5q43 19 72.5 31.5t46.5 20.5
q42 21 57.5 40.5t15.5 44.5q-1 17 -7.5 33.5t-20 29t-35 20.5t-52.5 8q-35 0 -58.5 -4.5t-43.5 -15.5t-28.5 -27.5t-8.5 -35.5v-64q0 -16 -26 -39q-10 -8 -14 -10.5t-6 -2.5q-4 0 -4 5v4.5t0.5 11t0.5 24.5v45q0 21 22 45.5t59 48.5q38 26 70.5 38.5t70.5 12.5
q60 0 94.5 -31.5t34.5 -76.5v-348zM304 78q15 15 34 39.5t29 56.5v151q-14 -11 -31.5 -20.5t-38.5 -19.5q-18 -8 -46.5 -20.5t-68.5 -32.5q-27 -14 -43.5 -26.5t-25.5 -25.5t-11.5 -28t-2.5 -33q0 -33 22.5 -60.5t67.5 -27.5q40 0 65.5 12t49.5 35zM250 728q16 -32 28 -54
t21 -38t15.5 -28t12.5 -23q1 -7 -11 -23q-13 -17 -18 -12q-11 19 -28.5 53t-43.5 81q-7 -11 -14.5 -26t-14.5 -31t-13.5 -32t-12.5 -29q-6 -14 -12 -14q-4 0 -4 5t4 11q6 10 15.5 28.5t20.5 40t23 44.5t24 44q2 3 4.5 4t3.5 -1z" />
    <glyph glyph-name="atilde" unicode="&#xe3;" horiz-adv-x="472" 
d="M415 48q0 -5 -4 -13t-18 -23q-18 -19 -23 -19t-5 5q0 14 0.5 27.5t1 30t0.5 36.5v47q-12 -16 -28 -33.5t-30 -31.5q-38 -38 -75.5 -60.5t-82.5 -22.5q-27 0 -47 8t-33.5 21.5t-20 31t-6.5 36.5q0 27 6.5 47.5t22 38.5t40.5 33.5t62 32.5q43 19 72.5 31.5t46.5 20.5
q42 21 57.5 40.5t15.5 44.5q-1 17 -7.5 33.5t-20 29t-35 20.5t-52.5 8q-35 0 -58.5 -4.5t-43.5 -15.5t-28.5 -27.5t-8.5 -35.5v-64q0 -16 -26 -39q-10 -8 -14 -10.5t-6 -2.5q-4 0 -4 5v4.5t0.5 11t0.5 24.5v45q0 21 22 45.5t59 48.5q38 26 70.5 38.5t70.5 12.5
q60 0 94.5 -31.5t34.5 -76.5v-348zM304 78q15 15 34 39.5t29 56.5v151q-14 -11 -31.5 -20.5t-38.5 -19.5q-18 -8 -46.5 -20.5t-68.5 -32.5q-27 -14 -43.5 -26.5t-25.5 -25.5t-11.5 -28t-2.5 -33q0 -33 22.5 -60.5t67.5 -27.5q40 0 65.5 12t49.5 35zM141 567q-1 -2 -3.5 -1
t-1.5 3q8 14 15.5 30t13.5 24q7 9 17 16t26 7q11 0 25.5 -6.5t29.5 -14.5t29 -14.5t26 -6.5q18 0 26.5 8t19.5 25q1 2 4 1t1 -3q-8 -14 -17.5 -30.5t-15.5 -24.5q-7 -9 -15.5 -14.5t-24.5 -5.5q-11 0 -25.5 6.5t-30 14t-30.5 14t-26 6.5q-17 0 -26 -9t-17 -25z" />
    <glyph glyph-name="adieresis" unicode="&#xe4;" horiz-adv-x="472" 
d="M415 48q0 -5 -4 -13t-18 -23q-18 -19 -23 -19t-5 5q0 14 0.5 27.5t1 30t0.5 36.5v47q-12 -16 -28 -33.5t-30 -31.5q-38 -38 -75.5 -60.5t-82.5 -22.5q-27 0 -47 8t-33.5 21.5t-20 31t-6.5 36.5q0 27 6.5 47.5t22 38.5t40.5 33.5t62 32.5q43 19 72.5 31.5t46.5 20.5
q42 21 57.5 40.5t15.5 44.5q-1 17 -7.5 33.5t-20 29t-35 20.5t-52.5 8q-35 0 -58.5 -4.5t-43.5 -15.5t-28.5 -27.5t-8.5 -35.5v-64q0 -16 -26 -39q-10 -8 -14 -10.5t-6 -2.5q-4 0 -4 5v4.5t0.5 11t0.5 24.5v45q0 21 22 45.5t59 48.5q38 26 70.5 38.5t70.5 12.5
q60 0 94.5 -31.5t34.5 -76.5v-348zM304 78q15 15 34 39.5t29 56.5v151q-14 -11 -31.5 -20.5t-38.5 -19.5q-18 -8 -46.5 -20.5t-68.5 -32.5q-27 -14 -43.5 -26.5t-25.5 -25.5t-11.5 -28t-2.5 -33q0 -33 22.5 -60.5t67.5 -27.5q40 0 65.5 12t49.5 35zM284 556q-14 0 -20.5 17
t-4.5 43t11 43t23 17q12 0 18 -17t4 -43q-2 -28 -9.5 -44t-21.5 -16zM181 556q-14 0 -20 17t-4 43t10.5 43t22.5 17q12 0 18.5 -17t4.5 -43q-2 -28 -10 -44t-22 -16z" />
    <glyph glyph-name="aring" unicode="&#xe5;" horiz-adv-x="472" 
d="M415 48q0 -5 -4 -13t-18 -23q-18 -19 -23 -19t-5 5q0 14 0.5 27.5t1 30t0.5 36.5v47q-12 -16 -28 -33.5t-30 -31.5q-38 -38 -75.5 -60.5t-82.5 -22.5q-27 0 -47 8t-33.5 21.5t-20 31t-6.5 36.5q0 27 6.5 47.5t22 38.5t40.5 33.5t62 32.5q43 19 72.5 31.5t46.5 20.5
q40 20 55.5 38.5t17.5 41.5q0 18 -6.5 35t-20 30.5t-35 22t-53.5 8.5q-35 0 -58.5 -4.5t-43.5 -15.5t-28.5 -27.5t-8.5 -35.5v-64q0 -16 -26 -39q-10 -8 -14 -10.5t-6 -2.5q-4 0 -4 5v4.5t0.5 11t0.5 24.5v45q0 21 22 45.5t59 48.5q38 26 70.5 38.5t70.5 12.5
q60 0 94.5 -31.5t34.5 -76.5v-348zM304 78q15 15 34 39.5t29 56.5v151q-14 -11 -31.5 -20.5t-38.5 -19.5q-18 -8 -46.5 -20.5t-68.5 -32.5q-27 -14 -43.5 -26.5t-25.5 -25.5t-11.5 -28t-2.5 -33q0 -33 22.5 -60.5t67.5 -27.5q40 0 65.5 12t49.5 35zM232 546q-23 0 -38 7
t-24.5 18t-13.5 24t-4 25q0 26 22 49t63 23q42 0 62 -22t19 -51q0 -12 -6 -25t-17 -23.5t-27 -17.5t-36 -7zM232 553q25 0 45.5 12t20.5 33q0 23 -13.5 36.5t-48.5 13.5t-48.5 -15t-13.5 -35q0 -23 16 -34t42 -11z" />
    <glyph glyph-name="ae" unicode="&#xe6;" horiz-adv-x="802" 
d="M309 74q-38 -38 -75.5 -60.5t-82.5 -22.5q-27 0 -47 8t-33.5 21.5t-20 31t-6.5 36.5q0 27 6.5 47.5t22 38.5t40.5 33.5t62 32.5q43 19 72.5 31.5t46.5 20.5q42 21 57.5 40.5t15.5 44.5q0 16 -6 32.5t-19.5 29.5t-35.5 21t-54 8q-35 0 -58.5 -4.5t-43.5 -15.5t-28.5 -27.5
t-8.5 -35.5v-64q0 -16 -26 -39q-10 -8 -14 -10.5t-6 -2.5q-4 0 -4 5v4.5t0.5 11t0.5 24.5v45q0 21 22 45.5t59 48.5q38 26 70.5 38.5t70.5 12.5q60 0 95.5 -28t35.5 -73v-5l12 16q30 38 74 64t94 26q38 0 68.5 -12.5t52.5 -34t35.5 -49.5t17.5 -59q0 -1 -10 -12.5t-23 -26.5
t-25.5 -29.5t-18.5 -21.5q-12 -7 -45 -7h-135q-18 0 -34.5 -2.5t-28.5 -7.5t-19 -13t-15 -19q-3 -4 -6.5 -8.5t-6.5 -10.5q16 -75 65.5 -116.5t128.5 -41.5q48 0 80.5 18t58.5 48q7 8 14 18t15 21l5 -4q-7 -11 -14 -21.5t-14 -18.5q-30 -39 -75.5 -69.5t-106.5 -30.5
q-41 0 -74 10.5t-58 29.5t-42 44t-26 54q-12 -14 -26 -29.5t-26 -28.5zM297 285q-18 -8 -46.5 -20.5t-68.5 -32.5q-27 -14 -43.5 -26.5t-25.5 -25.5t-11.5 -28t-2.5 -33q0 -33 22.5 -60.5t67.5 -27.5q40 0 65.5 12t49.5 35q11 11 26 28t28 35q-5 17 -7.5 35.5t-2.5 36.5
q0 65 26 117q-15 -12 -34.5 -23t-42.5 -22zM410 213q11 17 22 34.5t25 27.5q20 15 41.5 20t59.5 5h39t39.5 -0.5t33 -0.5h20.5q18 0 27 4t10 6q-8 73 -52.5 115t-114.5 42q-44 0 -74 -15t-51 -41q-20 -25 -28.5 -59t-8.5 -93q0 -15 1 -29t3 -27z" />
    <glyph glyph-name="ccedilla" unicode="&#xe7;" horiz-adv-x="461" 
d="M236 -265q-32 0 -46.5 12t-14.5 29q0 20 15 42.5t35 37.5l2 -3q-14 -15 -14 -37q0 -17 16 -28t45 -11q34 0 50.5 20t16.5 49q0 32 -24.5 45t-66.5 13q-19 0 -34.5 -3.5t-27 -7.5t-18.5 -7.5t-9 -3.5q-4 0 -5 2.5t3 5.5q32 26 54 53t36 51q-50 0 -88 17.5t-63.5 47
t-38 68.5t-12.5 82q0 36 6 64.5t17 53t25 46t31 42.5q29 38 71 63.5t90 25.5q22 0 39 -3t32 -9.5t29.5 -16.5t31.5 -25q2 -2 -1.5 -6.5t-15.5 -16.5q-14 -13 -18.5 -16.5t-6.5 -1.5q-32 31 -59 44.5t-67 13.5q-43 0 -71 -15.5t-48 -41.5q-19 -25 -27.5 -60.5t-8.5 -95.5
q0 -105 50.5 -163t133.5 -58q48 0 80 19t58 49q7 8 14 17t15 20l5 -4q-7 -11 -14 -20.5t-14 -17.5q-29 -38 -69 -67.5t-94 -33.5q-14 -17 -27 -33.5t-21 -29.5q-3 -3 -0.5 -4t5.5 1q8 5 28.5 11.5t41.5 6.5q38 1 60 -17.5t22 -46.5q0 -20 -12 -45.5t-31.5 -48t-43.5 -38.5
t-47 -16z" />
    <glyph glyph-name="egrave" unicode="&#xe8;" horiz-adv-x="498" 
d="M294 33q48 0 80.5 18t58.5 48q7 8 14 18t15 21l5 -4q-7 -11 -14 -21.5t-14 -18.5q-30 -39 -75.5 -69.5t-106.5 -30.5q-55 0 -95 19t-66.5 49.5t-39 70t-12.5 80.5q0 63 22.5 109.5t58.5 91.5q30 38 74 64t94 26q38 0 68.5 -12.5t52.5 -34t35.5 -49.5t17.5 -59
q0 -1 -10 -12.5t-23 -26.5t-25.5 -29.5t-18.5 -21.5q-12 -7 -45 -7h-132q-18 0 -34.5 -2.5t-28.5 -7.5q-23 -10 -34 -32q-5 -11 -8 -25.5t5 -36.5q22 -55 68 -85t113 -30zM109 213q8 17 20.5 34.5t26.5 27.5q20 15 41.5 20t59.5 5h38.5t38.5 -0.5t32 -0.5h20q18 0 27 4t10 6
q-8 73 -52.5 115t-114.5 42q-44 0 -74 -15t-51 -41q-20 -25 -28.5 -59t-8.5 -93q0 -20 1.5 -39.5t6.5 -36.5q1 20 7 31zM308 555q-3 0 -4 3q-17 28 -33.5 48t-34.5 35.5t-37.5 29.5t-42.5 30q-8 4 9 18q9 8 18 12.5t12 4.5q2 0 5.5 -0.5t8.5 -8.5q24 -32 46 -69t54 -95
q2 -4 2 -5q0 -3 -3 -3z" />
    <glyph glyph-name="eacute" unicode="&#xe9;" horiz-adv-x="498" 
d="M294 33q48 0 80.5 18t58.5 48q7 8 14 18t15 21l5 -4q-7 -11 -14 -21.5t-14 -18.5q-30 -39 -75.5 -69.5t-106.5 -30.5q-55 0 -95 19t-66.5 49.5t-39 70t-12.5 80.5q0 63 22.5 109.5t58.5 91.5q30 38 74 64t94 26q38 0 68.5 -12.5t52.5 -34t35.5 -49.5t17.5 -59
q0 -1 -10 -12.5t-23 -26.5t-25.5 -29.5t-18.5 -21.5q-12 -7 -45 -7h-132q-18 0 -34.5 -2.5t-28.5 -7.5q-23 -10 -34 -32q-5 -11 -8 -25.5t5 -36.5q22 -55 68 -85t113 -30zM109 213q8 17 20.5 34.5t26.5 27.5q20 15 41.5 20t59.5 5h38.5t38.5 -0.5t32 -0.5h20q18 0 27 4t10 6
q-8 73 -52.5 115t-114.5 42q-44 0 -74 -15t-51 -41q-20 -25 -28.5 -59t-8.5 -93q0 -20 1.5 -39.5t6.5 -36.5q1 20 7 31zM253 554q-5 0 -5 4q0 2 3 5q18 17 32.5 46.5t26 59t18.5 52.5t9 28q7 17 15 20q4 1 8 -8t7.5 -21t5.5 -24t1 -16t-4 -10t-7 -11q-4 -6 -14.5 -18.5
t-25 -29t-31.5 -35.5t-33 -38q-3 -4 -6 -4z" />
    <glyph glyph-name="ecircumflex" unicode="&#xea;" horiz-adv-x="498" 
d="M294 33q48 0 80.5 18t58.5 48q7 8 14 18t15 21l5 -4q-7 -11 -14 -21.5t-14 -18.5q-30 -39 -75.5 -69.5t-106.5 -30.5q-55 0 -95 19t-66.5 49.5t-39 70t-12.5 80.5q0 63 22.5 109.5t58.5 91.5q30 38 74 64t94 26q38 0 68.5 -12.5t52.5 -34t35.5 -49.5t17.5 -59
q0 -1 -10 -12.5t-23 -26.5t-25.5 -29.5t-18.5 -21.5q-12 -7 -45 -7h-132q-18 0 -34.5 -2.5t-28.5 -7.5q-23 -10 -34 -32q-5 -11 -8 -25.5t5 -36.5q22 -55 68 -85t113 -30zM109 213q8 17 20.5 34.5t26.5 27.5q20 15 41.5 20t59.5 5h38.5t38.5 -0.5t32 -0.5h20q18 0 27 4t10 6
q-8 73 -52.5 115t-114.5 42q-44 0 -74 -15t-51 -41q-20 -25 -28.5 -59t-8.5 -93q0 -20 1.5 -39.5t6.5 -36.5q1 20 7 31zM284 716q16 -32 28 -54t21 -38t15.5 -28t12.5 -23q1 -7 -11 -23q-13 -17 -18 -12q-11 19 -28.5 53t-43.5 81q-7 -11 -14.5 -26t-14.5 -31t-13.5 -32
t-12.5 -29q-6 -14 -12 -14q-4 0 -4 5t4 11q6 10 15.5 28.5t20.5 40t23 44.5t24 44q2 3 4.5 4t3.5 -1z" />
    <glyph glyph-name="edieresis" unicode="&#xeb;" horiz-adv-x="498" 
d="M294 33q48 0 80.5 18t58.5 48q7 8 14 18t15 21l5 -4q-7 -11 -14 -21.5t-14 -18.5q-30 -39 -75.5 -69.5t-106.5 -30.5q-55 0 -95 19t-66.5 49.5t-39 70t-12.5 80.5q0 63 22.5 109.5t58.5 91.5q30 38 74 64t94 26q38 0 68.5 -12.5t52.5 -34t35.5 -49.5t17.5 -59
q0 -1 -10 -12.5t-23 -26.5t-25.5 -29.5t-18.5 -21.5q-12 -7 -45 -7h-132q-18 0 -34.5 -2.5t-28.5 -7.5q-23 -10 -34 -32q-5 -11 -8 -25.5t5 -36.5q22 -55 68 -85t113 -30zM109 213q8 17 20.5 34.5t26.5 27.5q20 15 41.5 20t59.5 5h38.5t38.5 -0.5t32 -0.5h20q18 0 27 4t10 6
q-8 73 -52.5 115t-114.5 42q-44 0 -74 -15t-51 -41q-20 -25 -28.5 -59t-8.5 -93q0 -20 1.5 -39.5t6.5 -36.5q1 20 7 31zM342 560q-14 0 -20.5 17t-4.5 43t11 43t23 17q12 0 18 -17t4 -43q-2 -28 -9.5 -44t-21.5 -16zM239 560q-14 0 -20 17t-4 43t10.5 43t22.5 17
q12 0 18.5 -17t4.5 -43q-2 -28 -10 -44t-22 -16z" />
    <glyph glyph-name="igrave" unicode="&#xec;" horiz-adv-x="178" 
d="M114 48q0 -5 -4.5 -13t-18.5 -23q-17 -18 -21 -18q-5 0 -5 5l-1 446q0 8 4 15t18 22t18.5 18.5t6.5 3.5q3 0 3 -7v-449zM95 566q-3 0 -4 3q-17 28 -33.5 48t-34.5 35.5t-37.5 29.5t-42.5 30q-8 4 9 18q9 8 18 12.5t12 4.5q2 0 5.5 -0.5t8.5 -8.5q24 -32 46 -69t54 -95
q2 -4 2 -5q0 -3 -3 -3z" />
    <glyph glyph-name="iacute" unicode="&#xed;" horiz-adv-x="178" 
d="M114 48q0 -5 -4.5 -13t-18.5 -23q-17 -18 -21 -18q-5 0 -5 5l-1 446q0 8 4 15t18 22t18.5 18.5t6.5 3.5q3 0 3 -7v-449zM79 562q-5 0 -5 4q0 2 3 5q18 17 32.5 46.5t26 59t18.5 52.5t9 28q7 17 15 20q4 1 8 -8t7.5 -21t5.5 -24t1 -16t-4 -10t-7 -11q-4 -6 -14.5 -18.5
t-25 -29t-31.5 -35.5t-33 -38q-3 -4 -6 -4z" />
    <glyph glyph-name="icircumflex" unicode="&#xee;" horiz-adv-x="178" 
d="M114 48q0 -5 -4.5 -13t-18.5 -23q-17 -18 -21 -18q-5 0 -5 5l-1 446q0 8 4 15t18 22t18.5 18.5t6.5 3.5q3 0 3 -7v-449zM112 713q16 -32 28 -54t21 -38t15.5 -28t12.5 -23q1 -7 -11 -23q-13 -17 -18 -12q-11 19 -28.5 53t-43.5 81q-7 -11 -14.5 -26t-14.5 -31t-13.5 -32
t-12.5 -29q-6 -14 -12 -14q-4 0 -4 5t4 11q6 10 15.5 28.5t20.5 40t23 44.5t24 44q2 3 4.5 4t3.5 -1z" />
    <glyph glyph-name="idieresis" unicode="&#xef;" horiz-adv-x="178" 
d="M114 48q0 -5 -4.5 -13t-18.5 -23q-17 -18 -21 -18q-5 0 -5 5l-1 446q0 8 4 15t18 22t18.5 18.5t6.5 3.5q3 0 3 -7v-449zM147 547q-14 0 -20.5 17t-4.5 43t11 43t23 17q12 0 18 -17t4 -43q-2 -28 -9.5 -44t-21.5 -16zM44 547q-14 0 -20 17t-4 43t10.5 43t22.5 17
q12 0 18.5 -17t4.5 -43q-2 -28 -10 -44t-22 -16z" />
    <glyph glyph-name="eth" unicode="&#xf0;" horiz-adv-x="527" 
d="M278 619q-4 0 0 2q11 8 30 26.5t52 54.5q-57 66 -146 66q-31 0 -58.5 -11.5t-56.5 -47.5l-6 3q32 38 73.5 61.5t86.5 23.5q85 0 141 -58q26 29 43 48.5t17 21.5q2 2 12.5 5.5t11.5 3.5q2 0 1 -3q-10 -10 -29 -28t-51 -54q84 -96 84 -332q0 -60 -6 -105t-17 -81
t-26.5 -65.5t-35.5 -58.5q-31 -43 -70 -70t-94 -27q-41 0 -75.5 14.5t-60 43t-40 70t-14.5 95.5t22 103t56 94q31 42 72 66t89 24q53 0 96 -28.5t63 -87.5q-5 212 -77 307l-60 -70q-2 -2 -14 -4.5t-13 -1.5zM250 467q-42 0 -70.5 -13.5t-50.5 -44.5q-21 -29 -28 -70t-7 -90
q0 -101 47 -158.5t124 -57.5q23 0 41 3t33 10.5t27.5 19t25.5 28.5q20 32 30.5 70t15.5 95l-1 -6q-7 103 -58 158.5t-129 55.5z" />
    <glyph glyph-name="ntilde" unicode="&#xf1;" horiz-adv-x="484" 
d="M427 48q0 -5 -5 -13t-19 -23q-18 -19 -23 -19t-5 5v24.5t0.5 56.5t0.5 98v149q0 38 -10.5 64.5t-28.5 43.5t-42.5 25t-51.5 8q-66 0 -102 -38q-18 -18 -30 -42v-340q0 -5 -5 -13t-19 -23q-17 -18 -22 -18q-4 0 -4 5v447q0 8 4 14.5t21 25.5q10 11 14.5 15t6.5 4q4 0 4 -3
v-96q12 15 24 27q26 26 61.5 49t77.5 23q31 0 59 -8.5t49 -28.5t33 -53t12 -81v-285zM146 589q-1 -2 -3.5 -1t-1.5 3q8 14 15.5 30t13.5 24q7 9 17 16t26 7q11 0 25.5 -6.5t29.5 -14.5t29 -14.5t26 -6.5q18 0 26.5 8t19.5 25q1 2 4 1t1 -3q-8 -14 -17.5 -30.5t-15.5 -24.5
q-7 -9 -15.5 -14.5t-24.5 -5.5q-11 0 -25.5 6.5t-30 14t-30.5 14t-26 6.5q-17 0 -26 -9t-17 -25z" />
    <glyph glyph-name="ograve" unicode="&#xf2;" horiz-adv-x="519" 
d="M280 33q37 0 67.5 17t47.5 42q23 33 31 72.5t8 84.5q0 54 -14 94.5t-38.5 67.5t-57 40.5t-68.5 13.5q-41 0 -71 -15t-53 -46t-29.5 -64.5t-6.5 -81.5q0 -54 14.5 -95.5t40 -70.5t58.5 -44t71 -15zM247 -6q-44 0 -81 16t-63.5 45.5t-41.5 71t-15 93.5q0 54 24.5 100
t55.5 88q29 39 73 67.5t91 28.5q42 0 77.5 -14.5t61.5 -43t40.5 -69.5t14.5 -95t-25.5 -103t-57.5 -92q-13 -18 -30.5 -34.5t-38 -29.5t-42.5 -21t-43 -8zM279 560q-3 0 -4 3q-17 28 -33.5 48t-34.5 35.5t-37.5 29.5t-42.5 30q-8 4 9 18q9 8 18 12.5t12 4.5q2 0 5.5 -0.5
t8.5 -8.5q24 -32 46 -69t54 -95q2 -4 2 -5q0 -3 -3 -3z" />
    <glyph glyph-name="oacute" unicode="&#xf3;" horiz-adv-x="519" 
d="M280 33q37 0 67.5 17t47.5 42q23 33 31 72.5t8 84.5q0 54 -14 94.5t-38.5 67.5t-57 40.5t-68.5 13.5q-41 0 -71 -15t-53 -46t-29.5 -64.5t-6.5 -81.5q0 -54 14.5 -95.5t40 -70.5t58.5 -44t71 -15zM247 -6q-44 0 -81 16t-63.5 45.5t-41.5 71t-15 93.5q0 54 24.5 100
t55.5 88q29 39 73 67.5t91 28.5q42 0 77.5 -14.5t61.5 -43t40.5 -69.5t14.5 -95t-25.5 -103t-57.5 -92q-13 -18 -30.5 -34.5t-38 -29.5t-42.5 -21t-43 -8zM248 559q-5 0 -5 4q0 2 3 5q18 17 32.5 46.5t26 59t18.5 52.5t9 28q7 17 15 20q4 1 8 -8t7.5 -21t5.5 -24t1 -16
t-4 -10t-7 -11q-4 -6 -14.5 -18.5t-25 -29t-31.5 -35.5t-33 -38q-3 -4 -6 -4z" />
    <glyph glyph-name="ocircumflex" unicode="&#xf4;" horiz-adv-x="519" 
d="M280 33q37 0 67.5 17t47.5 42q23 33 31 72.5t8 84.5q0 54 -14 94.5t-38.5 67.5t-57 40.5t-68.5 13.5q-41 0 -71 -15t-53 -46t-29.5 -64.5t-6.5 -81.5q0 -54 14.5 -95.5t40 -70.5t58.5 -44t71 -15zM247 -6q-44 0 -81 16t-63.5 45.5t-41.5 71t-15 93.5q0 54 24.5 100
t55.5 88q29 39 73 67.5t91 28.5q42 0 77.5 -14.5t61.5 -43t40.5 -69.5t14.5 -95t-25.5 -103t-57.5 -92q-13 -18 -30.5 -34.5t-38 -29.5t-42.5 -21t-43 -8zM274 733q16 -32 28 -54t21 -38t15.5 -28t12.5 -23q1 -7 -11 -23q-13 -17 -18 -12q-11 19 -28.5 53t-43.5 81
q-7 -11 -14.5 -26t-14.5 -31t-13.5 -32t-12.5 -29q-6 -14 -12 -14q-4 0 -4 5t4 11q6 10 15.5 28.5t20.5 40t23 44.5t24 44q2 3 4.5 4t3.5 -1z" />
    <glyph glyph-name="otilde" unicode="&#xf5;" horiz-adv-x="519" 
d="M280 33q37 0 67.5 17t47.5 42q23 33 31 72.5t8 84.5q0 54 -14 94.5t-38.5 67.5t-57 40.5t-68.5 13.5q-41 0 -71 -15t-53 -46t-29.5 -64.5t-6.5 -81.5q0 -54 14.5 -95.5t40 -70.5t58.5 -44t71 -15zM247 -6q-44 0 -81 16t-63.5 45.5t-41.5 71t-15 93.5q0 54 24.5 100
t55.5 88q29 39 73 67.5t91 28.5q42 0 77.5 -14.5t61.5 -43t40.5 -69.5t14.5 -95t-25.5 -103t-57.5 -92q-13 -18 -30.5 -34.5t-38 -29.5t-42.5 -21t-43 -8zM183 568q-1 -2 -3.5 -1t-1.5 3q8 14 15.5 30t13.5 24q7 9 17 16t26 7q11 0 25.5 -6.5t29.5 -14.5t29 -14.5t26 -6.5
q18 0 26.5 8t19.5 25q1 2 4 1t1 -3q-8 -14 -17.5 -30.5t-15.5 -24.5q-7 -9 -15.5 -14.5t-24.5 -5.5q-11 0 -25.5 6.5t-30 14t-30.5 14t-26 6.5q-17 0 -26 -9t-17 -25z" />
    <glyph glyph-name="odieresis" unicode="&#xf6;" horiz-adv-x="519" 
d="M280 33q37 0 67.5 17t47.5 42q23 33 31 72.5t8 84.5q0 54 -14 94.5t-38.5 67.5t-57 40.5t-68.5 13.5q-41 0 -71 -15t-53 -46t-29.5 -64.5t-6.5 -81.5q0 -54 14.5 -95.5t40 -70.5t58.5 -44t71 -15zM247 -6q-44 0 -81 16t-63.5 45.5t-41.5 71t-15 93.5q0 54 24.5 100
t55.5 88q29 39 73 67.5t91 28.5q42 0 77.5 -14.5t61.5 -43t40.5 -69.5t14.5 -95t-25.5 -103t-57.5 -92q-13 -18 -30.5 -34.5t-38 -29.5t-42.5 -21t-43 -8zM321 560q-14 0 -20.5 17t-4.5 43t11 43t23 17q12 0 18 -17t4 -43q-2 -28 -9.5 -44t-21.5 -16zM218 560q-14 0 -20 17
t-4 43t10.5 43t22.5 17q12 0 18.5 -17t4.5 -43q-2 -28 -10 -44t-22 -16z" />
    <glyph glyph-name="divide" unicode="&#xf7;" horiz-adv-x="570" 
d="M418 367q19 0 24 2t7 2t2 -2t-2 -7t-5.5 -12t-8 -14t-8.5 -13q-5 -3 -12 -5t-22 -2q-17 0 -48.5 0.5t-65.5 1t-65.5 1t-47.5 0.5q-19 0 -24 -2t-7 -2t-2 2q0 1 2 6.5t5.5 12.5t8 14t8.5 13q5 3 12 5t22 2q11 0 41.5 -0.5t66 -1t69 -1t50.5 -0.5zM267 466q2 23 10.5 36.5
t22.5 13.5q12 0 18.5 -13.5t4.5 -36.5q-2 -22 -10 -35t-22 -13q-13 0 -19 13.5t-5 34.5zM262 213q2 23 10.5 36.5t22.5 13.5q12 0 18.5 -13.5t4.5 -36.5q-2 -22 -10 -35t-22 -13q-13 0 -19 13.5t-5 34.5z" />
    <glyph glyph-name="oslash" unicode="&#xf8;" horiz-adv-x="519" 
d="M247 -6q-63 0 -108 30q-31 -49 -49.5 -79t-20.5 -32q-2 -4 -10 -9.5t-17.5 -11t-18 -9t-11.5 -3.5t-5 2t2 6q20 23 48 57t67 89q-37 29 -57.5 76t-20.5 110q0 54 24.5 100t55.5 88q29 39 73 67.5t91 28.5q66 0 115 -37l64 103q2 3 9 10t14.5 13.5t14.5 11.5t10 5
q9 0 3 -8q-16 -23 -41 -56t-63 -87q32 -29 50 -73t18 -104q0 -54 -25.5 -103t-57.5 -92q-13 -18 -30.5 -34.5t-38 -29.5t-42.5 -21t-43 -8zM268 251q29 47 56 88.5t50 78.5q-23 23 -53.5 35t-64.5 12q-41 0 -71 -15t-53 -46t-29.5 -64.5t-6.5 -81.5q0 -58 16.5 -102
t45.5 -73q23 35 50.5 76t59.5 92zM280 33q37 0 67.5 17t47.5 42q23 33 31 72.5t8 84.5q0 54 -14 93.5t-38 66.5q-23 -33 -49 -73.5t-56 -89.5l-108 -173q48 -40 111 -40z" />
    <glyph glyph-name="ugrave" unicode="&#xf9;" horiz-adv-x="465" 
d="M57 448q0 5 4.5 13t18.5 23q18 19 23 19t5 -5v-24t-0.5 -55t-0.5 -96.5v-148.5q0 -76 34 -108.5t89 -32.5q34 0 55.5 9.5t39.5 28.5q17 17 30 43v335q0 5 4.5 13t18.5 23q17 18 22 18t5 -5v-453q0 -8 -4.5 -14.5t-21.5 -25.5q-10 -11 -14 -15t-6 -4q-4 0 -4 3v107
l-24 -28q-13 -13 -27 -26.5t-30.5 -24t-35 -17t-39.5 -6.5q-31 0 -57 9t-45 29t-29.5 53.5t-10.5 81.5v281zM246 530q-3 0 -4 3q-17 28 -33.5 48t-34.5 35.5t-37.5 29.5t-42.5 30q-8 4 9 18q9 8 18 12.5t12 4.5q2 0 5.5 -0.5t8.5 -8.5q24 -32 46 -69t54 -95q2 -4 2 -5
q0 -3 -3 -3z" />
    <glyph glyph-name="uacute" unicode="&#xfa;" horiz-adv-x="465" 
d="M57 448q0 5 4.5 13t18.5 23q18 19 23 19t5 -5v-24t-0.5 -55t-0.5 -96.5v-148.5q0 -76 34 -108.5t89 -32.5q34 0 55.5 9.5t39.5 28.5q17 17 30 43v335q0 5 4.5 13t18.5 23q17 18 22 18t5 -5v-453q0 -8 -4.5 -14.5t-21.5 -25.5q-10 -11 -14 -15t-6 -4q-4 0 -4 3v107
l-24 -28q-13 -13 -27 -26.5t-30.5 -24t-35 -17t-39.5 -6.5q-31 0 -57 9t-45 29t-29.5 53.5t-10.5 81.5v281zM221 531q-5 0 -5 4q0 2 3 5q18 17 32.5 46.5t26 59t18.5 52.5t9 28q7 17 15 20q4 1 8 -8t7.5 -21t5.5 -24t1 -16t-4 -10t-7 -11q-4 -6 -14.5 -18.5t-25 -29
t-31.5 -35.5t-33 -38q-3 -4 -6 -4z" />
    <glyph glyph-name="ucircumflex" unicode="&#xfb;" horiz-adv-x="465" 
d="M57 448q0 5 4.5 13t18.5 23q18 19 23 19t5 -5v-24t-0.5 -55t-0.5 -96.5v-148.5q0 -76 34 -108.5t89 -32.5q34 0 55.5 9.5t39.5 28.5q17 17 30 43v335q0 5 4.5 13t18.5 23q17 18 22 18t5 -5v-453q0 -8 -4.5 -14.5t-21.5 -25.5q-10 -11 -14 -15t-6 -4q-4 0 -4 3v107
l-24 -28q-13 -13 -27 -26.5t-30.5 -24t-35 -17t-39.5 -6.5q-31 0 -57 9t-45 29t-29.5 53.5t-10.5 81.5v281zM245 724q16 -32 28 -54t21 -38t15.5 -28t12.5 -23q1 -7 -11 -23q-13 -17 -18 -12q-11 19 -28.5 53t-43.5 81q-7 -11 -14.5 -26t-14.5 -31t-13.5 -32t-12.5 -29
q-6 -14 -12 -14q-4 0 -4 5t4 11q6 10 15.5 28.5t20.5 40t23 44.5t24 44q2 3 4.5 4t3.5 -1z" />
    <glyph glyph-name="udieresis" unicode="&#xfc;" horiz-adv-x="465" 
d="M57 448q0 5 4.5 13t18.5 23q18 19 23 19t5 -5v-24t-0.5 -55t-0.5 -96.5v-148.5q0 -76 34 -108.5t89 -32.5q34 0 55.5 9.5t39.5 28.5q17 17 30 43v335q0 5 4.5 13t18.5 23q17 18 22 18t5 -5v-453q0 -8 -4.5 -14.5t-21.5 -25.5q-10 -11 -14 -15t-6 -4q-4 0 -4 3v107
l-24 -28q-13 -13 -27 -26.5t-30.5 -24t-35 -17t-39.5 -6.5q-31 0 -57 9t-45 29t-29.5 53.5t-10.5 81.5v281zM293 546q-14 0 -20.5 17t-4.5 43t11 43t23 17q12 0 18 -17t4 -43q-2 -28 -9.5 -44t-21.5 -16zM190 546q-14 0 -20 17t-4 43t10.5 43t22.5 17q12 0 18.5 -17t4.5 -43
q-2 -28 -10 -44t-22 -16z" />
    <glyph glyph-name="yacute" unicode="&#xfd;" horiz-adv-x="468" 
d="M57 448q0 5 5 13t19 23q18 20 23 20t5 -5v-311q0 -76 31 -108.5t86 -32.5q36 0 57 8t43 28l31 28v338q0 5 5 13t19 23q17 18 22 18q4 0 4 -5v-513q0 -30 -5.5 -55.5t-15.5 -48t-25.5 -44t-34.5 -43.5q-32 -37 -68.5 -58.5t-85.5 -21.5q-51 0 -86.5 25.5t-35.5 74.5
q0 24 16 48.5t43 50t62 52t73 53.5q-25 -10 -49 -10q-31 0 -56.5 9t-43.5 29t-28 53.5t-10 81.5v267zM96 -151q0 -45 31 -68t76 -23q44 0 71 8.5t47 31.5q21 23 29 50.5t8 63.5l-1 191l-25 -23q-13 -12 -27 -24t-31 -23q-41 -30 -74 -55t-56 -47t-35.5 -42t-12.5 -40z
M223 525q-5 0 -5 4q0 2 3 5q18 17 32.5 46.5t26 59t18.5 52.5t9 28q7 17 15 20q4 1 8 -8t7.5 -21t5.5 -24t1 -16t-4 -10t-7 -11q-4 -6 -14.5 -18.5t-25 -29t-31.5 -35.5t-33 -38q-3 -4 -6 -4z" />
    <glyph glyph-name="thorn" unicode="&#xfe;" horiz-adv-x="518" 
d="M70 719q0 8 3.5 14.5t20.5 25.5q10 11 14.5 15t6.5 4q4 0 4 -3l-1 -379q8 10 15.5 19t15.5 17q26 26 62 49t78 23q40 0 74 -15t59 -44t38.5 -70.5t13.5 -95.5t-22.5 -102.5t-57.5 -92.5q-32 -40 -71.5 -65t-87.5 -25q-39 0 -67.5 9.5t-50.5 26.5v-215q0 -5 -4 -12.5
t-18 -22.5q-16 -19 -22 -19q-5 0 -5 5zM269 33q42 0 68.5 13t49.5 43q23 29 30 69t7 89q0 101 -44.5 160.5t-121.5 59.5q-67 0 -103 -38q-25 -25 -37 -58l-1 -268q28 -31 64 -50.5t88 -19.5z" />
    <glyph glyph-name="ydieresis" unicode="&#xff;" horiz-adv-x="468" 
d="M57 448q0 5 5 13t19 23q18 20 23 20t5 -5v-311q0 -76 31 -108.5t86 -32.5q36 0 57 8t43 28l31 28v338q0 5 5 13t19 23q17 18 22 18q4 0 4 -5v-513q0 -30 -5.5 -55.5t-15.5 -48t-25.5 -44t-34.5 -43.5q-32 -37 -68.5 -58.5t-85.5 -21.5q-51 0 -86.5 25.5t-35.5 74.5
q0 24 16 48.5t43 50t62 52t73 53.5q-25 -10 -49 -10q-31 0 -56.5 9t-43.5 29t-28 53.5t-10 81.5v267zM96 -151q0 -45 31 -68t76 -23q44 0 71 8.5t47 31.5q21 23 29 50.5t8 63.5l-1 191l-25 -23q-13 -12 -27 -24t-31 -23q-41 -30 -74 -55t-56 -47t-35.5 -42t-12.5 -40z
M297 551q-14 0 -20.5 17t-4.5 43t11 43t23 17q12 0 18 -17t4 -43q-2 -28 -9.5 -44t-21.5 -16zM194 551q-14 0 -20 17t-4 43t10.5 43t22.5 17q12 0 18.5 -17t4.5 -43q-2 -28 -10 -44t-22 -16z" />
    <glyph glyph-name="Amacron" unicode="&#x100;" horiz-adv-x="549" 
d="M226 709q-1 2 -0.5 6.5t3.5 7.5q18 23 24.5 29.5t8.5 6.5t4 -5l255 -715q1 -4 -3 -9.5t-15 -19.5q-13 -16 -18 -16q-3 0 -6 9l-120 333q-2 -5 -7 -16.5t-13 -22.5q-5 -3 -13 -4.5t-25 -1.5q-44 0 -67 -0.5t-34.5 -0.5h-15h-8.5q-14 0 -20.5 -1t-9.5 -2l-72 -238
q-9 -12 -20 -23.5t-21 -20.5t-17.5 -14t-8.5 -5q-5 -1 -5 2q63 155 126 323.5t120 334.5zM160 329q5 3 12.5 5t24.5 2q6 0 24 0.5t39 0.5h39h23q22 0 28 2t8 2l-106 294l-93 -307zM328 812q-9 0 -28.5 0.5t-40.5 1t-40.5 1t-29.5 0.5q-13 0 -21 -1t-10 -1t-2 2q0 3 7 14
t15 21q9 12 26 12q13 0 34.5 -0.5t44 -0.5t42 -0.5t28.5 -0.5q19 0 24 2t7 2t2 -2q0 -3 -8 -17.5t-16 -25.5q-5 -3 -12 -5t-22 -2z" />
    <glyph glyph-name="amacron" unicode="&#x101;" horiz-adv-x="472" 
d="M415 48q0 -5 -4 -13t-18 -23q-18 -19 -23 -19t-5 5q0 14 0.5 27.5t1 30t0.5 36.5v47q-12 -16 -28 -33.5t-30 -31.5q-38 -38 -75.5 -60.5t-82.5 -22.5q-27 0 -47 8t-33.5 21.5t-20 31t-6.5 36.5q0 27 6.5 47.5t22 38.5t40.5 33.5t62 32.5q43 19 72.5 31.5t46.5 20.5
q42 21 57.5 40.5t15.5 44.5q-1 17 -7.5 33.5t-20 29t-35 20.5t-52.5 8q-35 0 -58.5 -4.5t-43.5 -15.5t-28.5 -27.5t-8.5 -35.5v-64q0 -16 -26 -39q-10 -8 -14 -10.5t-6 -2.5q-4 0 -4 5v4.5t0.5 11t0.5 24.5v45q0 21 22 45.5t59 48.5q38 26 70.5 38.5t70.5 12.5
q60 0 94.5 -31.5t34.5 -76.5v-348zM304 78q15 15 34 39.5t29 56.5v151q-14 -11 -31.5 -20.5t-38.5 -19.5q-18 -8 -46.5 -20.5t-68.5 -32.5q-27 -14 -43.5 -26.5t-25.5 -25.5t-11.5 -28t-2.5 -33q0 -33 22.5 -60.5t67.5 -27.5q40 0 65.5 12t49.5 35zM319 574q-9 0 -28.5 0.5
t-40.5 1t-40.5 1t-29.5 0.5q-13 0 -21 -1t-10 -1t-2 2q0 3 7 14t15 21q9 12 26 12q13 0 34.5 -0.5t44 -0.5t42 -0.5t28.5 -0.5q19 0 24 2t7 2t2 -2q0 -3 -8 -17.5t-16 -25.5q-5 -3 -12 -5t-22 -2z" />
    <glyph glyph-name="Abreve" unicode="&#x102;" horiz-adv-x="549" 
d="M226 709q-1 2 -0.5 6.5t3.5 7.5q18 23 24.5 29.5t8.5 6.5t4 -5l255 -715q1 -4 -3 -9.5t-15 -19.5q-13 -16 -18 -16q-3 0 -6 9l-120 333q-2 -5 -7 -16.5t-13 -22.5q-5 -3 -13 -4.5t-25 -1.5q-44 0 -67 -0.5t-34.5 -0.5h-15h-8.5q-14 0 -20.5 -1t-9.5 -2l-72 -238
q-9 -12 -20 -23.5t-21 -20.5t-17.5 -14t-8.5 -5q-5 -1 -5 2q63 155 126 323.5t120 334.5zM160 329q5 3 12.5 5t24.5 2q6 0 24 0.5t39 0.5h39h23q22 0 28 2t8 2l-106 294l-93 -307zM246 808q-37 0 -54.5 21t-17.5 47q0 23 13 42t24 27h1q2 0 2 -3q-9 -10 -9 -33
q0 -26 19 -43.5t51 -17.5q42 0 62 23.5t27 60.5q1 5 6 4t3 -6q-6 -16 -16.5 -37t-26.5 -40t-37 -32t-47 -13z" />
    <glyph glyph-name="abreve" unicode="&#x103;" horiz-adv-x="472" 
d="M415 48q0 -5 -4 -13t-18 -23q-18 -19 -23 -19t-5 5q0 14 0.5 27.5t1 30t0.5 36.5v47q-12 -16 -28 -33.5t-30 -31.5q-38 -38 -75.5 -60.5t-82.5 -22.5q-27 0 -47 8t-33.5 21.5t-20 31t-6.5 36.5q0 27 6.5 47.5t22 38.5t40.5 33.5t62 32.5q43 19 72.5 31.5t46.5 20.5
q40 20 55.5 38.5t17.5 41.5q0 18 -6.5 35t-20 30.5t-35 22t-53.5 8.5q-35 0 -58.5 -4.5t-43.5 -15.5t-28.5 -27.5t-8.5 -35.5v-64q0 -16 -26 -39q-10 -8 -14 -10.5t-6 -2.5q-4 0 -4 5v4.5t0.5 11t0.5 24.5v45q0 21 22 45.5t59 48.5q38 26 70.5 38.5t70.5 12.5
q60 0 94.5 -31.5t34.5 -76.5v-348zM304 78q15 15 34 39.5t29 56.5v151q-14 -11 -31.5 -20.5t-38.5 -19.5q-18 -8 -46.5 -20.5t-68.5 -32.5q-27 -14 -43.5 -26.5t-25.5 -25.5t-11.5 -28t-2.5 -33q0 -33 22.5 -60.5t67.5 -27.5q40 0 65.5 12t49.5 35zM231 558q-37 0 -54.5 21
t-17.5 47q0 23 13 42t24 27h1q2 0 2 -3q-9 -10 -9 -33q0 -26 19 -43.5t51 -17.5q42 0 62 23.5t27 60.5q1 5 6 4t3 -6q-6 -16 -16.5 -37t-26.5 -40t-37 -32t-47 -13z" />
    <glyph glyph-name="Aogonek" unicode="&#x104;" horiz-adv-x="549" 
d="M226 709q-1 2 -0.5 6.5t3.5 7.5q18 23 24.5 29.5t8.5 6.5t4 -5l255 -715q1 -4 -3 -9.5t-15 -19.5q-13 -16 -18 -16q-3 0 -6 8q2 2 4 6q5 5 10 1t3 -7q-43 -40 -59 -66.5t-16 -53.5t16.5 -40.5t42.5 -13.5q22 0 36 14.5t23 34.5l4 -2q-5 -15 -15 -31t-22.5 -29.5t-28 -22
t-32.5 -8.5q-32 0 -50 16t-18 43q0 16 11 36t27 41t33.5 42t30.5 40v1l-120 333q-2 -5 -7 -16.5t-13 -22.5q-5 -3 -13 -4.5t-25 -1.5q-44 0 -67 -0.5t-34.5 -0.5h-15h-8.5q-14 0 -20.5 -1t-9.5 -2l-72 -238q-9 -12 -20 -23.5t-21 -20.5t-17.5 -14t-8.5 -5q-5 -1 -5 2
q63 155 126 323.5t120 334.5zM160 329q5 3 12.5 5t24.5 2q6 0 24 0.5t39 0.5h39h23q22 0 28 2t8 2l-106 294l-93 -307z" />
    <glyph glyph-name="aogonek" unicode="&#x105;" horiz-adv-x="472" 
d="M331 -217q-32 0 -50 16t-18 43q0 16 11 36t26.5 41t33 42.5t31.5 39.5q0 13 0.5 26.5t1 29.5t0.5 36v46q-12 -16 -28 -33.5t-30 -31.5q-38 -38 -75.5 -60.5t-82.5 -22.5q-27 0 -47 8t-33.5 21.5t-20 31t-6.5 36.5q0 27 6.5 47.5t22 38.5t40.5 33.5t62 32.5
q43 19 72.5 31.5t46.5 20.5q40 20 55.5 38.5t17.5 41.5q0 18 -6.5 35t-20 30.5t-35 22t-53.5 8.5q-35 0 -58.5 -4.5t-43.5 -15.5t-28.5 -27.5t-8.5 -35.5v-64q0 -16 -26 -39q-10 -8 -14 -10.5t-6 -2.5q-4 0 -4 5v4.5t0.5 11t0.5 24.5v45q0 21 22 45.5t59 48.5
q38 26 70.5 38.5t70.5 12.5q60 0 94.5 -31.5t34.5 -76.5v-348q0 -5 -4 -13t-18 -23q-8 -8 -12.5 -11.5t-7.5 -6.5q-37 -37 -51.5 -62t-14.5 -51q0 -27 16.5 -40.5t42.5 -13.5q22 0 36 14.5t23 34.5l4 -2q-5 -15 -15 -31t-22.5 -29.5t-28 -22t-32.5 -8.5zM304 78
q15 15 34 39.5t29 56.5v151q-14 -11 -31.5 -20.5t-38.5 -19.5q-18 -8 -46.5 -20.5t-68.5 -32.5q-27 -14 -43.5 -26.5t-25.5 -25.5t-11.5 -28t-2.5 -33q0 -33 22.5 -60.5t67.5 -27.5q40 0 65.5 12t49.5 35z" />
    <glyph glyph-name="Cacute" unicode="&#x106;" horiz-adv-x="548" 
d="M329 718q-51 0 -90.5 -18t-65.5 -47q-35 -42 -55 -106t-20 -155q0 -80 19 -144.5t52.5 -110t80.5 -70.5t104 -25q31 0 55 5.5t43 16t35.5 24.5t32.5 32l4 -3q-17 -25 -39 -47.5t-48 -39t-55.5 -26.5t-61.5 -10q-62 0 -112 24t-85 69.5t-54.5 111.5t-19.5 150
q0 50 10 94.5t26.5 83.5t38 72t44.5 60q37 43 86.5 72.5t108.5 29.5q47 0 83 -12.5t74 -38.5q2 -2 0 -6.5t-16 -21.5t-19.5 -19t-7.5 0q-32 26 -66.5 40.5t-81.5 14.5zM313 809q-5 0 -5 4q0 2 3 5q18 17 32.5 46.5t26 59t18.5 52.5t9 28q7 17 15 20q4 1 8 -8t7.5 -21
t5.5 -24t1 -16t-4 -10t-7 -11q-4 -6 -14.5 -18.5t-25 -29t-31.5 -35.5t-33 -38q-3 -4 -6 -4z" />
    <glyph glyph-name="cacute" unicode="&#x107;" horiz-adv-x="461" 
d="M452 134q-7 -11 -14 -20.5t-14 -17.5q-15 -20 -33.5 -38t-40 -32.5t-47 -23t-54.5 -8.5q-50 0 -88 17.5t-63.5 47t-38 68.5t-12.5 82q0 36 6 64.5t17 53t25 46t31 42.5q29 38 71 63.5t90 25.5q22 0 39 -3t32 -9.5t29.5 -16.5t31.5 -25q2 -2 -1.5 -6.5t-15.5 -16.5
q-14 -13 -18.5 -16.5t-6.5 -1.5q-32 31 -59 44.5t-67 13.5q-43 0 -71 -15.5t-48 -41.5q-19 -25 -27.5 -60.5t-8.5 -95.5q0 -105 50.5 -163t133.5 -58q48 0 80 19t58 49q7 8 14 17t15 20zM223 546q-5 0 -5 4q0 2 3 5q18 17 32.5 46.5t26 59t18.5 52.5t9 28q7 17 15 20
q4 1 8 -8t7.5 -21t5.5 -24t1 -16t-4 -10t-7 -11q-4 -6 -14.5 -18.5t-25 -29t-31.5 -35.5t-33 -38q-3 -4 -6 -4z" />
    <glyph glyph-name="Ccircumflex" unicode="&#x108;" horiz-adv-x="548" 
d="M329 718q-51 0 -90.5 -18t-65.5 -47q-35 -42 -55 -106t-20 -155q0 -80 19 -144.5t52.5 -110t80.5 -70.5t104 -25q31 0 55 5.5t43 16t35.5 24.5t32.5 32l4 -3q-17 -25 -39 -47.5t-48 -39t-55.5 -26.5t-61.5 -10q-62 0 -112 24t-85 69.5t-54.5 111.5t-19.5 150
q0 50 10 94.5t26.5 83.5t38 72t44.5 60q37 43 86.5 72.5t108.5 29.5q47 0 83 -12.5t74 -38.5q2 -2 0 -6.5t-16 -21.5t-19.5 -19t-7.5 0q-32 26 -66.5 40.5t-81.5 14.5zM356 990q16 -32 28 -54t21 -38t15.5 -28t12.5 -23q1 -7 -11 -23q-13 -17 -18 -12q-11 19 -28.5 53
t-43.5 81q-7 -11 -14.5 -26t-14.5 -31t-13.5 -32t-12.5 -29q-6 -14 -12 -14q-4 0 -4 5t4 11q6 10 15.5 28.5t20.5 40t23 44.5t24 44q2 3 4.5 4t3.5 -1z" />
    <glyph glyph-name="ccircumflex" unicode="&#x109;" horiz-adv-x="461" 
d="M452 134q-7 -11 -14 -20.5t-14 -17.5q-15 -20 -33.5 -38t-40 -32.5t-47 -23t-54.5 -8.5q-50 0 -88 17.5t-63.5 47t-38 68.5t-12.5 82q0 36 6 64.5t17 53t25 46t31 42.5q29 38 71 63.5t90 25.5q22 0 39 -3t32 -9.5t29.5 -16.5t31.5 -25q2 -2 -1.5 -6.5t-15.5 -16.5
q-14 -13 -18.5 -16.5t-6.5 -1.5q-32 31 -59 44.5t-67 13.5q-43 0 -71 -15.5t-48 -41.5q-19 -25 -27.5 -60.5t-8.5 -95.5q0 -105 50.5 -163t133.5 -58q48 0 80 19t58 49q7 8 14 17t15 20zM273 718q16 -32 28 -54t21 -38t15.5 -28t12.5 -23q1 -7 -11 -23q-13 -17 -18 -12
q-11 19 -28.5 53t-43.5 81q-7 -11 -14.5 -26t-14.5 -31t-13.5 -32t-12.5 -29q-6 -14 -12 -14q-4 0 -4 5t4 11q6 10 15.5 28.5t20.5 40t23 44.5t24 44q2 3 4.5 4t3.5 -1z" />
    <glyph glyph-name="Cdotaccent" unicode="&#x10a;" horiz-adv-x="548" 
d="M329 718q-51 0 -90.5 -18t-65.5 -47q-35 -42 -55 -106t-20 -155q0 -80 19 -144.5t52.5 -110t80.5 -70.5t104 -25q31 0 55 5.5t43 16t35.5 24.5t32.5 32l4 -3q-17 -25 -39 -47.5t-48 -39t-55.5 -26.5t-61.5 -10q-62 0 -112 24t-85 69.5t-54.5 111.5t-19.5 150
q0 50 10 94.5t26.5 83.5t38 72t44.5 60q37 43 86.5 72.5t108.5 29.5q47 0 83 -12.5t74 -38.5q2 -2 0 -6.5t-16 -21.5t-19.5 -19t-7.5 0q-32 26 -66.5 40.5t-81.5 14.5zM348 820q-17 0 -24.5 17t-5.5 44q2 28 13 45.5t29 17.5q14 0 22 -17t6 -46t-12.5 -45t-27.5 -16z" />
    <glyph glyph-name="cdotaccent" unicode="&#x10b;" horiz-adv-x="461" 
d="M452 134q-7 -11 -14 -20.5t-14 -17.5q-15 -20 -33.5 -38t-40 -32.5t-47 -23t-54.5 -8.5q-50 0 -88 17.5t-63.5 47t-38 68.5t-12.5 82q0 36 6 64.5t17 53t25 46t31 42.5q29 38 71 63.5t90 25.5q22 0 39 -3t32 -9.5t29.5 -16.5t31.5 -25q2 -2 -1.5 -6.5t-15.5 -16.5
q-14 -13 -18.5 -16.5t-6.5 -1.5q-32 31 -59 44.5t-67 13.5q-43 0 -71 -15.5t-48 -41.5q-19 -25 -27.5 -60.5t-8.5 -95.5q0 -105 50.5 -163t133.5 -58q48 0 80 19t58 49q7 8 14 17t15 20zM258 565q-17 0 -24.5 17t-5.5 44q2 28 13 45.5t29 17.5q14 0 22 -17t6 -46t-12.5 -45
t-27.5 -16z" />
    <glyph glyph-name="Ccaron" unicode="&#x10c;" horiz-adv-x="548" 
d="M329 718q-51 0 -90.5 -18t-65.5 -47q-35 -42 -55 -106t-20 -155q0 -80 19 -144.5t52.5 -110t80.5 -70.5t104 -25q31 0 55 5.5t43 16t35.5 24.5t32.5 32l4 -3q-17 -25 -39 -47.5t-48 -39t-55.5 -26.5t-61.5 -10q-62 0 -112 24t-85 69.5t-54.5 111.5t-19.5 150
q0 50 10 94.5t26.5 83.5t38 72t44.5 60q37 43 86.5 72.5t108.5 29.5q47 0 83 -12.5t74 -38.5q2 -2 0 -6.5t-16 -21.5t-19.5 -19t-7.5 0q-32 26 -66.5 40.5t-81.5 14.5zM331 812q-16 32 -28 54t-21 38t-15.5 28t-12.5 23q-1 7 11 23q13 17 18 12q11 -19 28.5 -53t43.5 -81
q7 11 14.5 26t14.5 31t13.5 32t12.5 29q6 14 12 14q4 0 4 -5t-4 -11q-6 -11 -15.5 -29t-20.5 -39.5t-23 -44.5t-24 -44q-2 -3 -4.5 -4t-3.5 1z" />
    <glyph glyph-name="ccaron" unicode="&#x10d;" horiz-adv-x="461" 
d="M452 134q-7 -11 -14 -20.5t-14 -17.5q-15 -20 -33.5 -38t-40 -32.5t-47 -23t-54.5 -8.5q-50 0 -88 17.5t-63.5 47t-38 68.5t-12.5 82q0 36 6 64.5t17 53t25 46t31 42.5q29 38 71 63.5t90 25.5q22 0 39 -3t32 -9.5t29.5 -16.5t31.5 -25q2 -2 -1.5 -6.5t-15.5 -16.5
q-14 -13 -18.5 -16.5t-6.5 -1.5q-32 31 -59 44.5t-67 13.5q-43 0 -71 -15.5t-48 -41.5q-19 -25 -27.5 -60.5t-8.5 -95.5q0 -105 50.5 -163t133.5 -58q48 0 80 19t58 49q7 8 14 17t15 20zM257 558q-16 32 -28 54t-21 38t-15.5 28t-12.5 23q-1 7 11 23q13 17 18 12
q11 -19 28.5 -53t43.5 -81q7 11 14.5 26t14.5 31t13.5 32t12.5 29q6 14 12 14q4 0 4 -5t-4 -11q-6 -11 -15.5 -29t-20.5 -39.5t-23 -44.5t-24 -44q-2 -3 -4.5 -4t-3.5 1z" />
    <glyph glyph-name="Dcaron" unicode="&#x10e;" horiz-adv-x="594" 
d="M85 -9q-4 -4 -9 -4q-4 0 -4 4v690l-9 8v1l49 56h9l3 -3v-54q10 10 26 21t34.5 20t40 15t44.5 6q62 0 112 -24.5t85.5 -70.5t54.5 -112.5t19 -150.5q0 -50 -10.5 -93t-27.5 -79.5t-38.5 -68t-44.5 -58.5q-37 -43 -83.5 -72t-106.5 -29q-40 0 -67 7.5t-50 21.5
q-5 -6 -11 -13.5t-16 -17.5zM260 37q53 1 89 13t65 46q16 19 29.5 42.5t23.5 54t16 69.5t6 90q0 83 -16 149t-48 112.5t-79 71t-110 24.5q-37 0 -64.5 -7t-47.5 -19v-596q26 -23 60 -36.5t76 -13.5zM279 805q-16 32 -28 54t-21 38t-15.5 28t-12.5 23q-1 7 11 23q13 17 18 12
q11 -19 28.5 -53t43.5 -81q7 11 14.5 26t14.5 31t13.5 32t12.5 29q6 14 12 14q4 0 4 -5t-4 -11q-6 -11 -15.5 -29t-20.5 -39.5t-23 -44.5t-24 -44q-2 -3 -4.5 -4t-3.5 1z" />
    <glyph glyph-name="dcaron" unicode="&#x10f;" horiz-adv-x="563" 
d="M400 721q0 5 3.5 12.5t17.5 22.5q19 21 23 21q5 0 5 -5v-724q0 -5 -3.5 -12.5t-17.5 -22.5q-18 -19 -23 -19t-5 5v105q-8 -10 -16 -19t-15 -17q-13 -13 -28.5 -26.5t-33.5 -24t-38 -17t-41 -6.5q-41 0 -74.5 14.5t-58 43t-38 70t-13.5 95.5t22 103t56 94q31 42 72 66
t89 24q41 0 68.5 -11.5t48.5 -29.5v258zM250 467q-42 0 -70.5 -13.5t-50.5 -44.5q-21 -29 -28 -70t-7 -90q0 -101 44 -158.5t121 -57.5q68 0 104 38q11 11 21 26t16 32v266q-27 31 -63 51.5t-87 20.5zM523 559q-3 -3 -9.5 -0.5t-2.5 7.5q41 37 58.5 80.5t9.5 82.5
q-1 -10 -4 -21t-7.5 -20t-10.5 -15t-12 -6q-11 0 -18 11t-5 36q2 26 14 43.5t29 17.5q15 0 25.5 -18.5t6.5 -55.5q-1 -14 -8 -32t-17.5 -37.5t-23.5 -38.5t-25 -34z" />
    <glyph glyph-name="Dcroat" unicode="&#x110;" horiz-adv-x="594" 
d="M85 -9q-4 -4 -9 -4q-4 0 -4 4v371h-25q-13 0 -21 -1t-10 -1t-2 2q0 3 7 14t15 21q9 12 26 12h10v272l-9 8v1l49 56h9l3 -3v-54q10 10 26 21t34.5 20t40 15t44.5 6q62 0 112 -24.5t85.5 -70.5t54.5 -112.5t19 -150.5q0 -50 -10.5 -93t-27.5 -79.5t-38.5 -68t-44.5 -58.5
q-37 -43 -83.5 -72t-106.5 -29q-40 0 -67 7.5t-50 21.5q-5 -6 -11 -13.5t-16 -17.5zM236 359h-17.5t-27 0.5t-33 1t-34.5 0.5v-274q26 -23 60 -36.5t76 -13.5q53 1 89 13t65 46q16 19 29.5 42.5t23.5 54t16 69.5t6 90q0 83 -16 149t-48 112.5t-79 71t-110 24.5
q-37 0 -64.5 -7t-47.5 -19v-275h42t41 -0.5t33.5 -0.5h20.5q19 0 24 2t7 2t2 -2q0 -3 -8 -17.5t-16 -25.5q-5 -3 -12 -5t-22 -2z" />
    <glyph glyph-name="dcroat" unicode="&#x111;" horiz-adv-x="515" 
d="M400 721q0 5 3.5 12.5t17.5 22.5q19 21 23 21q5 0 5 -5v-146q19 -1 35 -1h24q19 0 24 2t7 2t2 -2q0 -3 -8 -17.5t-16 -25.5q-5 -3 -12 -5t-22 -2h-34v-529q0 -5 -3.5 -12.5t-17.5 -22.5q-18 -19 -23 -19t-5 5v105q-8 -10 -16 -19t-15 -17q-13 -13 -28.5 -26.5t-33.5 -24
t-38 -17t-41 -6.5q-41 0 -74.5 14.5t-58 43t-38 70t-13.5 95.5t22 103t56 94q31 42 72 66t89 24q41 0 68.5 -11.5t48.5 -29.5v116q-17 0 -32.5 0.5t-23.5 0.5q-13 0 -21 -1t-10 -1t-2 2q0 3 7 14t15 21q9 12 26 12h41v94zM250 467q-42 0 -70.5 -13.5t-50.5 -44.5
q-21 -29 -28 -70t-7 -90q0 -101 44 -158.5t121 -57.5q68 0 104 38q11 11 21 26t16 32v266q-27 31 -63 51.5t-87 20.5z" />
    <glyph glyph-name="Emacron" unicode="&#x112;" horiz-adv-x="461" 
d="M342 350h-18h-35t-43.5 0.5t-43.5 0.5h-34.5h-17.5q-14 0 -19.5 -1t-7.5 -1v-300q0 -3 -1 -5q5 4 14 4h278q22 0 28.5 2t8.5 2t2 -2t-10 -17.5t-18 -26.5q-5 -4 -13 -5t-25 -1h-23.5h-49t-61.5 0.5t-61.5 0.5h-48.5h-23q-15 0 -22.5 -1t-9.5 -1l-1 1l-5 -6q-4 -3 -5 -4.5
t-3 -1.5t-2 6v691l-9 6v1l49 53l18 -1h217q23 0 28.5 3t7.5 3q3 0 3 -4q0 -2 -10 -16t-21 -29q-5 -1 -11.5 -1.5t-23.5 -0.5h-197v-340l15 20q9 12 14.5 15t15.5 3h18.5h37t46 -0.5t46 -0.5h36.5h19q22 0 28 3t8 3q3 0 3 -3q0 -4 -11 -18.5t-19 -24.5q-5 -4 -13 -5t-25 -1z
M293 838q-9 0 -28.5 0.5t-40.5 1t-40.5 1t-29.5 0.5q-13 0 -21 -1t-10 -1t-2 2q0 3 7 14t15 21q9 12 26 12q13 0 34.5 -0.5t44 -0.5t42 -0.5t28.5 -0.5q19 0 24 2t7 2t2 -2q0 -3 -8 -17.5t-16 -25.5q-5 -3 -12 -5t-22 -2z" />
    <glyph glyph-name="emacron" unicode="&#x113;" horiz-adv-x="498" 
d="M294 33q48 0 80.5 18t58.5 48q7 8 14 18t15 21l5 -4q-7 -11 -14 -21.5t-14 -18.5q-30 -39 -75.5 -69.5t-106.5 -30.5q-55 0 -95 19t-66.5 49.5t-39 70t-12.5 80.5q0 63 22.5 109.5t58.5 91.5q30 38 74 64t94 26q38 0 68.5 -12.5t52.5 -34t35.5 -49.5t17.5 -59
q0 -1 -10 -12.5t-23 -26.5t-25.5 -29.5t-18.5 -21.5q-12 -7 -45 -7h-132q-18 0 -34.5 -2.5t-28.5 -7.5q-23 -10 -34 -32q-5 -11 -8 -25.5t5 -36.5q22 -55 68 -85t113 -30zM109 213q8 17 20.5 34.5t26.5 27.5q20 15 41.5 20t59.5 5h38.5t38.5 -0.5t32 -0.5h20q18 0 27 4t10 6
q-8 73 -52.5 115t-114.5 42q-44 0 -74 -15t-51 -41q-20 -25 -28.5 -59t-8.5 -93q0 -20 1.5 -39.5t6.5 -36.5q1 20 7 31zM362 567q-9 0 -28.5 0.5t-40.5 1t-40.5 1t-29.5 0.5q-13 0 -21 -1t-10 -1t-2 2q0 3 7 14t15 21q9 12 26 12q13 0 34.5 -0.5t44 -0.5t42 -0.5t28.5 -0.5
q19 0 24 2t7 2t2 -2q0 -3 -8 -17.5t-16 -25.5q-5 -3 -12 -5t-22 -2z" />
    <glyph glyph-name="Ebreve" unicode="&#x114;" horiz-adv-x="461" 
d="M342 350h-18h-35t-43.5 0.5t-43.5 0.5h-34.5h-17.5q-14 0 -19.5 -1t-7.5 -1v-300q0 -3 -1 -5q5 4 14 4h278q22 0 28.5 2t8.5 2t2 -2t-10 -17.5t-18 -26.5q-5 -4 -13 -5t-25 -1h-23.5h-49t-61.5 0.5t-61.5 0.5h-48.5h-23q-15 0 -22.5 -1t-9.5 -1l-1 1l-5 -6q-4 -3 -5 -4.5
t-3 -1.5t-2 6v691l-9 6v1l49 53l18 -1h217q23 0 28.5 3t7.5 3q3 0 3 -4q0 -2 -10 -16t-21 -29q-5 -1 -11.5 -1.5t-23.5 -0.5h-197v-340l15 20q9 12 14.5 15t15.5 3h18.5h37t46 -0.5t46 -0.5h36.5h19q22 0 28 3t8 3q3 0 3 -3q0 -4 -11 -18.5t-19 -24.5q-5 -4 -13 -5t-25 -1z
M240 808q-37 0 -54.5 21t-17.5 47q0 23 13 42t24 27h1q2 0 2 -3q-9 -10 -9 -33q0 -26 19 -43.5t51 -17.5q42 0 62 23.5t27 60.5q1 5 6 4t3 -6q-6 -16 -16.5 -37t-26.5 -40t-37 -32t-47 -13z" />
    <glyph glyph-name="ebreve" unicode="&#x115;" horiz-adv-x="498" 
d="M294 33q48 0 80.5 18t58.5 48q7 8 14 18t15 21l5 -4q-7 -11 -14 -21.5t-14 -18.5q-30 -39 -75.5 -69.5t-106.5 -30.5q-55 0 -95 19t-66.5 49.5t-39 70t-12.5 80.5q0 63 22.5 109.5t58.5 91.5q30 38 74 64t94 26q38 0 68.5 -12.5t52.5 -34t35.5 -49.5t17.5 -59
q0 -1 -10 -12.5t-23 -26.5t-25.5 -29.5t-18.5 -21.5q-12 -7 -45 -7h-132q-18 0 -34.5 -2.5t-28.5 -7.5q-23 -10 -34 -32q-5 -11 -8 -25.5t5 -36.5q22 -55 68 -85t113 -30zM109 213q8 17 20.5 34.5t26.5 27.5q20 15 41.5 20t59.5 5h38.5t38.5 -0.5t32 -0.5h20q18 0 27 4t10 6
q-8 73 -52.5 115t-114.5 42q-44 0 -74 -15t-51 -41q-20 -25 -28.5 -59t-8.5 -93q0 -20 1.5 -39.5t6.5 -36.5q1 20 7 31zM252 559q-37 0 -54.5 21t-17.5 47q0 23 13 42t24 27h1q2 0 2 -3q-9 -10 -9 -33q0 -26 19 -43.5t51 -17.5q42 0 62 23.5t27 60.5q1 5 6 4t3 -6
q-6 -16 -16.5 -37t-26.5 -40t-37 -32t-47 -13z" />
    <glyph glyph-name="Edotaccent" unicode="&#x116;" horiz-adv-x="461" 
d="M342 350h-18h-35t-43.5 0.5t-43.5 0.5h-34.5h-17.5q-14 0 -19.5 -1t-7.5 -1v-300q0 -3 -1 -5q5 4 14 4h278q22 0 28.5 2t8.5 2t2 -2t-10 -17.5t-18 -26.5q-5 -4 -13 -5t-25 -1h-23.5h-49t-61.5 0.5t-61.5 0.5h-48.5h-23q-15 0 -22.5 -1t-9.5 -1l-1 1l-5 -6q-4 -3 -5 -4.5
t-3 -1.5t-2 6v691l-9 6v1l49 53l18 -1h217q23 0 28.5 3t7.5 3q3 0 3 -4q0 -2 -10 -16t-21 -29q-5 -1 -11.5 -1.5t-23.5 -0.5h-197v-340l15 20q9 12 14.5 15t15.5 3h18.5h37t46 -0.5t46 -0.5h36.5h19q22 0 28 3t8 3q3 0 3 -3q0 -4 -11 -18.5t-19 -24.5q-5 -4 -13 -5t-25 -1z
M232 805q-17 0 -24.5 17t-5.5 44q2 28 13 45.5t29 17.5q14 0 22 -17t6 -46t-12.5 -45t-27.5 -16z" />
    <glyph glyph-name="edotaccent" unicode="&#x117;" horiz-adv-x="498" 
d="M294 33q48 0 80.5 18t58.5 48q7 8 14 18t15 21l5 -4q-7 -11 -14 -21.5t-14 -18.5q-30 -39 -75.5 -69.5t-106.5 -30.5q-55 0 -95 19t-66.5 49.5t-39 70t-12.5 80.5q0 63 22.5 109.5t58.5 91.5q30 38 74 64t94 26q38 0 68.5 -12.5t52.5 -34t35.5 -49.5t17.5 -59
q0 -1 -10 -12.5t-23 -26.5t-25.5 -29.5t-18.5 -21.5q-12 -7 -45 -7h-132q-18 0 -34.5 -2.5t-28.5 -7.5q-23 -10 -34 -32q-5 -11 -8 -25.5t5 -36.5q22 -55 68 -85t113 -30zM109 213q8 17 20.5 34.5t26.5 27.5q20 15 41.5 20t59.5 5h38.5t38.5 -0.5t32 -0.5h20q18 0 27 4t10 6
q-8 73 -52.5 115t-114.5 42q-44 0 -74 -15t-51 -41q-20 -25 -28.5 -59t-8.5 -93q0 -20 1.5 -39.5t6.5 -36.5q1 20 7 31zM291 558q-17 0 -24.5 17t-5.5 44q2 28 13 45.5t29 17.5q14 0 22 -17t6 -46t-12.5 -45t-27.5 -16z" />
    <glyph glyph-name="Eogonek" unicode="&#x118;" horiz-adv-x="461" 
d="M342 350h-18h-35t-43.5 0.5t-43.5 0.5h-34.5h-17.5q-14 0 -19.5 -1t-7.5 -1v-300q0 -3 -1 -5q5 4 14 4h278q22 0 28.5 2t8.5 2t2 -2t-10 -17.5t-18 -26.5l-1 -1q-42 -39 -58 -65.5t-16 -53.5t16.5 -40.5t42.5 -13.5q22 0 36 14.5t23 34.5l4 -2q-5 -15 -15 -31
t-22.5 -29.5t-28 -22t-32.5 -8.5q-32 0 -50 16t-18 43q0 15 10 34t25 39.5t32 41t31 38.5h-17h-23.5h-49t-61.5 0.5t-61.5 0.5h-48.5h-23q-15 0 -22.5 -1t-9.5 -1l-1 1l-5 -6q-4 -3 -5 -4.5t-3 -1.5t-2 6v691l-9 6v1l49 53l18 -1h217q23 0 28.5 3t7.5 3q3 0 3 -4
q0 -2 -10 -16t-21 -29q-5 -1 -11.5 -1.5t-23.5 -0.5h-197v-340l15 20q9 12 14.5 15t15.5 3h18.5h37t46 -0.5t46 -0.5h36.5h19q22 0 28 3t8 3q3 0 3 -3q0 -4 -11 -18.5t-19 -24.5q-5 -4 -13 -5t-25 -1z" />
    <glyph glyph-name="eogonek" unicode="&#x119;" horiz-adv-x="498" 
d="M326 -184q-32 0 -50 16t-18 43q0 14 8.5 31t21.5 35t28 37t29 36q-40 -20 -88 -20q-55 0 -95 19t-66.5 49.5t-39 70t-12.5 80.5q0 63 22.5 109.5t58.5 91.5q30 38 74 64t94 26q38 0 68.5 -12.5t52.5 -34t35.5 -49.5t17.5 -59q0 -1 -10 -12.5t-23 -26.5t-25.5 -29.5
t-18.5 -21.5q-12 -7 -45 -7h-132q-18 0 -34.5 -2.5t-28.5 -7.5q-23 -10 -34 -32q-5 -11 -8 -25.5t5 -36.5q22 -55 68 -85t113 -30q48 0 80.5 18t58.5 48q7 8 14 18t15 21l5 -4q-7 -11 -14 -21.5t-14 -18.5q-14 -18 -30.5 -34t-36.5 -30q-40 -38 -55 -64t-15 -52
q0 -27 16.5 -40.5t42.5 -13.5q22 0 36 14.5t23 34.5l4 -2q-5 -15 -15 -31t-22.5 -29.5t-28 -22t-32.5 -8.5zM109 213q8 17 20.5 34.5t26.5 27.5q20 15 41.5 20t59.5 5h38.5t38.5 -0.5t32 -0.5h20q18 0 27 4t10 6q-8 73 -52.5 115t-114.5 42q-44 0 -74 -15t-51 -41
q-20 -25 -28.5 -59t-8.5 -93q0 -20 1.5 -39.5t6.5 -36.5q1 20 7 31z" />
    <glyph glyph-name="Ecaron" unicode="&#x11a;" horiz-adv-x="461" 
d="M342 350h-18h-35t-43.5 0.5t-43.5 0.5h-34.5h-17.5q-14 0 -19.5 -1t-7.5 -1v-300q0 -3 -1 -5q5 4 14 4h278q22 0 28.5 2t8.5 2t2 -2t-10 -17.5t-18 -26.5q-5 -4 -13 -5t-25 -1h-23.5h-49t-61.5 0.5t-61.5 0.5h-48.5h-23q-15 0 -22.5 -1t-9.5 -1l-1 1l-5 -6q-4 -3 -5 -4.5
t-3 -1.5t-2 6v691l-9 6v1l49 53l18 -1h217q23 0 28.5 3t7.5 3q3 0 3 -4q0 -2 -10 -16t-21 -29q-5 -1 -11.5 -1.5t-23.5 -0.5h-197v-340l15 20q9 12 14.5 15t15.5 3h18.5h37t46 -0.5t46 -0.5h36.5h19q22 0 28 3t8 3q3 0 3 -3q0 -4 -11 -18.5t-19 -24.5q-5 -4 -13 -5t-25 -1z
M235 798q-16 32 -28 54t-21 38t-15.5 28t-12.5 23q-1 7 11 23q13 17 18 12q11 -19 28.5 -53t43.5 -81q7 11 14.5 26t14.5 31t13.5 32t12.5 29q6 14 12 14q4 0 4 -5t-4 -11q-6 -11 -15.5 -29t-20.5 -39.5t-23 -44.5t-24 -44q-2 -3 -4.5 -4t-3.5 1z" />
    <glyph glyph-name="ecaron" unicode="&#x11b;" horiz-adv-x="498" 
d="M294 33q48 0 80.5 18t58.5 48q7 8 14 18t15 21l5 -4q-7 -11 -14 -21.5t-14 -18.5q-30 -39 -75.5 -69.5t-106.5 -30.5q-55 0 -95 19t-66.5 49.5t-39 70t-12.5 80.5q0 63 22.5 109.5t58.5 91.5q30 38 74 64t94 26q38 0 68.5 -12.5t52.5 -34t35.5 -49.5t17.5 -59
q0 -1 -10 -12.5t-23 -26.5t-25.5 -29.5t-18.5 -21.5q-12 -7 -45 -7h-132q-18 0 -34.5 -2.5t-28.5 -7.5q-23 -10 -34 -32q-5 -11 -8 -25.5t5 -36.5q22 -55 68 -85t113 -30zM109 213q8 17 20.5 34.5t26.5 27.5q20 15 41.5 20t59.5 5h38.5t38.5 -0.5t32 -0.5h20q18 0 27 4t10 6
q-8 73 -52.5 115t-114.5 42q-44 0 -74 -15t-51 -41q-20 -25 -28.5 -59t-8.5 -93q0 -20 1.5 -39.5t6.5 -36.5q1 20 7 31zM268 550q-16 32 -28 54t-21 38t-15.5 28t-12.5 23q-1 7 11 23q13 17 18 12q11 -19 28.5 -53t43.5 -81q7 11 14.5 26t14.5 31t13.5 32t12.5 29
q6 14 12 14q4 0 4 -5t-4 -11q-6 -11 -15.5 -29t-20.5 -39.5t-23 -44.5t-24 -44q-2 -3 -4.5 -4t-3.5 1z" />
    <glyph glyph-name="Gcircumflex" unicode="&#x11c;" horiz-adv-x="606" 
d="M354 458q-14 0 -20 -1t-8 -1t-2 3q0 2 8 13l12 16q8 10 11.5 12t8.5 2h185l2 -2q0 -1 -0.5 -35.5t-0.5 -88t-0.5 -117.5t-0.5 -124q0 -3 -3 -3q-2 0 -4 -2q-60 -62 -119 -99t-110 -37q-55 0 -102.5 20.5t-83 63.5t-56 108.5t-20.5 154.5q1 58 10.5 104.5t26 85t37.5 70
t44 58.5q37 43 85 72t107 29q57 0 96 -15t74 -45q2 -2 -1.5 -6t-18.5 -19q-15 -16 -18.5 -18t-5.5 0q-17 15 -33.5 26.5t-35.5 19t-41 11.5t-50 4q-52 0 -88.5 -16.5t-64.5 -48.5q-35 -42 -54.5 -105.5t-19.5 -168.5q0 -81 18.5 -144t51 -106t75.5 -65.5t92 -22.5
q33 0 57.5 4t43 11.5t33 17.5t27.5 21q1 61 1.5 123.5t0.5 114v86v39.5h-146zM345 993q16 -32 28 -54t21 -38t15.5 -28t12.5 -23q1 -7 -11 -23q-13 -17 -18 -12q-11 19 -28.5 53t-43.5 81q-7 -11 -14.5 -26t-14.5 -31t-13.5 -32t-12.5 -29q-6 -14 -12 -14q-4 0 -4 5t4 11
q6 10 15.5 28.5t20.5 40t23 44.5t24 44q2 3 4.5 4t3.5 -1z" />
    <glyph glyph-name="gcircumflex" unicode="&#x11d;" horiz-adv-x="436" 
d="M183 -290q-43 0 -79 7.5t-62.5 23.5t-41 40t-14.5 57q0 21 11.5 41.5t32 42.5t49 45t62.5 49q-22 11 -35 26.5t-13 38.5q0 26 14 47t38 39q-22 4 -42.5 14.5t-36 27.5t-24.5 40.5t-9 52.5q0 38 17.5 68.5t43.5 60.5q10 13 25.5 26t33.5 23.5t37.5 17t37.5 6.5
q37 0 66 -12.5t48 -34.5l16 21q11 14 15 17.5t8 3.5h14q32 0 44.5 0.5t18.5 0.5q4 0 4 -4q0 -2 -8.5 -15t-19.5 -24q-12 -5 -40 -5h-47q29 -38 29 -93q0 -30 -18 -61.5t-45 -61.5q-9 -11 -24 -23.5t-33.5 -23t-40 -17.5t-43.5 -7q-5 0 -9 0.5t-9 0.5q-17 -11 -24.5 -21
t-7.5 -27q0 -27 24 -43.5t60.5 -28.5t79 -22t79 -24.5t60.5 -35.5t24 -55q0 -31 -17 -55t-40 -50q-32 -37 -86 -65.5t-123 -28.5zM32 -134q0 -53 49.5 -82t134.5 -29q71 0 110.5 15.5t59.5 36.5q26 26 26 67q0 36 -28.5 56t-69.5 33.5t-86.5 23.5t-79.5 26
q-31 -24 -53 -42.5t-36 -34.5t-20.5 -32.5t-6.5 -37.5zM308 240q17 20 23.5 40t6.5 49q0 34 -11 59.5t-30.5 42.5t-45 26t-54.5 9q-32 0 -55.5 -8t-41.5 -31q-15 -17 -20.5 -38t-5.5 -51q0 -32 11 -57.5t30 -42.5t44 -26t54 -9q35 0 58.5 10t36.5 27zM220 723q16 -32 28 -54
t21 -38t15.5 -28t12.5 -23q1 -7 -11 -23q-13 -17 -18 -12q-11 19 -28.5 53t-43.5 81q-7 -11 -14.5 -26t-14.5 -31t-13.5 -32t-12.5 -29q-6 -14 -12 -14q-4 0 -4 5t4 11q6 10 15.5 28.5t20.5 40t23 44.5t24 44q2 3 4.5 4t3.5 -1z" />
    <glyph glyph-name="Gbreve" unicode="&#x11e;" horiz-adv-x="606" 
d="M354 458q-14 0 -20 -1t-8 -1t-2 3q0 2 8 13l12 16q8 10 11.5 12t8.5 2h185l2 -2q0 -1 -0.5 -35.5t-0.5 -88t-0.5 -117.5t-0.5 -124q0 -3 -3 -3q-2 0 -4 -2q-60 -62 -119 -99t-110 -37q-55 0 -102.5 20.5t-83 63.5t-56 108.5t-20.5 154.5q1 58 10.5 104.5t26 85t37.5 70
t44 58.5q37 43 85 72t107 29q57 0 96 -15t74 -45q2 -2 -1.5 -6t-18.5 -19q-15 -16 -18.5 -18t-5.5 0q-17 15 -33.5 26.5t-35.5 19t-41 11.5t-50 4q-52 0 -88.5 -16.5t-64.5 -48.5q-35 -42 -54.5 -105.5t-19.5 -168.5q0 -81 18.5 -144t51 -106t75.5 -65.5t92 -22.5
q33 0 57.5 4t43 11.5t33 17.5t27.5 21q1 61 1.5 123.5t0.5 114v86v39.5h-146zM308 826q-37 0 -54.5 21t-17.5 47q0 23 13 42t24 27h1q2 0 2 -3q-9 -10 -9 -33q0 -26 19 -43.5t51 -17.5q42 0 62 23.5t27 60.5q1 5 6 4t3 -6q-6 -16 -16.5 -37t-26.5 -40t-37 -32t-47 -13z" />
    <glyph glyph-name="gbreve" unicode="&#x11f;" horiz-adv-x="436" 
d="M183 -290q-43 0 -79 7.5t-62.5 23.5t-41 40t-14.5 57q0 21 11.5 41.5t32 42.5t49 45t62.5 49q-22 11 -35 26.5t-13 38.5q0 26 14 47t38 39q-22 4 -42.5 14.5t-36 27.5t-24.5 40.5t-9 52.5q0 38 17.5 68.5t43.5 60.5q10 13 25.5 26t33.5 23.5t37.5 17t37.5 6.5
q37 0 66 -12.5t48 -34.5l16 21q11 14 15 17.5t8 3.5h14q32 0 44.5 0.5t18.5 0.5q4 0 4 -4q0 -2 -8.5 -15t-19.5 -24q-12 -5 -40 -5h-47q29 -38 29 -93q0 -30 -18 -61.5t-45 -61.5q-9 -11 -24 -23.5t-33.5 -23t-40 -17.5t-43.5 -7q-5 0 -9 0.5t-9 0.5q-17 -11 -24.5 -21
t-7.5 -27q0 -27 24 -43.5t60.5 -28.5t79 -22t79 -24.5t60.5 -35.5t24 -55q0 -31 -17 -55t-40 -50q-32 -37 -86 -65.5t-123 -28.5zM32 -134q0 -53 49.5 -82t134.5 -29q71 0 110.5 15.5t59.5 36.5q26 26 26 67q0 36 -28.5 56t-69.5 33.5t-86.5 23.5t-79.5 26
q-31 -24 -53 -42.5t-36 -34.5t-20.5 -32.5t-6.5 -37.5zM308 240q17 20 23.5 40t6.5 49q0 34 -11 59.5t-30.5 42.5t-45 26t-54.5 9q-32 0 -55.5 -8t-41.5 -31q-15 -17 -20.5 -38t-5.5 -51q0 -32 11 -57.5t30 -42.5t44 -26t54 -9q35 0 58.5 10t36.5 27zM200 558
q-37 0 -54.5 21t-17.5 47q0 23 13 42t24 27h1q2 0 2 -3q-9 -10 -9 -33q0 -26 19 -43.5t51 -17.5q42 0 62 23.5t27 60.5q1 5 6 4t3 -6q-6 -16 -16.5 -37t-26.5 -40t-37 -32t-47 -13z" />
    <glyph glyph-name="Gdotaccent" unicode="&#x120;" horiz-adv-x="606" 
d="M354 458q-14 0 -20 -1t-8 -1t-2 3q0 2 8 13l12 16q8 10 11.5 12t8.5 2h185l2 -2q0 -1 -0.5 -35.5t-0.5 -88t-0.5 -117.5t-0.5 -124q0 -3 -3 -3q-2 0 -4 -2q-60 -62 -119 -99t-110 -37q-55 0 -102.5 20.5t-83 63.5t-56 108.5t-20.5 154.5q1 58 10.5 104.5t26 85t37.5 70
t44 58.5q37 43 85 72t107 29q57 0 96 -15t74 -45q2 -2 -1.5 -6t-18.5 -19q-15 -16 -18.5 -18t-5.5 0q-17 15 -33.5 26.5t-35.5 19t-41 11.5t-50 4q-52 0 -88.5 -16.5t-64.5 -48.5q-35 -42 -54.5 -105.5t-19.5 -168.5q0 -81 18.5 -144t51 -106t75.5 -65.5t92 -22.5
q33 0 57.5 4t43 11.5t33 17.5t27.5 21q1 61 1.5 123.5t0.5 114v86v39.5h-146zM343 821q-17 0 -24.5 17t-5.5 44q2 28 13 45.5t29 17.5q14 0 22 -17t6 -46t-12.5 -45t-27.5 -16z" />
    <glyph glyph-name="gdotaccent" unicode="&#x121;" horiz-adv-x="436" 
d="M183 -290q-43 0 -79 7.5t-62.5 23.5t-41 40t-14.5 57q0 21 11.5 41.5t32 42.5t49 45t62.5 49q-22 11 -35 26.5t-13 38.5q0 26 14 47t38 39q-22 4 -42.5 14.5t-36 27.5t-24.5 40.5t-9 52.5q0 38 17.5 68.5t43.5 60.5q10 13 25.5 26t33.5 23.5t37.5 17t37.5 6.5
q37 0 66 -12.5t48 -34.5l16 21q11 14 15 17.5t8 3.5h14q32 0 44.5 0.5t18.5 0.5q4 0 4 -4q0 -2 -8.5 -15t-19.5 -24q-12 -5 -40 -5h-47q29 -38 29 -93q0 -30 -18 -61.5t-45 -61.5q-9 -11 -24 -23.5t-33.5 -23t-40 -17.5t-43.5 -7q-5 0 -9 0.5t-9 0.5q-17 -11 -24.5 -21
t-7.5 -27q0 -27 24 -43.5t60.5 -28.5t79 -22t79 -24.5t60.5 -35.5t24 -55q0 -31 -17 -55t-40 -50q-32 -37 -86 -65.5t-123 -28.5zM32 -134q0 -53 49.5 -82t134.5 -29q71 0 110.5 15.5t59.5 36.5q26 26 26 67q0 36 -28.5 56t-69.5 33.5t-86.5 23.5t-79.5 26
q-31 -24 -53 -42.5t-36 -34.5t-20.5 -32.5t-6.5 -37.5zM308 240q17 20 23.5 40t6.5 49q0 34 -11 59.5t-30.5 42.5t-45 26t-54.5 9q-32 0 -55.5 -8t-41.5 -31q-15 -17 -20.5 -38t-5.5 -51q0 -32 11 -57.5t30 -42.5t44 -26t54 -9q35 0 58.5 10t36.5 27zM211 565
q-17 0 -24.5 17t-5.5 44q2 28 13 45.5t29 17.5q14 0 22 -17t6 -46t-12.5 -45t-27.5 -16z" />
    <glyph glyph-name="Gcommaaccent" unicode="&#x122;" horiz-adv-x="606" 
d="M354 458q-14 0 -20 -1t-8 -1t-2 3q0 2 8 13l12 16q8 10 11.5 12t8.5 2h185l2 -2q0 -1 -0.5 -35.5t-0.5 -88t-0.5 -117.5t-0.5 -124q0 -3 -3 -3q-2 0 -4 -2q-60 -62 -119 -99t-110 -37q-55 0 -102.5 20.5t-83 63.5t-56 108.5t-20.5 154.5q1 58 10.5 104.5t26 85t37.5 70
t44 58.5q37 43 85 72t107 29q57 0 96 -15t74 -45q2 -2 -1.5 -6t-18.5 -19q-15 -16 -18.5 -18t-5.5 0q-17 15 -33.5 26.5t-35.5 19t-41 11.5t-50 4q-52 0 -88.5 -16.5t-64.5 -48.5q-35 -42 -54.5 -105.5t-19.5 -168.5q0 -81 18.5 -144t51 -106t75.5 -65.5t92 -22.5
q33 0 57.5 4t43 11.5t33 17.5t27.5 21q1 61 1.5 123.5t0.5 114v86v39.5h-146zM291 -278q-3 -3 -9.5 -0.5t-2.5 7.5q41 37 58.5 80.5t9.5 82.5q-1 -10 -4 -21t-7.5 -20t-10.5 -15t-12 -6q-11 0 -18 11t-5 36q2 26 14 43.5t29 17.5q15 0 25.5 -18.5t6.5 -55.5q-1 -14 -8 -32
t-17.5 -37.5t-23.5 -38.5t-25 -34z" />
    <glyph glyph-name="gcommaaccent" unicode="&#x123;" horiz-adv-x="436" 
d="M183 -290q-43 0 -79 7.5t-62.5 23.5t-41 40t-14.5 57q0 21 11.5 41.5t32 42.5t49 45t62.5 49q-22 11 -35 26.5t-13 38.5q0 26 14 47t38 39q-22 4 -42.5 14.5t-36 27.5t-24.5 40.5t-9 52.5q0 38 17.5 68.5t43.5 60.5q10 13 25.5 26t33.5 23.5t37.5 17t37.5 6.5
q37 0 66 -12.5t48 -34.5l16 21q11 14 15 17.5t8 3.5h14q32 0 44.5 0.5t18.5 0.5q4 0 4 -4q0 -2 -8.5 -15t-19.5 -24q-12 -5 -40 -5h-47q29 -38 29 -93q0 -30 -18 -61.5t-45 -61.5q-9 -11 -24 -23.5t-33.5 -23t-40 -17.5t-43.5 -7q-5 0 -9 0.5t-9 0.5q-17 -11 -24.5 -21
t-7.5 -27q0 -27 24 -43.5t60.5 -28.5t79 -22t79 -24.5t60.5 -35.5t24 -55q0 -31 -17 -55t-40 -50q-32 -37 -86 -65.5t-123 -28.5zM32 -134q0 -53 49.5 -82t134.5 -29q71 0 110.5 15.5t59.5 36.5q26 26 26 67q0 36 -28.5 56t-69.5 33.5t-86.5 23.5t-79.5 26
q-31 -24 -53 -42.5t-36 -34.5t-20.5 -32.5t-6.5 -37.5zM308 240q17 20 23.5 40t6.5 49q0 34 -11 59.5t-30.5 42.5t-45 26t-54.5 9q-32 0 -55.5 -8t-41.5 -31q-15 -17 -20.5 -38t-5.5 -51q0 -32 11 -57.5t30 -42.5t44 -26t54 -9q35 0 58.5 10t36.5 27zM171 639q2 24 10 52
t20 56t27.5 53t33.5 43q3 3 7.5 1t-0.5 -7q-23 -21 -39.5 -50.5t-26.5 -61.5t-13.5 -65t-1.5 -62q2 39 13 63.5t26 24.5q25 0 19 -61q-4 -33 -16.5 -49.5t-28.5 -16.5q-19 0 -26.5 19t-3.5 61z" />
    <glyph glyph-name="Hcircumflex" unicode="&#x124;" horiz-adv-x="553" 
d="M71 695q0 7 4 14.5t23 28.5q8 8 13.5 14t7.5 6q4 0 4 -4v-44.5v-102t-0.5 -137t-0.5 -148.5q2 4 6 9t10 13q9 14 14.5 17.5t16.5 3.5h21.5h41.5t51.5 -0.5t51.5 -0.5h41h20q23 0 28 2t7 2q1 0 2 -1v120.5t0.5 104t0.5 74.5v32q0 7 4.5 12.5t23.5 26.5q16 18 19 18
q4 0 4 -6v-34v-80v-111t-0.5 -126.5t-0.5 -127v-112v-82v-36.5q0 -3 -4 -11t-19 -24q-7 -7 -13.5 -12.5t-11.5 -5.5q-3 0 -3 4q0 3 -0.5 36.5t-0.5 85.5t0.5 117t0.5 131q-3 -6 -10.5 -16.5t-15.5 -21.5q-4 -2 -11 -3.5t-24 -1.5h-224q-15 0 -19.5 -1.5t-5.5 -1.5h-1v-271
q0 -4 -4 -13.5t-19 -25.5q-7 -8 -14 -13t-11 -5q-5 0 -5 4v34v80.5t0.5 111t0.5 126t0.5 126.5t0.5 111.5v80.5v34zM295 974q16 -32 28 -54t21 -38t15.5 -28t12.5 -23q1 -7 -11 -23q-13 -17 -18 -12q-11 19 -28.5 53t-43.5 81q-7 -11 -14.5 -26t-14.5 -31t-13.5 -32
t-12.5 -29q-6 -14 -12 -14q-4 0 -4 5t4 11q6 10 15.5 28.5t20.5 40t23 44.5t24 44q2 3 4.5 4t3.5 -1z" />
    <glyph glyph-name="hcircumflex" unicode="&#x125;" horiz-adv-x="477" 
d="M420 49q0 -5 -5 -13t-19 -23q-18 -19 -23 -19t-5 5v24.5t0.5 56t0.5 97.5v149q0 76 -35 108.5t-90 32.5q-34 0 -58 -9.5t-42 -28.5q-19 -19 -29 -41v-340q0 -5 -4.5 -12.5t-18.5 -22.5q-16 -19 -21 -19t-5 5v720q0 8 3.5 14.5t20.5 25.5q10 11 14.5 15t6.5 4q4 0 4 -3
v-370q5 8 11.5 14.5t11.5 12.5q13 13 28 26t32 23t36.5 16.5t40.5 6.5q31 0 57.5 -8.5t46 -28.5t30.5 -53t11 -81v-284zM115 948q16 -32 28 -54t21 -38t15.5 -28t12.5 -23q1 -7 -11 -23q-13 -17 -18 -12q-11 19 -28.5 53t-43.5 81q-7 -11 -14.5 -26t-14.5 -31t-13.5 -32
t-12.5 -29q-6 -14 -12 -14q-4 0 -4 5t4 11q6 10 15.5 28.5t20.5 40t23 44.5t24 44q2 3 4.5 4t3.5 -1z" />
    <glyph glyph-name="Hbar" unicode="&#x126;" horiz-adv-x="554" 
d="M122 277v-233q0 -4 -4 -13.5t-19 -25.5q-7 -8 -14 -13t-11 -5q-5 0 -5 4v50t0.5 115t0.5 151v158h-42q-15 0 -19.5 -1.5t-5.5 -1.5q-2 0 -2 3t17 26q9 14 14.5 17.5t16.5 3.5h21q0 36 0.5 68.5t0.5 57.5v40v17q0 7 4 14.5t23 28.5q8 8 13.5 14t7.5 6q4 0 4 -4v-22.5
t-0.5 -53.5t-0.5 -75.5v-90.5h72.5t81 -0.5t82 -0.5h75.5v70.5t0.5 58.5t0.5 40.5v17.5q0 7 4.5 12.5t23.5 26.5q16 18 19 18q4 0 4 -6v-22t-0.5 -52t-0.5 -74.5v-89.5h32q23 0 28 2t7 2q3 0 3 -2q0 -5 -8 -17t-19 -26q-4 -2 -11 -3.5t-24 -1.5h-8v-425q0 -3 -4 -11t-19 -24
q-7 -7 -13.5 -12.5t-11.5 -5.5q-3 0 -3 4q0 3 -0.5 32t-0.5 75.5t0.5 104.5t0.5 120q-3 -7 -10.5 -17t-15.5 -21q-4 -2 -11 -3.5t-24 -1.5h-224q-15 0 -19.5 -1.5t-5.5 -1.5h-1zM431 330q1 0 2 -1v136h-311v-182q2 5 16 23q9 14 14.5 17.5t16.5 3.5h21.5h41.5t51.5 -0.5
t51.5 -0.5h41h20q23 0 28 2t7 2z" />
    <glyph glyph-name="hbar" unicode="&#x127;" horiz-adv-x="477" 
d="M420 49q0 -5 -5 -13t-19 -23q-18 -19 -23 -19t-5 5v24.5t0.5 56t0.5 97.5v149q0 76 -35 108.5t-90 32.5q-34 0 -58 -9.5t-42 -28.5q-19 -19 -29 -41v-340q0 -5 -4.5 -12.5t-18.5 -22.5q-16 -19 -21 -19t-5 5v564q-8 1 -14.5 1h-11.5q-17 0 -23.5 -3t-9.5 -9q-2 -3 -3 -3
q-2 0 -2 2q0 1 1.5 6.5t4 12t5.5 13t6 10.5q5 8 14 12.5t24 4.5h9v109q0 8 3.5 14.5t20.5 25.5q10 11 14.5 15t6.5 4q4 0 4 -3v-167h25q22 0 28.5 2t9.5 9q2 4 3 4q2 0 2 -3q0 -5 -4 -17.5t-13 -25.5q-5 -8 -15 -11.5t-31 -3.5h-5v-157q5 8 11.5 14.5t11.5 12.5q13 13 28 26
t32 23t36.5 16.5t40.5 6.5q31 0 57.5 -8.5t46 -28.5t30.5 -53t11 -81v-284z" />
    <glyph glyph-name="Itilde" unicode="&#x128;" horiz-adv-x="205" 
d="M77 696v6.5t2.5 6.5t7.5 10.5t15 17.5l15 15t9 7q4 0 4 -4v-34.5v-80.5v-111t-0.5 -127t-0.5 -127.5v-112.5v-82v-37q0 -7 -27 -41q-8 -8 -12.5 -13.5t-9.5 -5.5q-4 0 -4 2v34.5v81v112v128t0.5 128t0.5 112v81v34.5zM10 816q-1 -2 -3.5 -1t-1.5 3q8 14 15.5 30t13.5 24
q7 9 17 16t26 7q11 0 25.5 -6.5t29.5 -14.5t29 -14.5t26 -6.5q18 0 26.5 8t19.5 25q1 2 4 1t1 -3q-8 -14 -17.5 -30.5t-15.5 -24.5q-7 -9 -15.5 -14.5t-24.5 -5.5q-11 0 -25.5 6.5t-30 14t-30.5 14t-26 6.5q-17 0 -26 -9t-17 -25z" />
    <glyph glyph-name="itilde" unicode="&#x129;" horiz-adv-x="178" 
d="M114 48q0 -5 -4.5 -13t-18.5 -23q-17 -18 -21 -18q-5 0 -5 5l-1 446q0 8 4 15t18 22t18.5 18.5t6.5 3.5q3 0 3 -7v-449zM-11 559q-1 -2 -3.5 -1t-1.5 3q8 14 15.5 30t13.5 24q7 9 17 16t26 7q11 0 25.5 -6.5t29.5 -14.5t29 -14.5t26 -6.5q18 0 26.5 8t19.5 25q1 2 4 1
t1 -3q-8 -14 -17.5 -30.5t-15.5 -24.5q-7 -9 -15.5 -14.5t-24.5 -5.5q-11 0 -25.5 6.5t-30 14t-30.5 14t-26 6.5q-17 0 -26 -9t-17 -25z" />
    <glyph glyph-name="Imacron" unicode="&#x12a;" horiz-adv-x="205" 
d="M77 696v6.5t2.5 6.5t7.5 10.5t15 17.5l15 15t9 7q4 0 4 -4v-34.5v-80.5v-111t-0.5 -127t-0.5 -127.5v-112.5v-82v-37q0 -7 -27 -41q-8 -8 -12.5 -13.5t-9.5 -5.5q-4 0 -4 2v34.5v81v112v128t0.5 128t0.5 112v81v34.5zM170 814q-9 0 -28.5 0.5t-40.5 1t-40.5 1t-29.5 0.5
q-13 0 -21 -1t-10 -1t-2 2q0 3 7 14t15 21q9 12 26 12q13 0 34.5 -0.5t44 -0.5t42 -0.5t28.5 -0.5q19 0 24 2t7 2t2 -2q0 -3 -8 -17.5t-16 -25.5q-5 -3 -12 -5t-22 -2z" />
    <glyph glyph-name="imacron" unicode="&#x12b;" horiz-adv-x="178" 
d="M163 556q-9 0 -28.5 0.5t-40.5 1t-40.5 1t-29.5 0.5q-13 0 -21 -1t-10 -1t-2 2q0 3 7 14t15 21q9 12 26 12q13 0 34.5 -0.5t44 -0.5t42 -0.5t28.5 -0.5q19 0 24 2t7 2t2 -2q0 -3 -8 -17.5t-16 -25.5q-5 -3 -12 -5t-22 -2zM114 48q0 -5 -4.5 -13t-18.5 -23
q-17 -18 -21 -18q-5 0 -5 5l-1 446q0 8 4 15t18 22t18.5 18.5t6.5 3.5q3 0 3 -7v-449z" />
    <glyph glyph-name="Ibreve" unicode="&#x12c;" horiz-adv-x="205" 
d="M77 696v6.5t2.5 6.5t7.5 10.5t15 17.5l15 15t9 7q4 0 4 -4v-34.5v-80.5v-111t-0.5 -127t-0.5 -127.5v-112.5v-82v-37q0 -7 -27 -41q-8 -8 -12.5 -13.5t-9.5 -5.5q-4 0 -4 2v34.5v81v112v128t0.5 128t0.5 112v81v34.5zM99 820q-37 0 -54.5 21t-17.5 47q0 23 13 42t24 27h1
q2 0 2 -3q-9 -10 -9 -33q0 -26 19 -43.5t51 -17.5q42 0 62 23.5t27 60.5q1 5 6 4t3 -6q-6 -16 -16.5 -37t-26.5 -40t-37 -32t-47 -13z" />
    <glyph glyph-name="ibreve" unicode="&#x12d;" horiz-adv-x="178" 
d="M114 48q0 -5 -4.5 -13t-18.5 -23q-17 -18 -21 -18q-5 0 -5 5l-1 446q0 8 4 15t18 22t18.5 18.5t6.5 3.5q3 0 3 -7v-449zM78 558q-37 0 -54.5 21t-17.5 47q0 23 13 42t24 27h1q2 0 2 -3q-9 -10 -9 -33q0 -26 19 -43.5t51 -17.5q42 0 62 23.5t27 60.5q1 5 6 4t3 -6
q-6 -16 -16.5 -37t-26.5 -40t-37 -32t-47 -13z" />
    <glyph glyph-name="Iogonek" unicode="&#x12e;" horiz-adv-x="205" 
d="M48 -217q-32 0 -50 16t-18 43q0 15 10 33.5t24.5 38t31 40t30.5 38.5v42v84v111.5v124.5t0.5 123t0.5 108v78v33v6.5t2.5 6.5t7.5 10.5t15 17.5l15 15t9 7q4 0 4 -4v-34.5v-80.5v-111t-0.5 -127t-0.5 -127.5v-112.5v-82v-37q0 -7 -27 -41q-8 -8 -12.5 -13t-9.5 -6
q-32 -32 -44 -55t-12 -47q0 -27 16.5 -40.5t42.5 -13.5q22 0 36 14.5t23 34.5l4 -2q-5 -15 -15 -31t-22.5 -29.5t-28 -22t-32.5 -8.5z" />
    <glyph glyph-name="iogonek" unicode="&#x12f;" horiz-adv-x="178" 
d="M65 -1l-1 446q0 8 4 15t18 22t18.5 18.5t6.5 3.5q3 0 3 -7v-449q0 -5 -7 -15t-30 -36q-30 -31 -42 -53.5t-12 -45.5q0 -27 16.5 -40.5t42.5 -13.5q22 0 36 14.5t23 34.5l4 -2q-5 -15 -15 -31t-22.5 -29.5t-28 -22t-32.5 -8.5q-32 0 -50 16t-18 43q0 14 8.5 31t21 35
t27.5 36.5t29 35.5v2zM59 618q3 23 13 38.5t26 15.5q18 0 25.5 -16t5.5 -39q-3 -23 -12.5 -37t-25.5 -14q-17 0 -25.5 14.5t-6.5 37.5z" />
    <glyph glyph-name="Idotaccent" unicode="&#x130;" horiz-adv-x="205" 
d="M77 696v6.5t2.5 6.5t7.5 10.5t15 17.5l15 15t9 7q4 0 4 -4v-34.5v-80.5v-111t-0.5 -127t-0.5 -127.5v-112.5v-82v-37q0 -7 -27 -41q-8 -8 -12.5 -13.5t-9.5 -5.5q-4 0 -4 2v34.5v81v112v128t0.5 128t0.5 112v81v34.5zM104 811q-17 0 -24.5 17t-5.5 44q2 28 13 45.5
t29 17.5q14 0 22 -17t6 -46t-12.5 -45t-27.5 -16z" />
    <glyph glyph-name="dotlessi" unicode="&#x131;" horiz-adv-x="178" 
d="M114 48q0 -5 -4.5 -13t-18.5 -23q-17 -18 -21 -18q-5 0 -5 5l-1 446q0 8 4 15t18 22t18.5 18.5t6.5 3.5q3 0 3 -7v-449z" />
    <glyph glyph-name="IJ" unicode="&#x132;" horiz-adv-x="483" 
d="M215 -6q-41 0 -74 16.5t-57 43.5q-1 1 2 5.5t18 18.5q29 30 32 25q28 -33 53.5 -48t66.5 -15q23 0 44 8.5t36.5 29.5t25 56t9.5 89v60.5v82.5t-0.5 93.5t-0.5 93v82.5v61q0 4 1 7t4 7t8.5 10.5t15.5 17.5q16 18 18 18q5 0 5 -6v-40.5v-90t0.5 -115t0.5 -115v-92v-44.5
q0 -50 -22 -96.5t-54 -82.5t-68 -58t-64 -22zM80 163q-4 0 -4 2v27v60.5v82.5v94t0.5 94t0.5 82.5v60.5v27v6.5t2.5 6.5t7.5 10.5t15 17.5l15 15t9 7q4 0 4 -4v-43v-96t-0.5 -122.5t-0.5 -123v-98v-46.5q0 -7 -27 -41q-8 -8 -12.5 -13.5t-9.5 -5.5z" />
    <glyph glyph-name="ij" unicode="&#x133;" horiz-adv-x="356" 
d="M242 445q0 8 4 14.5t21 25.5q10 11 14.5 15t6.5 4q4 0 4 -3v-495q0 -15 -3 -28t-9.5 -26t-18 -28.5t-28.5 -35.5l-10 -12q-29 -36 -50 -47t-43 -11h-38q-11 0 1 12l18 19q13 13 19 17t15 4h22q12 0 20 0.5t14 2t11 5t10 8.5q12 12 16 29.5t4 49.5v480zM114 48
q0 -5 -4.5 -13t-18.5 -23q-17 -18 -21 -18q-5 0 -5 5l-1 446q0 8 4 15t18 22t18.5 18.5t6.5 3.5q3 0 3 -7v-449zM237 618q3 23 13 38.5t26 15.5q18 0 25.5 -16t5.5 -39q-3 -23 -12.5 -37t-25.5 -14q-17 0 -25.5 14.5t-6.5 37.5zM59 618q3 23 13 38.5t26 15.5q18 0 25.5 -16
t5.5 -39q-3 -23 -12.5 -37t-25.5 -14q-17 0 -25.5 14.5t-6.5 37.5z" />
    <glyph glyph-name="Jcircumflex" unicode="&#x134;" horiz-adv-x="412" 
d="M300 223v60v81.5t-0.5 92.5t-0.5 92.5v82v60.5q0 4 1 7t4 7t8.5 10.5t15.5 17.5q16 18 18 18q5 0 5 -6v-40.5v-89t0.5 -113.5t0.5 -114.5v-91.5v-44q0 -50 -21 -96.5t-51.5 -82.5t-65 -58t-60.5 -22q-38 0 -68 16.5t-53 43.5q-1 1 2 5.5t18 18.5q27 28 32 25
q14 -16 26 -28t24.5 -19.5t26.5 -11.5t33 -4q21 0 40.5 8.5t33.5 29.5t22.5 56t8.5 89zM336 966q16 -32 28 -54t21 -38t15.5 -28t12.5 -23q1 -7 -11 -23q-13 -17 -18 -12q-11 19 -28.5 53t-43.5 81q-7 -11 -14.5 -26t-14.5 -31t-13.5 -32t-12.5 -29q-6 -14 -12 -14
q-4 0 -4 5t4 11q6 10 15.5 28.5t20.5 40t23 44.5t24 44q2 3 4.5 4t3.5 -1z" />
    <glyph glyph-name="jcircumflex" unicode="&#x135;" horiz-adv-x="178" 
d="M64 445q0 8 4 14.5t21 25.5q10 11 14.5 15t6.5 4q4 0 4 -3v-495q0 -15 -3 -28t-9.5 -26t-18 -28.5t-28.5 -35.5l-10 -12q-29 -36 -50 -47t-43 -11h-38q-11 0 1 12l18 19q13 13 19 17t15 4h22q12 0 20 0.5t14 2t11 5t10 8.5q12 12 16 29.5t4 49.5v480zM101 725
q16 -32 28 -54t21 -38t15.5 -28t12.5 -23q1 -7 -11 -23q-13 -17 -18 -12q-11 19 -28.5 53t-43.5 81q-7 -11 -14.5 -26t-14.5 -31t-13.5 -32t-12.5 -29q-6 -14 -12 -14q-4 0 -4 5t4 11q6 10 15.5 28.5t20.5 40t23 44.5t24 44q2 3 4.5 4t3.5 -1z" />
    <glyph glyph-name="Kcommaaccent" unicode="&#x136;" horiz-adv-x="522" 
d="M71 695q0 7 4 14.5t23 28.5q8 8 13.5 14t7.5 6q4 0 4 -4v-26.5v-62t-0.5 -88t-0.5 -104v-111v-107.5q35 55 73.5 115t76 118.5t72 113.5t62.5 102q1 2 15 10.5t29.5 18.5t29 17.5t15.5 7.5q3 0 3 -3q-63 -79 -117 -150.5t-105 -140.5l221 -431q1 -2 0.5 -6.5t-3.5 -7.5
q-19 -23 -25.5 -30.5t-8.5 -7.5q-3 0 -5 5l-214 429q-30 -42 -59.5 -83t-59.5 -85v-203q0 -4 -4 -13.5t-19 -25.5q-7 -8 -14 -13t-11 -5q-5 0 -5 4v34v80.5t0.5 111t0.5 126t0.5 126.5t0.5 111.5v80.5v34zM230 -234q-3 -3 -9.5 -0.5t-2.5 7.5q41 37 58.5 80.5t9.5 82.5
q-1 -10 -4 -21t-7.5 -20t-10.5 -15t-12 -6q-11 0 -18 11t-5 36q2 26 14 43.5t29 17.5q15 0 25.5 -18.5t6.5 -55.5q-1 -14 -8 -32t-17.5 -37.5t-23.5 -38.5t-25 -34z" />
    <glyph glyph-name="kcommaaccent" unicode="&#x137;" horiz-adv-x="444" 
d="M194 235q-5 5 -4 13q-20 -23 -40 -44.5t-38 -43.5v-114q0 -5 -5 -12.5t-19 -22.5q-16 -19 -21 -19t-5 5l1 722q0 8 4 14.5t21 25.5q10 11 14 15t6 4q4 0 4 -3v-606q32 40 62.5 81t57.5 77.5t48 66.5l35 50q5 5 16.5 12.5t37.5 24.5q19 12 35 17.5t19 5.5q4 0 -1 -7
q-47 -51 -98 -104.5t-102 -109.5l172 -243q4 -5 1 -11.5t-17 -20.5q-15 -16 -18 -16q-1 0 -4 4zM192 -234q-3 -3 -9.5 -0.5t-2.5 7.5q41 37 58.5 80.5t9.5 82.5q-1 -10 -4 -21t-7.5 -20t-10.5 -15t-12 -6q-11 0 -18 11t-5 36q2 26 14 43.5t29 17.5q15 0 25.5 -18.5
t6.5 -55.5q-1 -14 -8 -32t-17.5 -37.5t-23.5 -38.5t-25 -34z" />
    <glyph glyph-name="kgreenlandic" unicode="&#x138;" horiz-adv-x="439" 
d="M193 235q-5 5 -4 13q-20 -23 -40 -44.5t-38 -43.5v-114q0 -5 -5 -12.5t-19 -22.5q-16 -19 -21 -19t-5 5l1 447q0 8 4 14.5t21 25.5q10 11 14 15t6 4q4 0 4 -3v-331q32 40 62.5 81t57.5 77.5t48 66.5l35 50q5 5 16.5 12.5t37.5 24.5q19 12 35 17.5t19 5.5q4 0 -1 -7
q-47 -51 -98 -104.5t-102 -109.5l172 -243q4 -5 1 -11.5t-17 -20.5q-15 -16 -18 -16q-1 0 -4 4z" />
    <glyph glyph-name="Lacute" unicode="&#x139;" horiz-adv-x="415" 
d="M72 692q0 8 4 16.5t19 25.5q23 26 25 26q4 0 4 -4v-33.5v-76.5v-106t-0.5 -120.5t-0.5 -121v-107v-79v-36.5q0 -9 -3.5 -18.5t-12.5 -23.5q5 7 13 11t21 4h198q26 0 35.5 2.5t11.5 2.5t2 -3t-9 -18.5t-19 -26.5q-5 -4 -13 -5t-25 -1h-19h-38.5t-47.5 0.5t-47.5 0.5h-38
h-18.5q-14 0 -21.5 -0.5t-9.5 -1.5l-2 -3q-7 -8 -8 -8q-2 0 -2 8v47v84t0.5 108.5t0.5 120t0.5 118t0.5 104v77v37.5zM102 802q-5 0 -5 4q0 2 3 5q18 17 32.5 46.5t26 59t18.5 52.5t9 28q7 17 15 20q4 1 8 -8t7.5 -21t5.5 -24t1 -16t-4 -10t-7 -11q-4 -6 -14.5 -18.5
t-25 -29t-31.5 -35.5t-33 -38q-3 -4 -6 -4z" />
    <glyph glyph-name="lacute" unicode="&#x13a;" horiz-adv-x="182" 
d="M116 47q0 -5 -4.5 -13.5t-18.5 -23.5q-9 -10 -14.5 -13.5t-7.5 -3.5q-5 0 -5 5l2 721q0 8 3.5 14.5t20.5 25.5q10 11 14.5 15t6.5 4q4 0 4 -3v-46v-82v-106.5t-0.5 -119.5t-0.5 -121v-110.5v-88v-54.5zM88 818q-5 0 -5 4q0 2 3 5q18 17 32.5 46.5t26 59t18.5 52.5t9 28
q7 17 15 20q4 1 8 -8t7.5 -21t5.5 -24t1 -16t-4 -10t-7 -11q-4 -6 -14.5 -18.5t-25 -29t-31.5 -35.5t-33 -38q-3 -4 -6 -4z" />
    <glyph glyph-name="Lcommaaccent" unicode="&#x13b;" horiz-adv-x="415" 
d="M72 692q0 8 4 16.5t19 25.5q23 26 25 26q4 0 4 -4v-33.5v-76.5v-106t-0.5 -120.5t-0.5 -121v-107v-79v-36.5q0 -9 -3.5 -18.5t-12.5 -23.5q5 7 13 11t21 4h198q26 0 35.5 2.5t11.5 2.5t2 -3t-9 -18.5t-19 -26.5q-5 -4 -13 -5t-25 -1h-19h-38.5t-47.5 0.5t-47.5 0.5h-38
h-18.5q-14 0 -21.5 -0.5t-9.5 -1.5l-2 -3q-7 -8 -8 -8q-2 0 -2 8v47v84t0.5 108.5t0.5 120t0.5 118t0.5 104v77v37.5zM179 -283q-3 -3 -9.5 -0.5t-2.5 7.5q41 37 58.5 80.5t9.5 82.5q-1 -10 -4 -21t-7.5 -20t-10.5 -15t-12 -6q-11 0 -18 11t-5 36q2 26 14 43.5t29 17.5
q15 0 25.5 -18.5t6.5 -55.5q-1 -14 -8 -32t-17.5 -37.5t-23.5 -38.5t-25 -34z" />
    <glyph glyph-name="lcommaaccent" unicode="&#x13c;" horiz-adv-x="182" 
d="M116 47q0 -5 -4.5 -13.5t-18.5 -23.5q-9 -10 -14.5 -13.5t-7.5 -3.5q-5 0 -5 5l2 721q0 8 3.5 14.5t20.5 25.5q10 11 14.5 15t6.5 4q4 0 4 -3v-46v-82v-106.5t-0.5 -119.5t-0.5 -121v-110.5v-88v-54.5zM51 -275q-3 -3 -9.5 -0.5t-2.5 7.5q41 37 58.5 80.5t9.5 82.5
q-1 -10 -4 -21t-7.5 -20t-10.5 -15t-12 -6q-11 0 -18 11t-5 36q2 26 14 43.5t29 17.5q15 0 25.5 -18.5t6.5 -55.5q-1 -14 -8 -32t-17.5 -37.5t-23.5 -38.5t-25 -34z" />
    <glyph glyph-name="Lcaron" unicode="&#x13d;" horiz-adv-x="415" 
d="M72 692q0 8 4 16.5t19 25.5q23 26 25 26q4 0 4 -4v-33.5v-76.5v-106t-0.5 -120.5t-0.5 -121v-107v-79v-36.5q0 -9 -3.5 -18.5t-12.5 -23.5q5 7 13 11t21 4h198q26 0 35.5 2.5t11.5 2.5t2 -3t-9 -18.5t-19 -26.5q-5 -4 -13 -5t-25 -1h-19h-38.5t-47.5 0.5t-47.5 0.5h-38
h-18.5q-14 0 -21.5 -0.5t-9.5 -1.5l-2 -3q-7 -8 -8 -8q-2 0 -2 8v47v84t0.5 108.5t0.5 120t0.5 118t0.5 104v77v37.5zM220 532q-3 -3 -9.5 -0.5t-2.5 7.5q41 37 58.5 80.5t9.5 82.5q-1 -10 -4 -21t-7.5 -20t-10.5 -15t-12 -6q-11 0 -18 11t-5 36q2 26 14 43.5t29 17.5
q15 0 25.5 -18.5t6.5 -55.5q-1 -14 -8 -32t-17.5 -37.5t-23.5 -38.5t-25 -34z" />
    <glyph glyph-name="lcaron" unicode="&#x13e;" horiz-adv-x="229" 
d="M116 47q0 -5 -4.5 -13.5t-18.5 -23.5q-9 -10 -14.5 -13.5t-7.5 -3.5q-5 0 -5 5l2 721q0 8 3.5 14.5t20.5 25.5q10 11 14.5 15t6.5 4q4 0 4 -3v-46v-82v-106.5t-0.5 -119.5t-0.5 -121v-110.5v-88v-54.5zM191 559q-3 -3 -9.5 -0.5t-2.5 7.5q41 37 58.5 80.5t9.5 82.5
q-1 -10 -4 -21t-7.5 -20t-10.5 -15t-12 -6q-11 0 -18 11t-5 36q2 26 14 43.5t29 17.5q15 0 25.5 -18.5t6.5 -55.5q-1 -14 -8 -32t-17.5 -37.5t-23.5 -38.5t-25 -34z" />
    <glyph glyph-name="Ldot" unicode="&#x13f;" horiz-adv-x="415" 
d="M72 692q0 8 4 16.5t19 25.5q23 26 25 26q4 0 4 -4v-33.5v-76.5v-106t-0.5 -120.5t-0.5 -121v-107v-79v-36.5q0 -9 -3.5 -18.5t-12.5 -23.5q5 7 13 11t21 4h198q26 0 35.5 2.5t11.5 2.5t2 -3t-9 -18.5t-19 -26.5q-5 -4 -13 -5t-25 -1h-19h-38.5t-47.5 0.5t-47.5 0.5h-38
h-18.5q-14 0 -21.5 -0.5t-9.5 -1.5l-2 -3q-7 -8 -8 -8q-2 0 -2 8v47v84t0.5 108.5t0.5 120t0.5 118t0.5 104v77v37.5zM293 331q2 29 13.5 47t29.5 18q15 0 23 -18t6 -47t-12.5 -45.5t-28.5 -16.5q-17 0 -25 17.5t-6 44.5z" />
    <glyph glyph-name="ldot" unicode="&#x140;" horiz-adv-x="291" 
d="M116 47q0 -5 -4.5 -13.5t-18.5 -23.5q-9 -10 -14.5 -13.5t-7.5 -3.5q-5 0 -5 5l2 721q0 8 3.5 14.5t20.5 25.5q10 11 14.5 15t6.5 4q4 0 4 -3v-46v-82v-106.5t-0.5 -119.5t-0.5 -121v-110.5v-88v-54.5zM199 259q2 29 13.5 47t29.5 18q15 0 23 -18t6 -47t-12.5 -45.5
t-28.5 -16.5q-17 0 -25 17.5t-6 44.5z" />
    <glyph glyph-name="Lslash" unicode="&#x141;" horiz-adv-x="420" 
d="M77 -12q-2 0 -2 8v355q-18 -12 -37 -24t-38 -25q-6 -2 -8.5 5t2.5 10l81 46v116.5t0.5 101.5t0.5 75v36q0 8 4.5 16.5t19.5 25.5q23 26 25 26q4 0 4 -4v-36.5v-83.5t-0.5 -114.5t-0.5 -127.5q31 18 63.5 38t66.5 43q4 2 10.5 -3.5t-2.5 -8.5l-138 -79v-308
q0 -9 -3.5 -18.5t-12.5 -23.5q5 7 13 11t21 4h198q26 0 35.5 2.5t11.5 2.5t2 -3t-9 -18.5t-19 -26.5q-5 -4 -13 -5t-25 -1h-19h-38.5t-47.5 0.5t-47.5 0.5h-38h-18.5q-14 0 -21.5 -0.5t-9.5 -1.5l-2 -3q-7 -8 -8 -8z" />
    <glyph glyph-name="lslash" unicode="&#x142;" horiz-adv-x="192" 
d="M121 47q0 -5 -4.5 -13.5t-18.5 -23.5q-9 -10 -14.5 -13.5t-7.5 -3.5q-5 0 -5 5l1 402l-76 -64q-5 -2 -9 4t1 10l84 61l1 308q0 8 3.5 14.5t20.5 25.5q10 11 14.5 15t6.5 4q4 0 4 -3v-42t-0.5 -75t-0.5 -97.5v-110.5q18 14 37 29.5t42 34.5q3 2 10 -2t-1 -8l-88 -65v-392z
" />
    <glyph glyph-name="Nacute" unicode="&#x143;" horiz-adv-x="569" 
d="M497 -10q-4 -1 -11 10l-407 639l21 -606q-5 -9 -12 -18t-14 -16.5t-12.5 -12.5t-6.5 -5q-4 0 -4 3q2 76 6 159.5t8 170t6 172t1 165.5l-33 52q1 4 4.5 9.5t9.5 14.5q6 8 13 15.5t9 7.5t6 -7l411 -652l-22 614q5 8 12 17.5t14 17.5t12.5 13.5t8.5 5.5t3 -3
q-1 -50 -3.5 -111t-5 -126.5t-5 -135t-4.5 -137t-2.5 -131.5t1.5 -120zM275 777q-5 0 -5 4q0 2 3 5q18 17 32.5 46.5t26 59t18.5 52.5t9 28q7 17 15 20q4 1 8 -8t7.5 -21t5.5 -24t1 -16t-4 -10t-7 -11q-4 -6 -14.5 -18.5t-25 -29t-31.5 -35.5t-33 -38q-3 -4 -6 -4z" />
    <glyph glyph-name="nacute" unicode="&#x144;" horiz-adv-x="484" 
d="M427 48q0 -5 -5 -13t-19 -23q-18 -19 -23 -19t-5 5v24.5t0.5 56.5t0.5 98v149q0 38 -10.5 64.5t-28.5 43.5t-42.5 25t-51.5 8q-66 0 -102 -38q-18 -18 -30 -42v-340q0 -5 -5 -13t-19 -23q-17 -18 -22 -18q-4 0 -4 5v447q0 8 4 14.5t21 25.5q10 11 14.5 15t6.5 4q4 0 4 -3
v-96q12 15 24 27q26 26 61.5 49t77.5 23q31 0 59 -8.5t49 -28.5t33 -53t12 -81v-285zM220 552q-5 0 -5 4q0 2 3 5q18 17 32.5 46.5t26 59t18.5 52.5t9 28q7 17 15 20q4 1 8 -8t7.5 -21t5.5 -24t1 -16t-4 -10t-7 -11q-4 -6 -14.5 -18.5t-25 -29t-31.5 -35.5t-33 -38
q-3 -4 -6 -4z" />
    <glyph glyph-name="Ncommaaccent" unicode="&#x145;" horiz-adv-x="569" 
d="M497 -10q-4 -1 -11 10l-407 639l21 -606q-5 -9 -12 -18t-14 -16.5t-12.5 -12.5t-6.5 -5q-4 0 -4 3q2 76 6 159.5t8 170t6 172t1 165.5l-33 52q1 4 4.5 9.5t9.5 14.5q6 8 13 15.5t9 7.5t6 -7l411 -652l-22 614q5 8 12 17.5t14 17.5t12.5 13.5t8.5 5.5t3 -3
q-1 -50 -3.5 -111t-5 -126.5t-5 -135t-4.5 -137t-2.5 -131.5t1.5 -120zM242 -221q-3 -3 -9.5 -0.5t-2.5 7.5q41 37 58.5 80.5t9.5 82.5q-1 -10 -4 -21t-7.5 -20t-10.5 -15t-12 -6q-11 0 -18 11t-5 36q2 26 14 43.5t29 17.5q15 0 25.5 -18.5t6.5 -55.5q-1 -14 -8 -32
t-17.5 -37.5t-23.5 -38.5t-25 -34z" />
    <glyph glyph-name="ncommaaccent" unicode="&#x146;" horiz-adv-x="484" 
d="M427 48q0 -5 -5 -13t-19 -23q-18 -19 -23 -19t-5 5v24.5t0.5 56.5t0.5 98v149q0 38 -10.5 64.5t-28.5 43.5t-42.5 25t-51.5 8q-66 0 -102 -38q-18 -18 -30 -42v-340q0 -5 -5 -13t-19 -23q-17 -18 -22 -18q-4 0 -4 5v447q0 8 4 14.5t21 25.5q10 11 14.5 15t6.5 4q4 0 4 -3
v-96q12 15 24 27q26 26 61.5 49t77.5 23q31 0 59 -8.5t49 -28.5t33 -53t12 -81v-285zM201 -234q-3 -3 -9.5 -0.5t-2.5 7.5q41 37 58.5 80.5t9.5 82.5q-1 -10 -4 -21t-7.5 -20t-10.5 -15t-12 -6q-11 0 -18 11t-5 36q2 26 14 43.5t29 17.5q15 0 25.5 -18.5t6.5 -55.5
q-1 -14 -8 -32t-17.5 -37.5t-23.5 -38.5t-25 -34z" />
    <glyph glyph-name="Ncaron" unicode="&#x147;" horiz-adv-x="569" 
d="M497 -10q-4 -1 -11 10l-407 639l21 -606q-5 -9 -12 -18t-14 -16.5t-12.5 -12.5t-6.5 -5q-4 0 -4 3q2 76 6 159.5t8 170t6 172t1 165.5l-33 52q1 4 4.5 9.5t9.5 14.5q6 8 13 15.5t9 7.5t6 -7l411 -652l-22 614q5 8 12 17.5t14 17.5t12.5 13.5t8.5 5.5t3 -3
q-1 -50 -3.5 -111t-5 -126.5t-5 -135t-4.5 -137t-2.5 -131.5t1.5 -120zM289 751q-16 32 -28 54t-21 38t-15.5 28t-12.5 23q-1 7 11 23q13 17 18 12q11 -19 28.5 -53t43.5 -81q7 11 14.5 26t14.5 31t13.5 32t12.5 29q6 14 12 14q4 0 4 -5t-4 -11q-6 -11 -15.5 -29
t-20.5 -39.5t-23 -44.5t-24 -44q-2 -3 -4.5 -4t-3.5 1z" />
    <glyph glyph-name="ncaron" unicode="&#x148;" horiz-adv-x="484" 
d="M427 48q0 -5 -5 -13t-19 -23q-18 -19 -23 -19t-5 5v24.5t0.5 56.5t0.5 98v149q0 38 -10.5 64.5t-28.5 43.5t-42.5 25t-51.5 8q-66 0 -102 -38q-18 -18 -30 -42v-340q0 -5 -5 -13t-19 -23q-17 -18 -22 -18q-4 0 -4 5v447q0 8 4 14.5t21 25.5q10 11 14.5 15t6.5 4q4 0 4 -3
v-96q12 15 24 27q26 26 61.5 49t77.5 23q31 0 59 -8.5t49 -28.5t33 -53t12 -81v-285zM236 559q-16 32 -28 54t-21 38t-15.5 28t-12.5 23q-1 7 11 23q13 17 18 12q11 -19 28.5 -53t43.5 -81q7 11 14.5 26t14.5 31t13.5 32t12.5 29q6 14 12 14q4 0 4 -5t-4 -11
q-6 -11 -15.5 -29t-20.5 -39.5t-23 -44.5t-24 -44q-2 -3 -4.5 -4t-3.5 1z" />
    <glyph glyph-name="Eng" unicode="&#x14a;" horiz-adv-x="569" 
d="M323 -226q-38 0 -68 16.5t-53 43.5q-1 1 2 5.5t18 18.5q27 28 32 25q14 -16 26 -28t24.5 -19.5t26.5 -11.5t33 -4q21 0 40.5 8.5t33.5 29.5t22.5 56t8.5 89v30l-390 606l21 -606q-5 -9 -12 -18t-14 -16.5t-12.5 -12.5t-6.5 -5q-4 0 -4 3q2 76 6 159.5t8 170t6 172
t1 165.5l-33 52q1 4 4.5 9.5t9.5 14.5q6 8 13 15.5t9 7.5t6 -7l388 -620v105.5v114.5t-0.5 114.5t-0.5 104v83.5v54q0 4 1 7t4 7t8.5 10.5t15.5 17.5q16 18 18 18q5 0 5 -6l1 -720q0 -50 -21 -96.5t-51.5 -82.5t-65 -58t-60.5 -22z" />
    <glyph glyph-name="eng" unicode="&#x14b;" horiz-adv-x="484" 
d="M427 30q0 -15 -3 -28.5t-10.5 -27t-19 -29.5t-28.5 -36l-10 -12q-29 -36 -50 -47t-43 -11h-38q-11 0 1 12l18 19q13 13 19 17t15 4h22q12 0 20 0.5t14 2t11 5t10 8.5q12 12 16 29.5t4 49.5v26.5t0.5 60.5t0.5 102v151q0 38 -10.5 64.5t-28.5 43.5t-42.5 25t-51.5 8
q-66 0 -102 -38q-18 -18 -30 -42v-340q0 -5 -5 -13t-19 -23q-17 -18 -22 -18q-4 0 -4 5v447q0 8 4 14.5t21 25.5q10 11 14.5 15t6.5 4q4 0 4 -3v-96q12 15 24 27q26 26 61.5 49t77.5 23q31 0 59 -8.5t49 -28.5t33 -53t12 -81v-303z" />
    <glyph glyph-name="Omacron" unicode="&#x14c;" horiz-adv-x="642" 
d="M327 33q106 0 161.5 86.5t55.5 261.5q0 73 -15 135t-45 107t-74 70.5t-102 25.5q-47 0 -85.5 -20t-66 -63t-42.5 -110.5t-15 -161.5q0 -77 17.5 -138.5t48 -104t72 -65.5t90.5 -23zM303 -14q-55 0 -101 21.5t-79.5 64t-52.5 104.5t-19 143q0 99 26 180t67.5 138.5
t93 89.5t101.5 33q57 0 103 -22.5t79 -65.5t50.5 -105t17.5 -140q0 -93 -27 -173.5t-68.5 -140t-92 -93.5t-98.5 -34zM407 832q-9 0 -28.5 0.5t-40.5 1t-40.5 1t-29.5 0.5q-13 0 -21 -1t-10 -1t-2 2q0 3 7 14t15 21q9 12 26 12q13 0 34.5 -0.5t44 -0.5t42 -0.5t28.5 -0.5
q19 0 24 2t7 2t2 -2q0 -3 -8 -17.5t-16 -25.5q-5 -3 -12 -5t-22 -2z" />
    <glyph glyph-name="omacron" unicode="&#x14d;" horiz-adv-x="519" 
d="M360 579q-9 0 -28.5 0.5t-40.5 1t-40.5 1t-29.5 0.5q-13 0 -21 -1t-10 -1t-2 2q0 3 7 14t15 21q9 12 26 12q13 0 34.5 -0.5t44 -0.5t42 -0.5t28.5 -0.5q19 0 24 2t7 2t2 -2q0 -3 -8 -17.5t-16 -25.5q-5 -3 -12 -5t-22 -2zM280 33q37 0 67.5 17t47.5 42q23 33 31 72.5
t8 84.5q0 54 -14 94.5t-38.5 67.5t-57 40.5t-68.5 13.5q-41 0 -71 -15t-53 -46t-29.5 -64.5t-6.5 -81.5q0 -54 14.5 -95.5t40 -70.5t58.5 -44t71 -15zM247 -6q-44 0 -81 16t-63.5 45.5t-41.5 71t-15 93.5q0 54 24.5 100t55.5 88q29 39 73 67.5t91 28.5q42 0 77.5 -14.5
t61.5 -43t40.5 -69.5t14.5 -95t-25.5 -103t-57.5 -92q-13 -18 -30.5 -34.5t-38 -29.5t-42.5 -21t-43 -8z" />
    <glyph glyph-name="Obreve" unicode="&#x14e;" horiz-adv-x="642" 
d="M327 33q106 0 161.5 86.5t55.5 261.5q0 73 -15 135t-45 107t-74 70.5t-102 25.5q-47 0 -85.5 -20t-66 -63t-42.5 -110.5t-15 -161.5q0 -77 17.5 -138.5t48 -104t72 -65.5t90.5 -23zM303 -14q-55 0 -101 21.5t-79.5 64t-52.5 104.5t-19 143q0 99 26 180t67.5 138.5
t93 89.5t101.5 33q57 0 103 -22.5t79 -65.5t50.5 -105t17.5 -140q0 -93 -27 -173.5t-68.5 -140t-92 -93.5t-98.5 -34zM323 823q-37 0 -54.5 21t-17.5 47q0 23 13 42t24 27h1q2 0 2 -3q-9 -10 -9 -33q0 -26 19 -43.5t51 -17.5q42 0 62 23.5t27 60.5q1 5 6 4t3 -6
q-6 -16 -16.5 -37t-26.5 -40t-37 -32t-47 -13z" />
    <glyph glyph-name="obreve" unicode="&#x14f;" horiz-adv-x="519" 
d="M280 33q37 0 67.5 17t47.5 42q23 33 31 72.5t8 84.5q0 54 -14 94.5t-38.5 67.5t-57 40.5t-68.5 13.5q-41 0 -71 -15t-53 -46t-29.5 -64.5t-6.5 -81.5q0 -54 14.5 -95.5t40 -70.5t58.5 -44t71 -15zM247 -6q-44 0 -81 16t-63.5 45.5t-41.5 71t-15 93.5q0 54 24.5 100
t55.5 88q29 39 73 67.5t91 28.5q42 0 77.5 -14.5t61.5 -43t40.5 -69.5t14.5 -95t-25.5 -103t-57.5 -92q-13 -18 -30.5 -34.5t-38 -29.5t-42.5 -21t-43 -8zM262 566q-37 0 -54.5 21t-17.5 47q0 23 13 42t24 27h1q2 0 2 -3q-9 -10 -9 -33q0 -26 19 -43.5t51 -17.5
q42 0 62 23.5t27 60.5q1 5 6 4t3 -6q-6 -16 -16.5 -37t-26.5 -40t-37 -32t-47 -13z" />
    <glyph glyph-name="Ohungarumlaut" unicode="&#x150;" horiz-adv-x="642" 
d="M327 33q106 0 161.5 86.5t55.5 261.5q0 73 -15 135t-45 107t-74 70.5t-102 25.5q-47 0 -85.5 -20t-66 -63t-42.5 -110.5t-15 -161.5q0 -77 17.5 -138.5t48 -104t72 -65.5t90.5 -23zM303 -14q-55 0 -101 21.5t-79.5 64t-52.5 104.5t-19 143q0 99 26 180t67.5 138.5
t93 89.5t101.5 33q57 0 103 -22.5t79 -65.5t50.5 -105t17.5 -140q0 -93 -27 -173.5t-68.5 -140t-92 -93.5t-98.5 -34zM357 812q-4 0 -4 4q0 1 3 4q21 17 43 42t41 48.5t32.5 41.5t16.5 23q5 7 9.5 11.5t9.5 4.5q4 0 7 -6.5t5.5 -15t3 -17t-1.5 -12.5t-6 -9t-9 -10
q-5 -6 -21.5 -16t-37.5 -24t-44.5 -31t-42.5 -36q-2 -2 -4 -2zM254 812q-4 0 -4 4q0 1 3 4q21 17 39.5 42t33.5 48.5t25 41.5t13 23q5 7 9.5 11.5t9.5 4.5q4 0 7 -6.5t5.5 -15t3 -17t-1.5 -12.5t-6 -9t-9 -10q-5 -6 -18 -16t-30 -24t-37 -31t-39 -36q-2 -2 -4 -2z" />
    <glyph glyph-name="ohungarumlaut" unicode="&#x151;" horiz-adv-x="519" 
d="M280 33q37 0 67.5 17t47.5 42q23 33 31 72.5t8 84.5q0 54 -14 94.5t-38.5 67.5t-57 40.5t-68.5 13.5q-41 0 -71 -15t-53 -46t-29.5 -64.5t-6.5 -81.5q0 -54 14.5 -95.5t40 -70.5t58.5 -44t71 -15zM247 -6q-44 0 -81 16t-63.5 45.5t-41.5 71t-15 93.5q0 54 24.5 100
t55.5 88q29 39 73 67.5t91 28.5q42 0 77.5 -14.5t61.5 -43t40.5 -69.5t14.5 -95t-25.5 -103t-57.5 -92q-13 -18 -30.5 -34.5t-38 -29.5t-42.5 -21t-43 -8zM286 548q-4 0 -4 4q0 1 3 4q21 17 43 42t41 48.5t32.5 41.5t16.5 23q5 7 9.5 11.5t9.5 4.5q4 0 7 -6.5t5.5 -15t3 -17
t-1.5 -12.5t-6 -9t-9 -10q-5 -6 -21.5 -16t-37.5 -24t-44.5 -31t-42.5 -36q-2 -2 -4 -2zM183 548q-4 0 -4 4q0 1 3 4q21 17 39.5 42t33.5 48.5t25 41.5t13 23q5 7 9.5 11.5t9.5 4.5q4 0 7 -6.5t5.5 -15t3 -17t-1.5 -12.5t-6 -9t-9 -10q-5 -6 -18 -16t-30 -24t-37 -31
t-39 -36q-2 -2 -4 -2z" />
    <glyph glyph-name="OE" unicode="&#x152;" horiz-adv-x="868" 
d="M479 -12q-2 0 -2 6v97q-40 -50 -85.5 -77.5t-88.5 -27.5q-55 0 -101 21.5t-79.5 64t-52.5 104.5t-19 143q0 99 26 180t67.5 138.5t93 89.5t101.5 33q42 0 75.5 -13.5t61.5 -45.5l41 44l18 -1h233q23 0 28.5 3t7.5 3q3 0 3 -4q0 -2 -10 -16t-21 -29q-5 -1 -11.5 -1.5
t-23.5 -0.5h-213v-340l15 20q9 12 14.5 15t15.5 3h19h36t45 -0.5t45 -0.5h36h19q22 0 28 3t8 3q3 0 3 -3q0 -4 -11 -18.5t-19 -24.5q-5 -4 -13 -5t-25 -1h-17.5h-34.5t-43 0.5t-42.5 0.5h-34h-17.5q-14 0 -19.5 -1t-7.5 -1v-300q0 -3 -1 -5q5 4 14 4h280q22 0 28.5 2t8.5 2
t2 -2t-10 -17.5t-18 -26.5q-5 -4 -13 -5t-25 -1h-23.5h-49.5t-62 0.5t-62 0.5h-49h-23q-15 0 -22.5 -1t-9.5 -1l-1 1l-5 -6q-4 -3 -5 -4.5t-3 -1.5zM327 33q95 0 150 70v513q-30 57 -71 80t-98 23q-47 0 -85.5 -20t-66 -63t-42.5 -110.5t-15 -161.5q0 -77 17.5 -138.5
t48 -104t72 -65.5t90.5 -23z" />
    <glyph glyph-name="oe" unicode="&#x153;" horiz-adv-x="891" 
d="M518 414q30 38 74 64t94 26q38 0 68.5 -12.5t52.5 -34t35.5 -49.5t17.5 -59q0 -1 -10 -12.5t-23 -26.5t-25.5 -29.5t-18.5 -21.5q-12 -7 -45 -7h-132q-18 0 -34.5 -2.5t-28.5 -7.5q-23 -10 -34 -32q-5 -11 -8 -25.5t5 -36.5q22 -55 68 -85t113 -30q48 0 80.5 18t58.5 48
q7 8 14 18t15 21l5 -4q-7 -11 -14 -21.5t-14 -18.5q-30 -39 -75.5 -69.5t-106.5 -30.5q-45 0 -80 12.5t-60.5 34t-42 50t-24.5 60.5q-10 -17 -20.5 -33t-21.5 -31q-13 -18 -30.5 -34.5t-38 -29.5t-42.5 -21t-43 -8q-44 0 -81 16t-63.5 45.5t-41.5 71t-15 93.5q0 54 24.5 100
t55.5 88q29 39 73 67.5t91 28.5q68 0 118 -38.5t68 -110.5q9 15 19.5 29.5t22.5 29.5zM280 33q37 0 67.5 17t47.5 42q23 33 31 72.5t8 84.5q0 54 -14 94.5t-38.5 67.5t-57 40.5t-68.5 13.5q-41 0 -71 -15t-53 -46t-29.5 -64.5t-6.5 -81.5q0 -54 14.5 -95.5t40 -70.5
t58.5 -44t71 -15zM502 213q8 17 20.5 34.5t26.5 27.5q20 15 41.5 20t59.5 5h38.5t38.5 -0.5t32 -0.5h20q18 0 27 4t10 6q-8 73 -52.5 115t-114.5 42q-44 0 -74 -15t-51 -41q-20 -25 -28.5 -59t-8.5 -93q0 -20 1.5 -39.5t6.5 -36.5q1 20 7 31z" />
    <glyph glyph-name="Racute" unicode="&#x154;" horiz-adv-x="484" 
d="M84 -8q-2 -2 -4 -3.5t-4 -1.5q-4 0 -4 4v43.5v81v105.5t0.5 117.5t0.5 116v102.5v76v37l-15 6v3q1 1 9 10t18 19.5t19.5 20t12.5 13.5h6l1 -2v-54q13 12 28.5 24t34 22t40.5 16.5t48 6.5q38 0 69.5 -14t53.5 -37t34 -54.5t12 -65.5q0 -39 -16.5 -74.5t-46 -64.5t-70 -50
t-88.5 -31l217 -336q0 -7 -21 -31q-8 -8 -10.5 -10t-4.5 -2t-3.5 1.5t-5.5 7.5l-235 376q-3 6 -4 8.5t1 5.5q4 5 8.5 10t8.5 9q6 6 8.5 7.5t3.5 1.5q11 -6 29.5 -12t49.5 -6q57 0 94 41.5t37 120.5q0 34 -11.5 63t-32 50t-49 33t-63.5 12q-71 0 -116 -34v-628q0 -5 -1 -9.5
t-5 -11.5t-12 -16t-22 -23zM234 806q-5 0 -5 4q0 2 3 5q18 17 32.5 46.5t26 59t18.5 52.5t9 28q7 17 15 20q4 1 8 -8t7.5 -21t5.5 -24t1 -16t-4 -10t-7 -11q-4 -6 -14.5 -18.5t-25 -29t-31.5 -35.5t-33 -38q-3 -4 -6 -4z" />
    <glyph glyph-name="racute" unicode="&#x155;" horiz-adv-x="282" 
d="M112 41q0 -5 -5 -13t-19 -23q-17 -18 -22 -18q-4 0 -4 5v453q0 8 4 14.5t21 25.5q10 11 15 15t7 4q4 0 4 -3v-98q8 12 17 23l15 18q22 26 43.5 40.5t55.5 14.5h35q10 0 2 -11l-11 -14q-12 -15 -18.5 -19.5t-14.5 -4.5h-16q-35 0 -54.5 -8.5t-33.5 -22.5q-8 -8 -20 -25z
M166 561q-5 0 -5 4q0 2 3 5q18 17 32.5 46.5t26 59t18.5 52.5t9 28q7 17 15 20q4 1 8 -8t7.5 -21t5.5 -24t1 -16t-4 -10t-7 -11q-4 -6 -14.5 -18.5t-25 -29t-31.5 -35.5t-33 -38q-3 -4 -6 -4z" />
    <glyph glyph-name="Rcommaaccent" unicode="&#x156;" horiz-adv-x="484" 
d="M84 -8q-2 -2 -4 -3.5t-4 -1.5q-4 0 -4 4v43.5v81v105.5t0.5 117.5t0.5 116v102.5v76v37l-15 6v3q1 1 9 10t18 19.5t19.5 20t12.5 13.5h6l1 -2v-54q13 12 28.5 24t34 22t40.5 16.5t48 6.5q38 0 69.5 -14t53.5 -37t34 -54.5t12 -65.5q0 -39 -16.5 -74.5t-46 -64.5t-70 -50
t-88.5 -31l217 -336q0 -7 -21 -31q-8 -8 -10.5 -10t-4.5 -2t-3.5 1.5t-5.5 7.5l-235 376q-3 6 -4 8.5t1 5.5q4 5 8.5 10t8.5 9q6 6 8.5 7.5t3.5 1.5q11 -6 29.5 -12t49.5 -6q57 0 94 41.5t37 120.5q0 34 -11.5 63t-32 50t-49 33t-63.5 12q-71 0 -116 -34v-628q0 -5 -1 -9.5
t-5 -11.5t-12 -16t-22 -23zM208 -234q-3 -3 -9.5 -0.5t-2.5 7.5q41 37 58.5 80.5t9.5 82.5q-1 -10 -4 -21t-7.5 -20t-10.5 -15t-12 -6q-11 0 -18 11t-5 36q2 26 14 43.5t29 17.5q15 0 25.5 -18.5t6.5 -55.5q-1 -14 -8 -32t-17.5 -37.5t-23.5 -38.5t-25 -34z" />
    <glyph glyph-name="rcommaaccent" unicode="&#x157;" horiz-adv-x="282" 
d="M112 41q0 -5 -5 -13t-19 -23q-17 -18 -22 -18q-4 0 -4 5v453q0 8 4 14.5t21 25.5q10 11 15 15t7 4q4 0 4 -3v-98q8 12 17 23l15 18q22 26 43.5 40.5t55.5 14.5h35q10 0 2 -11l-11 -14q-12 -15 -18.5 -19.5t-14.5 -4.5h-16q-35 0 -54.5 -8.5t-33.5 -22.5q-8 -8 -20 -25z
M53 -283q-3 -3 -9.5 -0.5t-2.5 7.5q41 37 58.5 80.5t9.5 82.5q-1 -10 -4 -21t-7.5 -20t-10.5 -15t-12 -6q-11 0 -18 11t-5 36q2 26 14 43.5t29 17.5q15 0 25.5 -18.5t6.5 -55.5q-1 -14 -8 -32t-17.5 -37.5t-23.5 -38.5t-25 -34z" />
    <glyph glyph-name="Rcaron" unicode="&#x158;" horiz-adv-x="484" 
d="M84 -8q-2 -2 -4 -3.5t-4 -1.5q-4 0 -4 4v43.5v81v105.5t0.5 117.5t0.5 116v102.5v76v37l-15 6v3q1 1 9 10t18 19.5t19.5 20t12.5 13.5h6l1 -2v-54q13 12 28.5 24t34 22t40.5 16.5t48 6.5q38 0 69.5 -14t53.5 -37t34 -54.5t12 -65.5q0 -39 -16.5 -74.5t-46 -64.5t-70 -50
t-88.5 -31l217 -336q0 -7 -21 -31q-8 -8 -10.5 -10t-4.5 -2t-3.5 1.5t-5.5 7.5l-235 376q-3 6 -4 8.5t1 5.5q4 5 8.5 10t8.5 9q6 6 8.5 7.5t3.5 1.5q11 -6 29.5 -12t49.5 -6q57 0 94 41.5t37 120.5q0 34 -11.5 63t-32 50t-49 33t-63.5 12q-71 0 -116 -34v-628q0 -5 -1 -9.5
t-5 -11.5t-12 -16t-22 -23zM237 808q-16 32 -28 54t-21 38t-15.5 28t-12.5 23q-1 7 11 23q13 17 18 12q11 -19 28.5 -53t43.5 -81q7 11 14.5 26t14.5 31t13.5 32t12.5 29q6 14 12 14q4 0 4 -5t-4 -11q-6 -11 -15.5 -29t-20.5 -39.5t-23 -44.5t-24 -44q-2 -3 -4.5 -4t-3.5 1z
" />
    <glyph glyph-name="rcaron" unicode="&#x159;" horiz-adv-x="282" 
d="M112 41q0 -5 -5 -13t-19 -23q-17 -18 -22 -18q-4 0 -4 5v453q0 8 4 14.5t21 25.5q10 11 15 15t7 4q4 0 4 -3v-98q8 12 17 23l15 18q22 26 43.5 40.5t55.5 14.5h35q10 0 2 -11l-11 -14q-12 -15 -18.5 -19.5t-14.5 -4.5h-16q-35 0 -54.5 -8.5t-33.5 -22.5q-8 -8 -20 -25z
M163 571q-16 32 -28 54t-21 38t-15.5 28t-12.5 23q-1 7 11 23q13 17 18 12q11 -19 28.5 -53t43.5 -81q7 11 14.5 26t14.5 31t13.5 32t12.5 29q6 14 12 14q4 0 4 -5t-4 -11q-6 -11 -15.5 -29t-20.5 -39.5t-23 -44.5t-24 -44q-2 -3 -4.5 -4t-3.5 1z" />
    <glyph glyph-name="Sacute" unicode="&#x15a;" horiz-adv-x="457" 
d="M201 -13q-51 0 -92 19.5t-70 54.5q-2 2 1.5 7t20.5 22q15 15 20.5 18.5t7.5 1.5q35 -38 71.5 -57.5t88.5 -19.5q65 0 97.5 40t32.5 103q0 46 -24 80t-60 61.5t-78 52.5t-78 52.5t-60 61.5t-24 80q0 35 20 70t49 63t63 45.5t63 17.5q49 0 82 -14t66 -43q2 -2 -1.5 -7
t-17.5 -19t-18.5 -16t-6.5 -1q-25 25 -59.5 41.5t-82.5 16.5q-54 0 -83 -29t-29 -89q0 -45 24 -78.5t60 -61t78 -52t78 -51.5t60 -60.5t24 -77.5q0 -35 -18.5 -75.5t-49.5 -75.5t-71.5 -58t-83.5 -23zM217 807q-5 0 -5 4q0 2 3 5q18 17 32.5 46.5t26 59t18.5 52.5t9 28
q7 17 15 20q4 1 8 -8t7.5 -21t5.5 -24t1 -16t-4 -10t-7 -11q-4 -6 -14.5 -18.5t-25 -29t-31.5 -35.5t-33 -38q-3 -4 -6 -4z" />
    <glyph glyph-name="sacute" unicode="&#x15b;" horiz-adv-x="373" 
d="M331 155q0 -27 -15.5 -52t-38.5 -49q-26 -26 -53 -43t-65 -17q-42 0 -72.5 16.5t-56.5 45.5q-1 2 1 7.5t13 16.5q10 10 15 13.5t7 3.5q25 -30 56 -47t73 -17q29 0 47 6t30 19q13 14 17.5 29.5t4.5 35.5q0 28 -18.5 47.5t-45.5 34.5t-59.5 28.5t-59.5 29.5t-45.5 36.5
t-18.5 51.5q0 23 13 49.5t34 46.5q22 22 49.5 39.5t62.5 17.5q33 0 60 -8.5t52 -34.5q2 -2 -1 -7t-14 -17t-17 -15.5t-8 -1.5q-21 26 -48 37.5t-59 11.5q-46 0 -72 -26q-11 -11 -16.5 -23.5t-5.5 -30.5q0 -27 19 -45.5t47 -34t61 -29.5t61 -31t47 -39.5t19 -54.5zM174 557
q-5 0 -5 4q0 2 3 5q18 17 32.5 46.5t26 59t18.5 52.5t9 28q7 17 15 20q4 1 8 -8t7.5 -21t5.5 -24t1 -16t-4 -10t-7 -11q-4 -6 -14.5 -18.5t-25 -29t-31.5 -35.5t-33 -38q-3 -4 -6 -4z" />
    <glyph glyph-name="Scircumflex" unicode="&#x15c;" horiz-adv-x="457" 
d="M201 -13q-51 0 -92 19.5t-70 54.5q-2 2 1.5 7t20.5 22q15 15 20.5 18.5t7.5 1.5q35 -38 71.5 -57.5t88.5 -19.5q65 0 97.5 40t32.5 103q0 46 -24 80t-60 61.5t-78 52.5t-78 52.5t-60 61.5t-24 80q0 35 20 70t49 63t63 45.5t63 17.5q49 0 82 -14t66 -43q2 -2 -1.5 -7
t-17.5 -19t-18.5 -16t-6.5 -1q-25 25 -59.5 41.5t-82.5 16.5q-54 0 -83 -29t-29 -89q0 -45 24 -78.5t60 -61t78 -52t78 -51.5t60 -60.5t24 -77.5q0 -35 -18.5 -75.5t-49.5 -75.5t-71.5 -58t-83.5 -23zM262 983q16 -32 28 -54t21 -38t15.5 -28t12.5 -23q1 -7 -11 -23
q-13 -17 -18 -12q-11 19 -28.5 53t-43.5 81q-7 -11 -14.5 -26t-14.5 -31t-13.5 -32t-12.5 -29q-6 -14 -12 -14q-4 0 -4 5t4 11q6 10 15.5 28.5t20.5 40t23 44.5t24 44q2 3 4.5 4t3.5 -1z" />
    <glyph glyph-name="scircumflex" unicode="&#x15d;" horiz-adv-x="373" 
d="M331 155q0 -27 -15.5 -52t-38.5 -49q-26 -26 -53 -43t-65 -17q-42 0 -72.5 16.5t-56.5 45.5q-1 2 1 7.5t13 16.5q10 10 15 13.5t7 3.5q25 -30 56 -47t73 -17q29 0 47 6t30 19q13 14 17.5 29.5t4.5 35.5q0 28 -18.5 47.5t-45.5 34.5t-59.5 28.5t-59.5 29.5t-45.5 36.5
t-18.5 51.5q0 23 13 49.5t34 46.5q22 22 49.5 39.5t62.5 17.5q33 0 60 -8.5t52 -34.5q2 -2 -1 -7t-14 -17t-17 -15.5t-8 -1.5q-21 26 -48 37.5t-59 11.5q-46 0 -72 -26q-11 -11 -16.5 -23.5t-5.5 -30.5q0 -27 19 -45.5t47 -34t61 -29.5t61 -31t47 -39.5t19 -54.5zM204 743
q16 -32 28 -54t21 -38t15.5 -28t12.5 -23q1 -7 -11 -23q-13 -17 -18 -12q-11 19 -28.5 53t-43.5 81q-7 -11 -14.5 -26t-14.5 -31t-13.5 -32t-12.5 -29q-6 -14 -12 -14q-4 0 -4 5t4 11q6 10 15.5 28.5t20.5 40t23 44.5t24 44q2 3 4.5 4t3.5 -1z" />
    <glyph glyph-name="Scedilla" unicode="&#x15e;" horiz-adv-x="457" 
d="M201 -13q-51 0 -92 19.5t-70 54.5q-2 2 1.5 7t20.5 22q15 15 20.5 18.5t7.5 1.5q35 -38 71.5 -57.5t88.5 -19.5q65 0 97.5 40t32.5 103q0 46 -24 80t-60 61.5t-78 52.5t-78 52.5t-60 61.5t-24 80q0 35 20 70t49 63t63 45.5t63 17.5q49 0 82 -14t66 -43q2 -2 -1.5 -7
t-17.5 -19t-18.5 -16t-6.5 -1q-25 25 -59.5 41.5t-82.5 16.5q-54 0 -83 -29t-29 -89q0 -45 24 -78.5t60 -61t78 -52t78 -51.5t60 -60.5t24 -77.5q0 -33 -17 -72t-46 -72.5t-66.5 -58t-78.5 -28.5q-15 -20 -30.5 -40t-26.5 -35q-3 -3 -0.5 -4t5.5 1q8 5 28.5 11.5t41.5 6.5
q38 1 60 -17.5t22 -46.5q0 -20 -12 -45.5t-31.5 -48t-43.5 -38.5t-47 -16q-32 0 -46.5 12t-14.5 29q0 20 15 42.5t35 37.5l2 -3q-14 -15 -14 -37q0 -17 16 -28t45 -11q34 0 50.5 20t16.5 49q0 32 -24.5 45t-66.5 13q-19 0 -34.5 -3.5t-27 -7.5t-18.5 -7.5t-9 -3.5
q-4 0 -5 2.5t3 5.5q35 29 59 59.5t38 56.5h-1v0z" />
    <glyph glyph-name="scedilla" unicode="&#x15f;" horiz-adv-x="373" 
d="M147 -264q-32 0 -46.5 12t-14.5 29q0 20 15 42.5t35 37.5l2 -3q-14 -15 -14 -37q0 -17 16 -28t45 -11q34 0 50.5 20t16.5 49q0 32 -24.5 45t-66.5 13q-19 0 -34.5 -3.5t-27 -7.5t-18.5 -7.5t-9 -3.5q-4 0 -5 2.5t3 5.5q32 26 54 52.5t36 50.5h-1q-42 0 -72.5 16.5
t-56.5 45.5q-1 2 1 7.5t13 16.5q10 10 15 13.5t7 3.5q25 -30 56 -47t73 -17q29 0 47 6t30 19q13 14 17.5 29.5t4.5 35.5q0 28 -18.5 47.5t-45.5 34.5t-59.5 28.5t-59.5 29.5t-45.5 36.5t-18.5 51.5q0 23 13 49.5t34 46.5q22 22 49.5 39.5t62.5 17.5q33 0 60 -8.5t52 -34.5
q2 -2 -1 -7t-14 -17t-17 -15.5t-8 -1.5q-21 26 -48 37.5t-59 11.5q-46 0 -72 -26q-11 -11 -16.5 -23.5t-5.5 -30.5q0 -27 19 -45.5t47 -34t61 -29.5t61 -31t47 -39.5t19 -54.5q0 -27 -15.5 -52t-38.5 -49t-48.5 -40.5t-57.5 -18.5q-14 -17 -26.5 -33t-20.5 -29
q-3 -3 -0.5 -4t5.5 1q8 5 28.5 11.5t41.5 6.5q38 1 60 -17.5t22 -46.5q0 -20 -12 -45.5t-31.5 -48t-43.5 -38.5t-47 -16z" />
    <glyph glyph-name="Scaron" unicode="&#x160;" horiz-adv-x="457" 
d="M201 -13q-51 0 -92 19.5t-70 54.5q-2 2 1.5 7t20.5 22q15 15 20.5 18.5t7.5 1.5q35 -38 71.5 -57.5t88.5 -19.5q65 0 97.5 40t32.5 103q0 46 -24 80t-60 61.5t-78 52.5t-78 52.5t-60 61.5t-24 80q0 35 20 70t49 63t63 45.5t63 17.5q49 0 82 -14t66 -43q2 -2 -1.5 -7
t-17.5 -19t-18.5 -16t-6.5 -1q-25 25 -59.5 41.5t-82.5 16.5q-54 0 -83 -29t-29 -89q0 -45 24 -78.5t60 -61t78 -52t78 -51.5t60 -60.5t24 -77.5q0 -35 -18.5 -75.5t-49.5 -75.5t-71.5 -58t-83.5 -23zM237 814q-16 32 -28 54t-21 38t-15.5 28t-12.5 23q-1 7 11 23
q13 17 18 12q11 -19 28.5 -53t43.5 -81q7 11 14.5 26t14.5 31t13.5 32t12.5 29q6 14 12 14q4 0 4 -5t-4 -11q-6 -11 -15.5 -29t-20.5 -39.5t-23 -44.5t-24 -44q-2 -3 -4.5 -4t-3.5 1z" />
    <glyph glyph-name="scaron" unicode="&#x161;" horiz-adv-x="373" 
d="M331 155q0 -27 -15.5 -52t-38.5 -49q-26 -26 -53 -43t-65 -17q-42 0 -72.5 16.5t-56.5 45.5q-1 2 1 7.5t13 16.5q10 10 15 13.5t7 3.5q25 -30 56 -47t73 -17q29 0 47 6t30 19q13 14 17.5 29.5t4.5 35.5q0 28 -18.5 47.5t-45.5 34.5t-59.5 28.5t-59.5 29.5t-45.5 36.5
t-18.5 51.5q0 23 13 49.5t34 46.5q22 22 49.5 39.5t62.5 17.5q33 0 60 -8.5t52 -34.5q2 -2 -1 -7t-14 -17t-17 -15.5t-8 -1.5q-21 26 -48 37.5t-59 11.5q-46 0 -72 -26q-11 -11 -16.5 -23.5t-5.5 -30.5q0 -27 19 -45.5t47 -34t61 -29.5t61 -31t47 -39.5t19 -54.5zM188 557
q-16 32 -28 54t-21 38t-15.5 28t-12.5 23q-1 7 11 23q13 17 18 12q11 -19 28.5 -53t43.5 -81q7 11 14.5 26t14.5 31t13.5 32t12.5 29q6 14 12 14q4 0 4 -5t-4 -11q-6 -11 -15.5 -29t-20.5 -39.5t-23 -44.5t-24 -44q-2 -3 -4.5 -4t-3.5 1z" />
    <glyph glyph-name="Tcommaaccent" unicode="&#x162;" horiz-adv-x="403" 
d="M177 642q0 8 5.5 16t21.5 27l16 18q-28 0 -56 0.5t-51 1t-38 0.5h-18q-14 0 -25.5 -1.5t-13.5 -1.5q-3 0 -3 3q0 2 3 7.5t14 16.5q11 13 16 17t10 4h306q22 0 30.5 1.5t10.5 1.5q3 0 3 -3t-8.5 -16t-19.5 -26q-5 -4 -13 -4.5t-25 -0.5h-115l1 -2v-32v-74.5v-102.5
t-0.5 -117t-0.5 -117.5v-103.5v-76v-35q0 -7 -27 -41q-8 -8 -12.5 -13.5t-9.5 -5.5q-4 0 -4 2v32.5v75t0.5 103t0.5 117.5t0.5 118t1 103.5t0.5 75v32.5zM168 -274q-3 -3 -9.5 -0.5t-2.5 7.5q41 37 58.5 80.5t9.5 82.5q-1 -10 -4 -21t-7.5 -20t-10.5 -15t-12 -6
q-11 0 -18 11t-5 36q2 26 14 43.5t29 17.5q15 0 25.5 -18.5t6.5 -55.5q-1 -14 -8 -32t-17.5 -37.5t-23.5 -38.5t-25 -34z" />
    <glyph glyph-name="tcommaaccent" unicode="&#x163;" horiz-adv-x="283" 
d="M31 456q-4 0 -4 2t12 17l62 76q13 16 15 16q3 0 3 -5v-63h158q3 0 3 -2t-8.5 -14t-19.5 -23q-5 -3 -10 -3.5t-19 -0.5h-104v-290q0 -72 18.5 -102.5t69.5 -30.5q28 0 47 10.5t33 24.5q4 0 4 -3q-23 -25 -52 -48t-64 -23q-29 0 -48.5 9t-31.5 28.5t-17.5 51t-5.5 76.5v297
h-41zM131 -273q-3 -3 -9.5 -0.5t-2.5 7.5q41 37 58.5 80.5t9.5 82.5q-1 -10 -4 -21t-7.5 -20t-10.5 -15t-12 -6q-11 0 -18 11t-5 36q2 26 14 43.5t29 17.5q15 0 25.5 -18.5t6.5 -55.5q-1 -14 -8 -32t-17.5 -37.5t-23.5 -38.5t-25 -34z" />
    <glyph glyph-name="Tcaron" unicode="&#x164;" horiz-adv-x="403" 
d="M177 642q0 8 5.5 16t21.5 27l16 18q-28 0 -56 0.5t-51 1t-38 0.5h-18q-14 0 -25.5 -1.5t-13.5 -1.5q-3 0 -3 3q0 2 3 7.5t14 16.5q11 13 16 17t10 4h306q22 0 30.5 1.5t10.5 1.5q3 0 3 -3t-8.5 -16t-19.5 -26q-5 -4 -13 -4.5t-25 -0.5h-115l1 -2v-32v-74.5v-102.5
t-0.5 -117t-0.5 -117.5v-103.5v-76v-35q0 -7 -27 -41q-8 -8 -12.5 -13.5t-9.5 -5.5q-4 0 -4 2v32.5v75t0.5 103t0.5 117.5t0.5 118t1 103.5t0.5 75v32.5zM205 791q-16 32 -28 54t-21 38t-15.5 28t-12.5 23q-1 7 11 23q13 17 18 12q11 -19 28.5 -53t43.5 -81q7 11 14.5 26
t14.5 31t13.5 32t12.5 29q6 14 12 14q4 0 4 -5t-4 -11q-6 -11 -15.5 -29t-20.5 -39.5t-23 -44.5t-24 -44q-2 -3 -4.5 -4t-3.5 1z" />
    <glyph glyph-name="tcaron" unicode="&#x165;" horiz-adv-x="283" 
d="M31 456q-4 0 -4 2t12 17l62 76q13 16 15 16q3 0 3 -5v-63h158q3 0 3 -2t-8.5 -14t-19.5 -23q-5 -3 -10 -3.5t-19 -0.5h-104v-290q0 -72 18.5 -102.5t69.5 -30.5q28 0 47 10.5t33 24.5q4 0 4 -3q-23 -25 -52 -48t-64 -23q-29 0 -48.5 9t-31.5 28.5t-17.5 51t-5.5 76.5v297
h-41zM193 554q-3 -3 -9.5 -0.5t-2.5 7.5q41 37 58.5 80.5t9.5 82.5q-1 -10 -4 -21t-7.5 -20t-10.5 -15t-12 -6q-11 0 -18 11t-5 36q2 26 14 43.5t29 17.5q15 0 25.5 -18.5t6.5 -55.5q-1 -14 -8 -32t-17.5 -37.5t-23.5 -38.5t-25 -34z" />
    <glyph glyph-name="Tbar" unicode="&#x166;" horiz-adv-x="403" 
d="M18 702q-3 0 -3 3q0 2 3 7.5t14 16.5q11 13 16 17t10 4h306q22 0 30.5 1.5t10.5 1.5q3 0 3 -3t-8.5 -16t-19.5 -26q-5 -4 -13 -4.5t-25 -0.5h-38.5t-76.5 1q0 -1 0.5 -1.5t0.5 -1.5v-24t-0.5 -55.5t-0.5 -79v-92.5h71q22 0 30.5 1.5t10.5 1.5q3 0 3 -3t-8.5 -16
t-19.5 -26q-5 -4 -13 -4.5t-25 -0.5h-49v-360q0 -7 -27 -41q-8 -8 -12.5 -13.5t-9.5 -5.5q-4 0 -4 2v44v100.5t0.5 133t0.5 141.5q-24 1 -43.5 1h-23.5q-14 0 -25.5 -1.5t-13.5 -1.5q-3 0 -3 3q0 2 3 7.5t14 16.5q11 13 16 17t10 4h66q0 39 0.5 73t1 59.5t0.5 41.5v18
q0 8 5.5 16t21.5 27q12 15 17 19h-56t-51.5 0.5t-38.5 0.5h-18q-14 0 -25.5 -1.5t-13.5 -1.5z" />
    <glyph glyph-name="tbar" unicode="&#x167;" horiz-adv-x="283" 
d="M31 456q-4 0 -4 2t12 17l62 76q13 16 15 16q3 0 3 -5v-63h158q3 0 3 -2t-8.5 -14t-19.5 -23q-5 -3 -10 -3.5t-19 -0.5h-104v-166h121q3 0 3 -2t-8.5 -14t-19.5 -23q-5 -3 -10 -3.5t-19 -0.5h-67v-81q0 -72 18.5 -102.5t69.5 -30.5q28 0 47 10.5t33 24.5q4 0 4 -3
q-23 -25 -52 -48t-64 -23q-29 0 -48.5 9t-31.5 28.5t-17.5 51t-5.5 76.5v88h-49q-3 0 -3 2t8.5 14t19.5 23q5 2 9.5 3t14.5 1v166h-41v0z" />
    <glyph glyph-name="Utilde" unicode="&#x168;" horiz-adv-x="547" 
d="M425 698q0 7 4 13.5t24 27.5q9 10 13 13t6 3q4 0 4 -6v-34.5v-80.5v-110.5t0.5 -126t0.5 -126v-111v-82v-36.5q0 -6 -4.5 -12.5t-18.5 -23.5q-10 -11 -15 -15t-8 -4q-5 0 -5 6v113q-14 -22 -34 -42.5t-44 -36t-50.5 -25t-51.5 -9.5q-38 0 -71 12t-58 38t-39.5 67.5
t-14.5 101.5v73.5v97.5t0.5 105.5t0.5 98v74v34.5q0 7 4 14.5t24 28.5q18 19 21 19t3 -5v-521q0 -93 40 -141t115 -48q54 0 92.5 21.5t62.5 52.5q0 47 -0.5 107.5t-0.5 124v125v110.5v80v35zM175 803q-1 -2 -3.5 -1t-1.5 3q8 14 15.5 30t13.5 24q7 9 17 16t26 7
q11 0 25.5 -6.5t29.5 -14.5t29 -14.5t26 -6.5q18 0 26.5 8t19.5 25q1 2 4 1t1 -3q-8 -14 -17.5 -30.5t-15.5 -24.5q-7 -9 -15.5 -14.5t-24.5 -5.5q-11 0 -25.5 6.5t-30 14t-30.5 14t-26 6.5q-17 0 -26 -9t-17 -25z" />
    <glyph glyph-name="utilde" unicode="&#x169;" horiz-adv-x="465" 
d="M57 448q0 5 4.5 13t18.5 23q18 19 23 19t5 -5v-24t-0.5 -55t-0.5 -96.5v-148.5q0 -76 34 -108.5t89 -32.5q34 0 55.5 9.5t39.5 28.5q17 17 30 43v335q0 5 4.5 13t18.5 23q17 18 22 18t5 -5v-453q0 -8 -4.5 -14.5t-21.5 -25.5q-10 -11 -14 -15t-6 -4q-4 0 -4 3v107
l-24 -28q-13 -13 -27 -26.5t-30.5 -24t-35 -17t-39.5 -6.5q-31 0 -57 9t-45 29t-29.5 53.5t-10.5 81.5v281zM137 555q-1 -2 -3.5 -1t-1.5 3q8 14 15.5 30t13.5 24q7 9 17 16t26 7q11 0 25.5 -6.5t29.5 -14.5t29 -14.5t26 -6.5q18 0 26.5 8t19.5 25q1 2 4 1t1 -3
q-8 -14 -17.5 -30.5t-15.5 -24.5q-7 -9 -15.5 -14.5t-24.5 -5.5q-11 0 -25.5 6.5t-30 14t-30.5 14t-26 6.5q-17 0 -26 -9t-17 -25z" />
    <glyph glyph-name="Umacron" unicode="&#x16a;" horiz-adv-x="547" 
d="M425 698q0 7 4 13.5t24 27.5q9 10 13 13t6 3q4 0 4 -6v-34.5v-80.5v-110.5t0.5 -126t0.5 -126v-111v-82v-36.5q0 -6 -4.5 -12.5t-18.5 -23.5q-10 -11 -15 -15t-8 -4q-5 0 -5 6v113q-14 -22 -34 -42.5t-44 -36t-50.5 -25t-51.5 -9.5q-38 0 -71 12t-58 38t-39.5 67.5
t-14.5 101.5v73.5v97.5t0.5 105.5t0.5 98v74v34.5q0 7 4 14.5t24 28.5q18 19 21 19t3 -5v-521q0 -93 40 -141t115 -48q54 0 92.5 21.5t62.5 52.5q0 47 -0.5 107.5t-0.5 124v125v110.5v80v35zM341 810q-9 0 -28.5 0.5t-40.5 1t-40.5 1t-29.5 0.5q-13 0 -21 -1t-10 -1t-2 2
q0 3 7 14t15 21q9 12 26 12q13 0 34.5 -0.5t44 -0.5t42 -0.5t28.5 -0.5q19 0 24 2t7 2t2 -2q0 -3 -8 -17.5t-16 -25.5q-5 -3 -12 -5t-22 -2z" />
    <glyph glyph-name="umacron" unicode="&#x16b;" horiz-adv-x="465" 
d="M57 448q0 5 4.5 13t18.5 23q18 19 23 19t5 -5v-24t-0.5 -55t-0.5 -96.5v-148.5q0 -76 34 -108.5t89 -32.5q34 0 55.5 9.5t39.5 28.5q17 17 30 43v335q0 5 4.5 13t18.5 23q17 18 22 18t5 -5v-453q0 -8 -4.5 -14.5t-21.5 -25.5q-10 -11 -14 -15t-6 -4q-4 0 -4 3v107
l-24 -28q-13 -13 -27 -26.5t-30.5 -24t-35 -17t-39.5 -6.5q-31 0 -57 9t-45 29t-29.5 53.5t-10.5 81.5v281zM304 558q-9 0 -28.5 0.5t-40.5 1t-40.5 1t-29.5 0.5q-13 0 -21 -1t-10 -1t-2 2q0 3 7 14t15 21q9 12 26 12q13 0 34.5 -0.5t44 -0.5t42 -0.5t28.5 -0.5q19 0 24 2
t7 2t2 -2q0 -3 -8 -17.5t-16 -25.5q-5 -3 -12 -5t-22 -2z" />
    <glyph glyph-name="Ubreve" unicode="&#x16c;" horiz-adv-x="547" 
d="M425 698q0 7 4 13.5t24 27.5q9 10 13 13t6 3q4 0 4 -6v-34.5v-80.5v-110.5t0.5 -126t0.5 -126v-111v-82v-36.5q0 -6 -4.5 -12.5t-18.5 -23.5q-10 -11 -15 -15t-8 -4q-5 0 -5 6v113q-14 -22 -34 -42.5t-44 -36t-50.5 -25t-51.5 -9.5q-38 0 -71 12t-58 38t-39.5 67.5
t-14.5 101.5v73.5v97.5t0.5 105.5t0.5 98v74v34.5q0 7 4 14.5t24 28.5q18 19 21 19t3 -5v-521q0 -93 40 -141t115 -48q54 0 92.5 21.5t62.5 52.5q0 47 -0.5 107.5t-0.5 124v125v110.5v80v35zM271 798q-37 0 -54.5 21t-17.5 47q0 23 13 42t24 27h1q2 0 2 -3q-9 -10 -9 -33
q0 -26 19 -43.5t51 -17.5q42 0 62 23.5t27 60.5q1 5 6 4t3 -6q-6 -16 -16.5 -37t-26.5 -40t-37 -32t-47 -13z" />
    <glyph glyph-name="ubreve" unicode="&#x16d;" horiz-adv-x="465" 
d="M57 448q0 5 4.5 13t18.5 23q18 19 23 19t5 -5v-24t-0.5 -55t-0.5 -96.5v-148.5q0 -76 34 -108.5t89 -32.5q34 0 55.5 9.5t39.5 28.5q17 17 30 43v335q0 5 4.5 13t18.5 23q17 18 22 18t5 -5v-453q0 -8 -4.5 -14.5t-21.5 -25.5q-10 -11 -14 -15t-6 -4q-4 0 -4 3v107
l-24 -28q-13 -13 -27 -26.5t-30.5 -24t-35 -17t-39.5 -6.5q-31 0 -57 9t-45 29t-29.5 53.5t-10.5 81.5v281zM234 548q-37 0 -54.5 21t-17.5 47q0 23 13 42t24 27h1q2 0 2 -3q-9 -10 -9 -33q0 -26 19 -43.5t51 -17.5q42 0 62 23.5t27 60.5q1 5 6 4t3 -6q-6 -16 -16.5 -37
t-26.5 -40t-37 -32t-47 -13z" />
    <glyph glyph-name="Uring" unicode="&#x16e;" horiz-adv-x="547" 
d="M425 698q0 7 4 13.5t24 27.5q9 10 13 13t6 3q4 0 4 -6v-34.5v-80.5v-110.5t0.5 -126t0.5 -126v-111v-82v-36.5q0 -6 -4.5 -12.5t-18.5 -23.5q-10 -11 -15 -15t-8 -4q-5 0 -5 6v113q-14 -22 -34 -42.5t-44 -36t-50.5 -25t-51.5 -9.5q-38 0 -71 12t-58 38t-39.5 67.5
t-14.5 101.5v73.5v97.5t0.5 105.5t0.5 98v74v34.5q0 7 4 14.5t24 28.5q18 19 21 19t3 -5v-521q0 -93 40 -141t115 -48q54 0 92.5 21.5t62.5 52.5q0 47 -0.5 107.5t-0.5 124v125v110.5v80v35zM270 769q-23 0 -38 7t-24.5 18t-13.5 24t-4 25q0 26 22 49t63 23q42 0 62 -22
t19 -51q0 -12 -6 -25t-17 -23.5t-27 -17.5t-36 -7zM270 776q25 0 45.5 12t20.5 33q0 23 -13.5 36.5t-48.5 13.5t-48.5 -15t-13.5 -35q0 -23 16 -34t42 -11z" />
    <glyph glyph-name="uring" unicode="&#x16f;" horiz-adv-x="465" 
d="M57 448q0 5 4.5 13t18.5 23q18 19 23 19t5 -5v-24t-0.5 -55t-0.5 -96.5v-148.5q0 -76 34 -108.5t89 -32.5q34 0 55.5 9.5t39.5 28.5q17 17 30 43v335q0 5 4.5 13t18.5 23q17 18 22 18t5 -5v-453q0 -8 -4.5 -14.5t-21.5 -25.5q-10 -11 -14 -15t-6 -4q-4 0 -4 3v107
l-24 -28q-13 -13 -27 -26.5t-30.5 -24t-35 -17t-39.5 -6.5q-31 0 -57 9t-45 29t-29.5 53.5t-10.5 81.5v281zM240 531q-23 0 -38 7t-24.5 18t-13.5 24t-4 25q0 26 22 49t63 23q42 0 62 -22t19 -51q0 -12 -6 -25t-17 -23.5t-27 -17.5t-36 -7zM240 538q25 0 45.5 12t20.5 33
q0 23 -13.5 36.5t-48.5 13.5t-48.5 -15t-13.5 -35q0 -23 16 -34t42 -11z" />
    <glyph glyph-name="Uhungarumlaut" unicode="&#x170;" horiz-adv-x="547" 
d="M425 698q0 7 4 13.5t24 27.5q9 10 13 13t6 3q4 0 4 -6v-34.5v-80.5v-110.5t0.5 -126t0.5 -126v-111v-82v-36.5q0 -6 -4.5 -12.5t-18.5 -23.5q-10 -11 -15 -15t-8 -4q-5 0 -5 6v113q-14 -22 -34 -42.5t-44 -36t-50.5 -25t-51.5 -9.5q-38 0 -71 12t-58 38t-39.5 67.5
t-14.5 101.5v73.5v97.5t0.5 105.5t0.5 98v74v34.5q0 7 4 14.5t24 28.5q18 19 21 19t3 -5v-521q0 -93 40 -141t115 -48q54 0 92.5 21.5t62.5 52.5q0 47 -0.5 107.5t-0.5 124v125v110.5v80v35zM285 788q-4 0 -4 4q0 1 3 4q21 17 43 42t41 48.5t32.5 41.5t16.5 23q5 7 9.5 11.5
t9.5 4.5q4 0 7 -6.5t5.5 -15t3 -17t-1.5 -12.5t-6 -9t-9 -10q-5 -6 -21.5 -16t-37.5 -24t-44.5 -31t-42.5 -36q-2 -2 -4 -2zM182 788q-4 0 -4 4q0 1 3 4q21 17 39.5 42t33.5 48.5t25 41.5t13 23q5 7 9.5 11.5t9.5 4.5q4 0 7 -6.5t5.5 -15t3 -17t-1.5 -12.5t-6 -9t-9 -10
q-5 -6 -18 -16t-30 -24t-37 -31t-39 -36q-2 -2 -4 -2z" />
    <glyph glyph-name="uhungarumlaut" unicode="&#x171;" horiz-adv-x="465" 
d="M57 448q0 5 4.5 13t18.5 23q18 19 23 19t5 -5v-24t-0.5 -55t-0.5 -96.5v-148.5q0 -76 34 -108.5t89 -32.5q34 0 55.5 9.5t39.5 28.5q17 17 30 43v335q0 5 4.5 13t18.5 23q17 18 22 18t5 -5v-453q0 -8 -4.5 -14.5t-21.5 -25.5q-10 -11 -14 -15t-6 -4q-4 0 -4 3v107
l-24 -28q-13 -13 -27 -26.5t-30.5 -24t-35 -17t-39.5 -6.5q-31 0 -57 9t-45 29t-29.5 53.5t-10.5 81.5v281zM257 537q-4 0 -4 4q0 1 3 4q21 17 43 42t41 48.5t32.5 41.5t16.5 23q5 7 9.5 11.5t9.5 4.5q4 0 7 -6.5t5.5 -15t3 -17t-1.5 -12.5t-6 -9t-9 -10q-5 -6 -21.5 -16
t-37.5 -24t-44.5 -31t-42.5 -36q-2 -2 -4 -2zM154 537q-4 0 -4 4q0 1 3 4q21 17 39.5 42t33.5 48.5t25 41.5t13 23q5 7 9.5 11.5t9.5 4.5q4 0 7 -6.5t5.5 -15t3 -17t-1.5 -12.5t-6 -9t-9 -10q-5 -6 -18 -16t-30 -24t-37 -31t-39 -36q-2 -2 -4 -2z" />
    <glyph glyph-name="Uogonek" unicode="&#x172;" horiz-adv-x="547" 
d="M425 698q0 7 4 13.5t24 27.5q9 10 13 13t6 3q4 0 4 -6v-34.5v-80.5v-110.5t0.5 -126t0.5 -126v-111v-82v-36.5q0 -6 -4.5 -12.5t-18.5 -23.5l-5 -5l-4 -4q-1 -3 -4 -4q0 -1 -1 -1q-20 -19 -33 -34t-20.5 -28.5t-11 -26t-3.5 -25.5q0 -27 16.5 -40.5t42.5 -13.5
q22 0 36 14.5t23 34.5l4 -2q-5 -15 -15 -31t-22.5 -29.5t-28 -22t-32.5 -8.5q-32 0 -50 16t-18 43q0 15 10 34t25 39.5t32 41t31 38.5v114q-14 -22 -34 -42.5t-44 -36t-50.5 -25t-51.5 -9.5q-38 0 -71 12t-58 38t-39.5 67.5t-14.5 101.5v73.5v97.5t0.5 105.5t0.5 98v74v34.5
q0 7 4 14.5t24 28.5q18 19 21 19t3 -5v-521q0 -93 40 -141t115 -48q54 0 92.5 21.5t62.5 52.5q0 47 -0.5 107.5t-0.5 124v125v110.5v80v35z" />
    <glyph glyph-name="uogonek" unicode="&#x173;" horiz-adv-x="465" 
d="M323 -218q-32 0 -50 16t-18 43q0 16 10.5 35t26 40t32.5 41.5t31 39.5v99l-24 -28q-13 -13 -27 -26.5t-30.5 -24t-35 -17t-39.5 -6.5q-31 0 -57 9t-45 29t-29.5 53.5t-10.5 81.5v281q0 5 4.5 13t18.5 23q18 19 23 19t5 -5v-24t-0.5 -55t-0.5 -96.5v-148.5
q0 -76 34 -108.5t89 -32.5q34 0 55.5 9.5t39.5 28.5q17 17 30 43v335q0 5 4.5 13t18.5 23q17 18 22 18t5 -5v-453q0 -8 -4.5 -14.5t-21.5 -25.5q-10 -11 -14 -14.5t-6 -4.5q-34 -33 -47 -57t-13 -49q0 -27 16.5 -40.5t42.5 -13.5q22 0 36 14.5t23 34.5l4 -2q-5 -15 -15 -31
t-22.5 -29.5t-28 -22t-32.5 -8.5z" />
    <glyph glyph-name="Wcircumflex" unicode="&#x174;" horiz-adv-x="898" 
d="M259 25q0 -3 -0.5 -7t-4.5 -8q-19 -23 -25.5 -28t-8.5 -5q-3 0 -4 6l-177 721q0 3 0.5 4t2 3t5 7t9.5 14q7 8 12.5 13.5t8.5 5.5l5 -10l160 -649q43 143 84.5 288.5t79.5 287.5q2 10 3 17.5t-1 12.5q0 2 0.5 3.5t2 3.5t5 7t10.5 14q7 8 10 13t6 5q2 1 5 -10l210 -643
q36 140 69 292.5t64 295.5q7 12 18.5 26t22.5 26t19.5 20t10.5 8q4 0 4 -4q-53 -166 -104.5 -336.5t-99.5 -338.5l18 -55q4 -7 -1 -15q-15 -23 -23.5 -31.5t-10.5 -8.5t-4 5l-213 650q-23 -64 -46 -132.5t-46 -138.5t-45.5 -139t-44.5 -134zM458 973q16 -32 28 -54t21 -38
t15.5 -28t12.5 -23q1 -7 -11 -23q-13 -17 -18 -12q-11 19 -28.5 53t-43.5 81q-7 -11 -14.5 -26t-14.5 -31t-13.5 -32t-12.5 -29q-6 -14 -12 -14q-4 0 -4 5t4 11q6 10 15.5 28.5t20.5 40t23 44.5t24 44q2 3 4.5 4t3.5 -1z" />
    <glyph glyph-name="wcircumflex" unicode="&#x175;" horiz-adv-x="749" 
d="M205 37q-2 -6 -6.5 -12.5t-12.5 -16.5q-15 -16 -19 -16t-6 4l-138 459q-3 8 0.5 13.5t19.5 22.5q15 15 17 15q3 0 5 -6l134 -458q39 107 69.5 202.5t62.5 193.5q8 24 13.5 33.5t15.5 19.5q15 15 17 15q3 0 5 -6l163 -459l120 403q4 9 9 14l20 20q26 26 32 26t3 -7
l-178 -460q-2 -6 -6.5 -12.5t-12.5 -16.5q-15 -16 -18 -16q-2 0 -4 4l-154 421q-38 -92 -74 -185t-77 -195zM389 716q16 -32 28 -54t21 -38t15.5 -28t12.5 -23q1 -7 -11 -23q-13 -17 -18 -12q-11 19 -28.5 53t-43.5 81q-7 -11 -14.5 -26t-14.5 -31t-13.5 -32t-12.5 -29
q-6 -14 -12 -14q-4 0 -4 5t4 11q6 10 15.5 28.5t20.5 40t23 44.5t24 44q2 3 4.5 4t3.5 -1z" />
    <glyph glyph-name="Ycircumflex" unicode="&#x176;" horiz-adv-x="509" 
d="M271 44q0 -4 -4.5 -13.5t-19.5 -25.5q-7 -8 -14 -13t-11 -5t-4 4v32.5v76t0.5 104.5t0.5 118l-186 381q0 3 2.5 8.5t19.5 25.5q8 11 12 14.5t6 3.5t6 -10l189 -402q41 88 77.5 174.5t71.5 172.5q7 9 20 20.5t26.5 22t24 17.5t12.5 7q4 0 4 -4q-121 -205 -233 -416v-293z
M279 970q16 -32 28 -54t21 -38t15.5 -28t12.5 -23q1 -7 -11 -23q-13 -17 -18 -12q-11 19 -28.5 53t-43.5 81q-7 -11 -14.5 -26t-14.5 -31t-13.5 -32t-12.5 -29q-6 -14 -12 -14q-4 0 -4 5t4 11q6 10 15.5 28.5t20.5 40t23 44.5t24 44q2 3 4.5 4t3.5 -1z" />
    <glyph glyph-name="ycircumflex" unicode="&#x177;" horiz-adv-x="468" 
d="M57 448q0 5 5 13t19 23q18 20 23 20t5 -5v-311q0 -76 31 -108.5t86 -32.5q36 0 57 8t43 28l31 28v338q0 5 5 13t19 23q17 18 22 18q4 0 4 -5v-513q0 -30 -5.5 -55.5t-15.5 -48t-25.5 -44t-34.5 -43.5q-32 -37 -68.5 -58.5t-85.5 -21.5q-51 0 -86.5 25.5t-35.5 74.5
q0 24 16 48.5t43 50t62 52t73 53.5q-25 -10 -49 -10q-31 0 -56.5 9t-43.5 29t-28 53.5t-10 81.5v267zM96 -151q0 -45 31 -68t76 -23q44 0 71 8.5t47 31.5q21 23 29 50.5t8 63.5l-1 191l-25 -23q-13 -12 -27 -24t-31 -23q-41 -30 -74 -55t-56 -47t-35.5 -42t-12.5 -40z
M254 725q16 -32 28 -54t21 -38t15.5 -28t12.5 -23q1 -7 -11 -23q-13 -17 -18 -12q-11 19 -28.5 53t-43.5 81q-7 -11 -14.5 -26t-14.5 -31t-13.5 -32t-12.5 -29q-6 -14 -12 -14q-4 0 -4 5t4 11q6 10 15.5 28.5t20.5 40t23 44.5t24 44q2 3 4.5 4t3.5 -1z" />
    <glyph glyph-name="Ydieresis" unicode="&#x178;" horiz-adv-x="509" 
d="M271 44q0 -4 -4.5 -13.5t-19.5 -25.5q-7 -8 -14 -13t-11 -5t-4 4v32.5v76t0.5 104.5t0.5 118l-186 381q0 3 2.5 8.5t19.5 25.5q8 11 12 14.5t6 3.5t6 -10l189 -402q41 88 77.5 174.5t71.5 172.5q7 9 20 20.5t26.5 22t24 17.5t12.5 7q4 0 4 -4q-121 -205 -233 -416v-293z
M319 786q-14 0 -20.5 17t-4.5 43t11 43t23 17q12 0 18 -17t4 -43q-2 -28 -9.5 -44t-21.5 -16zM216 786q-14 0 -20 17t-4 43t10.5 43t22.5 17q12 0 18.5 -17t4.5 -43q-2 -28 -10 -44t-22 -16z" />
    <glyph glyph-name="Zacute" unicode="&#x179;" horiz-adv-x="478" 
d="M89 701q-13 0 -20 -1t-9 -1q-3 0 -3 2q0 3 5.5 10.5t23.5 27.5q6 7 12 9.5t17 2.5h25.5h53.5t67 -0.5t67 -0.5h53h25q21 0 33.5 0.5t14.5 0.5q3 0 3 -3t-7.5 -13.5t-13.5 -17.5l-4 -6l-381 -674q9 8 26 8h310q38 0 55 2.5t19 2.5t2 -2q0 -1 -3.5 -6.5t-8.5 -13t-11 -16
t-12 -14.5q-6 -4 -12.5 -5t-23.5 -1h-25.5h-54t-68 0.5t-68.5 0.5h-54h-25h-29t-25.5 -0.5t-19 -0.5h-8.5t-3 2.5t-2 3.5l27 44l381 663q-8 -3 -22.5 -3.5t-31.5 -0.5h-275zM250 802q-5 0 -5 4q0 2 3 5q18 17 32.5 46.5t26 59t18.5 52.5t9 28q7 17 15 20q4 1 8 -8t7.5 -21
t5.5 -24t1 -16t-4 -10t-7 -11q-4 -6 -14.5 -18.5t-25 -29t-31.5 -35.5t-33 -38q-3 -4 -6 -4z" />
    <glyph glyph-name="zacute" unicode="&#x17a;" horiz-adv-x="424" 
d="M144 450q-30 0 -48 -0.5t-27.5 -1.5t-12.5 -1.5l-3 -0.5q-2 0 -2 2t6 10.5t23 28.5q6 7 12 9.5t17 2.5h21.5h43.5t54 -0.5t54.5 -0.5h43.5h21h47q5 0 5 -3q0 -2 -8.5 -13.5t-17.5 -22.5l-305 -413q7 3 21 3l273 -1q21 0 27 2t8 2t2 -2t-11.5 -17.5t-22.5 -28.5
q-6 -4 -12.5 -5t-23.5 -1h-306q-1 0 -2.5 2.5t-1.5 3.5l31 44l309 405q-6 -2 -13.5 -2.5t-20.5 -0.5h-181zM196 554q-5 0 -5 4q0 2 3 5q18 17 32.5 46.5t26 59t18.5 52.5t9 28q7 17 15 20q4 1 8 -8t7.5 -21t5.5 -24t1 -16t-4 -10t-7 -11q-4 -6 -14.5 -18.5t-25 -29
t-31.5 -35.5t-33 -38q-3 -4 -6 -4z" />
    <glyph glyph-name="Zdotaccent" unicode="&#x17b;" horiz-adv-x="478" 
d="M89 701q-13 0 -20 -1t-9 -1q-3 0 -3 2q0 3 5.5 10.5t23.5 27.5q6 7 12 9.5t17 2.5h25.5h53.5t67 -0.5t67 -0.5h53h25q21 0 33.5 0.5t14.5 0.5q3 0 3 -3t-7.5 -13.5t-13.5 -17.5l-4 -6l-381 -674q9 8 26 8h310q38 0 55 2.5t19 2.5t2 -2q0 -1 -3.5 -6.5t-8.5 -13t-11 -16
t-12 -14.5q-6 -4 -12.5 -5t-23.5 -1h-25.5h-54t-68 0.5t-68.5 0.5h-54h-25h-29t-25.5 -0.5t-19 -0.5h-8.5t-3 2.5t-2 3.5l27 44l381 663q-8 -3 -22.5 -3.5t-31.5 -0.5h-275zM269 823q-17 0 -24.5 17t-5.5 44q2 28 13 45.5t29 17.5q14 0 22 -17t6 -46t-12.5 -45t-27.5 -16z
" />
    <glyph glyph-name="zdotaccent" unicode="&#x17c;" horiz-adv-x="424" 
d="M144 450q-30 0 -48 -0.5t-27.5 -1.5t-12.5 -1.5l-3 -0.5q-2 0 -2 2t6 10.5t23 28.5q6 7 12 9.5t17 2.5h21.5h43.5t54 -0.5t54.5 -0.5h43.5h21h47q5 0 5 -3q0 -2 -8.5 -13.5t-17.5 -22.5l-305 -413q7 3 21 3l273 -1q21 0 27 2t8 2t2 -2t-11.5 -17.5t-22.5 -28.5
q-6 -4 -12.5 -5t-23.5 -1h-306q-1 0 -2.5 2.5t-1.5 3.5l31 44l309 405q-6 -2 -13.5 -2.5t-20.5 -0.5h-181zM228 555q-17 0 -24.5 17t-5.5 44q2 28 13 45.5t29 17.5q14 0 22 -17t6 -46t-12.5 -45t-27.5 -16z" />
    <glyph glyph-name="Zcaron" unicode="&#x17d;" horiz-adv-x="478" 
d="M89 701q-13 0 -20 -1t-9 -1q-3 0 -3 2q0 3 5.5 10.5t23.5 27.5q6 7 12 9.5t17 2.5h25.5h53.5t67 -0.5t67 -0.5h53h25q21 0 33.5 0.5t14.5 0.5q3 0 3 -3t-7.5 -13.5t-13.5 -17.5l-4 -6l-381 -674q9 8 26 8h310q38 0 55 2.5t19 2.5t2 -2q0 -1 -3.5 -6.5t-8.5 -13t-11 -16
t-12 -14.5q-6 -4 -12.5 -5t-23.5 -1h-25.5h-54t-68 0.5t-68.5 0.5h-54h-25h-29t-25.5 -0.5t-19 -0.5h-8.5t-3 2.5t-2 3.5l27 44l381 663q-8 -3 -22.5 -3.5t-31.5 -0.5h-275zM258 810q-16 32 -28 54t-21 38t-15.5 28t-12.5 23q-1 7 11 23q13 17 18 12q11 -19 28.5 -53
t43.5 -81q7 11 14.5 26t14.5 31t13.5 32t12.5 29q6 14 12 14q4 0 4 -5t-4 -11q-6 -11 -15.5 -29t-20.5 -39.5t-23 -44.5t-24 -44q-2 -3 -4.5 -4t-3.5 1z" />
    <glyph glyph-name="zcaron" unicode="&#x17e;" horiz-adv-x="424" 
d="M144 450q-30 0 -48 -0.5t-27.5 -1.5t-12.5 -1.5l-3 -0.5q-2 0 -2 2t6 10.5t23 28.5q6 7 12 9.5t17 2.5h21.5h43.5t54 -0.5t54.5 -0.5h43.5h21h47q5 0 5 -3q0 -2 -8.5 -13.5t-17.5 -22.5l-305 -413q7 3 21 3l273 -1q21 0 27 2t8 2t2 -2t-11.5 -17.5t-22.5 -28.5
q-6 -4 -12.5 -5t-23.5 -1h-306q-1 0 -2.5 2.5t-1.5 3.5l31 44l309 405q-6 -2 -13.5 -2.5t-20.5 -0.5h-181zM221 549q-16 32 -28 54t-21 38t-15.5 28t-12.5 23q-1 7 11 23q13 17 18 12q11 -19 28.5 -53t43.5 -81q7 11 14.5 26t14.5 31t13.5 32t12.5 29q6 14 12 14q4 0 4 -5
t-4 -11q-6 -11 -15.5 -29t-20.5 -39.5t-23 -44.5t-24 -44q-2 -3 -4.5 -4t-3.5 1z" />
    <glyph glyph-name="florin" unicode="&#x192;" horiz-adv-x="523" 
d="M291 44q0 -48 -15.5 -94t-42 -82.5t-62 -58.5t-76.5 -22q-21 0 -40.5 7t-33.5 21t-22.5 33t-8.5 43q0 54 31 96t94 77q2 1 3.5 -0.5t-0.5 -3.5q-48 -30 -67 -62t-19 -80q0 -47 29 -76t77 -29q56 0 82 51t26 145q0 26 -1.5 61t-4 75.5t-6 84.5t-6.5 89q-35 0 -66 0.5
t-46 0.5q-19 0 -24 -2t-7 -2t-2 2q0 3 8 15.5t16 23.5q5 3 12 5t22 2q8 0 31.5 -0.5t52.5 -0.5q-4 63 -7 118.5t-3 94.5q0 47 15 92t41 80.5t60.5 57t74.5 21.5q42 1 71 -26t29 -74q0 -53 -29.5 -93t-89.5 -78q-2 -1 -3.5 0.5t0.5 3.5q21 15 36 29t25 30.5t14.5 36t4.5 45.5
q0 45 -25.5 72.5t-72.5 27.5q-54 0 -79.5 -50.5t-25.5 -141.5q0 -42 4 -107.5t9 -139.5q38 -1 71.5 -1h49.5q19 0 24 2t7 2t2 -2q0 -3 -8 -15.5t-16 -23.5q-5 -3 -12 -5t-22 -2h-38.5t-53.5 1q5 -75 9 -146.5t4 -127.5z" />
    <glyph glyph-name="Aringacute" unicode="&#x1fa;" horiz-adv-x="549" 
d="M226 709q-1 2 -0.5 6.5t3.5 7.5q18 23 24.5 29.5t8.5 6.5t4 -5l255 -715q1 -4 -3 -9.5t-15 -19.5q-13 -16 -18 -16q-3 0 -6 9l-120 333q-2 -5 -7 -16.5t-13 -22.5q-5 -3 -13 -4.5t-25 -1.5q-44 0 -67 -0.5t-34.5 -0.5h-15h-8.5q-14 0 -20.5 -1t-9.5 -2l-72 -238
q-9 -12 -20 -23.5t-21 -20.5t-17.5 -14t-8.5 -5q-5 -1 -5 2q63 155 126 323.5t120 334.5zM160 329q5 3 12.5 5t24.5 2q6 0 24 0.5t39 0.5h39h23q22 0 28 2t8 2l-106 294l-93 -307zM264 774q-23 0 -38 7t-24.5 18t-13.5 24t-4 25q0 26 22 49t63 23q42 0 62 -22t19 -51
q0 -12 -6 -25t-17 -23.5t-27 -17.5t-36 -7zM264 781q25 0 45.5 12t20.5 33q0 23 -13.5 36.5t-48.5 13.5t-48.5 -15t-13.5 -35q0 -23 16 -34t42 -11zM263 942q-5 0 -5 4q0 2 3 5q18 17 32.5 46.5t26 59t18.5 52.5t9 28q7 17 15 20q4 1 8 -8t7.5 -21t5.5 -24t1 -16t-4 -10
t-7 -11q-4 -6 -14.5 -18.5t-25 -29t-31.5 -35.5t-33 -38q-3 -4 -6 -4z" />
    <glyph glyph-name="Scommaaccent" unicode="&#x218;" horiz-adv-x="457" 
d="M201 -13q-51 0 -92 19.5t-70 54.5q-2 2 1.5 7t20.5 22q15 15 20.5 18.5t7.5 1.5q35 -38 71.5 -57.5t88.5 -19.5q65 0 97.5 40t32.5 103q0 46 -24 80t-60 61.5t-78 52.5t-78 52.5t-60 61.5t-24 80q0 35 20 70t49 63t63 45.5t63 17.5q49 0 82 -14t66 -43q2 -2 -1.5 -7
t-17.5 -19t-18.5 -16t-6.5 -1q-25 25 -59.5 41.5t-82.5 16.5q-54 0 -83 -29t-29 -89q0 -45 24 -78.5t60 -61t78 -52t78 -51.5t60 -60.5t24 -77.5q0 -35 -18.5 -75.5t-49.5 -75.5t-71.5 -58t-83.5 -23zM182 -296q-3 -3 -9.5 -0.5t-2.5 7.5q41 37 58.5 80.5t9.5 82.5
q-1 -10 -4 -21t-7.5 -20t-10.5 -15t-12 -6q-11 0 -18 11t-5 36q2 26 14 43.5t29 17.5q15 0 25.5 -18.5t6.5 -55.5q-1 -14 -8 -32t-17.5 -37.5t-23.5 -38.5t-25 -34z" />
    </font>
</defs>
</svg>
